<svg width="37" height="34" viewBox="0 0 37 34" fill="none" xmlns="http://www.w3.org/2000/svg">
<rect width="37" height="34" rx="5" fill="#080055"/>
<circle cx="31" cy="25.5" r="3" fill="#FFF7B1"/>
<path d="M19.5 7.76452C19.5 6.24247 20.7424 5.01312 22.2644 5.02919L33.75 5.15048V16.75C33.75 18.2688 32.5188 19.5 31 19.5V19.5C29.4812 19.5 28.25 18.2688 28.25 16.75V10.5H27.25L22.2355 10.5C20.7247 10.5 19.5 9.27529 19.5 7.76452V7.76452Z" fill="#6C60EA"/>
<path d="M10.5 16.75C10.5 15.2312 11.7312 14 13.25 14H22.25C23.7688 14 25 15.2312 25 16.75V16.75C25 18.2688 23.7688 19.5 22.25 19.5H13.25C11.7312 19.5 10.5 18.2688 10.5 16.75V16.75Z" fill="#6C60EA"/>
<path d="M2 25.5C2 23.8431 3.34315 22.5 5 22.5H22C23.6569 22.5 25 23.8431 25 25.5V25.5C25 27.1569 23.6569 28.5 22 28.5H5C3.34315 28.5 2 27.1569 2 25.5V25.5Z" fill="#6C60EA"/>
</svg>
