<svg width="102" height="29" viewBox="0 0 102 29" fill="none" xmlns="http://www.w3.org/2000/svg">
<path d="M42.556 13L39.508 9.268V13H37.828V4.624H39.508V8.38L42.556 4.624H44.584L41.128 8.776L44.68 13H42.556ZM45.113 9.652C45.113 8.98 45.245 8.384 45.509 7.864C45.781 7.344 46.145 6.944 46.601 6.664C47.065 6.384 47.581 6.244 48.149 6.244C48.645 6.244 49.077 6.344 49.445 6.544C49.821 6.744 50.121 6.996 50.345 7.3V6.352H52.037V13H50.345V12.028C50.129 12.34 49.829 12.6 49.445 12.808C49.069 13.008 48.633 13.108 48.137 13.108C47.577 13.108 47.065 12.964 46.601 12.676C46.145 12.388 45.781 11.984 45.509 11.464C45.245 10.936 45.113 10.332 45.113 9.652ZM50.345 9.676C50.345 9.268 50.265 8.92 50.105 8.632C49.945 8.336 49.729 8.112 49.457 7.96C49.185 7.8 48.893 7.72 48.581 7.72C48.269 7.72 47.981 7.796 47.717 7.948C47.453 8.1 47.237 8.324 47.069 8.62C46.909 8.908 46.829 9.252 46.829 9.652C46.829 10.052 46.909 10.404 47.069 10.708C47.237 11.004 47.453 11.232 47.717 11.392C47.989 11.552 48.277 11.632 48.581 11.632C48.893 11.632 49.185 11.556 49.457 11.404C49.729 11.244 49.945 11.02 50.105 10.732C50.265 10.436 50.345 10.084 50.345 9.676ZM55.1178 4.12V13H53.4378V4.12H55.1178ZM56.1057 9.652C56.1057 8.98 56.2377 8.384 56.5017 7.864C56.7737 7.344 57.1377 6.944 57.5937 6.664C58.0577 6.384 58.5737 6.244 59.1417 6.244C59.6377 6.244 60.0697 6.344 60.4377 6.544C60.8137 6.744 61.1137 6.996 61.3377 7.3V6.352H63.0297V13H61.3377V12.028C61.1217 12.34 60.8217 12.6 60.4377 12.808C60.0617 13.008 59.6257 13.108 59.1297 13.108C58.5697 13.108 58.0577 12.964 57.5937 12.676C57.1377 12.388 56.7737 11.984 56.5017 11.464C56.2377 10.936 56.1057 10.332 56.1057 9.652ZM61.3377 9.676C61.3377 9.268 61.2577 8.92 61.0977 8.632C60.9377 8.336 60.7217 8.112 60.4497 7.96C60.1777 7.8 59.8857 7.72 59.5737 7.72C59.2617 7.72 58.9737 7.796 58.7097 7.948C58.4457 8.1 58.2297 8.324 58.0617 8.62C57.9017 8.908 57.8217 9.252 57.8217 9.652C57.8217 10.052 57.9017 10.404 58.0617 10.708C58.2297 11.004 58.4457 11.232 58.7097 11.392C58.9817 11.552 59.2697 11.632 59.5737 11.632C59.8857 11.632 60.1777 11.556 60.4497 11.404C60.7217 11.244 60.9377 11.02 61.0977 10.732C61.2577 10.436 61.3377 10.084 61.3377 9.676ZM72.6865 6.256C73.5025 6.256 74.1585 6.508 74.6545 7.012C75.1585 7.508 75.4105 8.204 75.4105 9.1V13H73.7305V9.328C73.7305 8.808 73.5985 8.412 73.3345 8.14C73.0705 7.86 72.7105 7.72 72.2545 7.72C71.7985 7.72 71.4345 7.86 71.1625 8.14C70.8985 8.412 70.7665 8.808 70.7665 9.328V13H69.0865V9.328C69.0865 8.808 68.9545 8.412 68.6905 8.14C68.4265 7.86 68.0665 7.72 67.6105 7.72C67.1465 7.72 66.7785 7.86 66.5065 8.14C66.2425 8.412 66.1105 8.808 66.1105 9.328V13H64.4305V6.352H66.1105V7.156C66.3265 6.876 66.6025 6.656 66.9385 6.496C67.2825 6.336 67.6585 6.256 68.0665 6.256C68.5865 6.256 69.0505 6.368 69.4585 6.592C69.8665 6.808 70.1825 7.12 70.4065 7.528C70.6225 7.144 70.9345 6.836 71.3425 6.604C71.7585 6.372 72.2065 6.256 72.6865 6.256Z" fill="white"/>
<path d="M42.964 23.404H39.628L39.076 25H37.312L40.324 16.612H42.28L45.292 25H43.516L42.964 23.404ZM42.508 22.06L41.296 18.556L40.084 22.06H42.508ZM45.7458 21.676C45.7458 20.988 45.8858 20.388 46.1658 19.876C46.4458 19.356 46.8338 18.956 47.3298 18.676C47.8258 18.388 48.3938 18.244 49.0338 18.244C49.8578 18.244 50.5378 18.452 51.0738 18.868C51.6178 19.276 51.9818 19.852 52.1658 20.596H50.3538C50.2578 20.308 50.0938 20.084 49.8618 19.924C49.6378 19.756 49.3578 19.672 49.0218 19.672C48.5418 19.672 48.1618 19.848 47.8818 20.2C47.6018 20.544 47.4618 21.036 47.4618 21.676C47.4618 22.308 47.6018 22.8 47.8818 23.152C48.1618 23.496 48.5418 23.668 49.0218 23.668C49.7018 23.668 50.1458 23.364 50.3538 22.756H52.1658C51.9818 23.476 51.6178 24.048 51.0738 24.472C50.5298 24.896 49.8498 25.108 49.0338 25.108C48.3938 25.108 47.8258 24.968 47.3298 24.688C46.8338 24.4 46.4458 24 46.1658 23.488C45.8858 22.968 45.7458 22.364 45.7458 21.676ZM52.7246 21.652C52.7246 20.98 52.8566 20.384 53.1206 19.864C53.3926 19.344 53.7566 18.944 54.2126 18.664C54.6766 18.384 55.1926 18.244 55.7606 18.244C56.2566 18.244 56.6886 18.344 57.0566 18.544C57.4326 18.744 57.7326 18.996 57.9566 19.3V18.352H59.6486V25H57.9566V24.028C57.7406 24.34 57.4406 24.6 57.0566 24.808C56.6806 25.008 56.2446 25.108 55.7486 25.108C55.1886 25.108 54.6766 24.964 54.2126 24.676C53.7566 24.388 53.3926 23.984 53.1206 23.464C52.8566 22.936 52.7246 22.332 52.7246 21.652ZM57.9566 21.676C57.9566 21.268 57.8766 20.92 57.7166 20.632C57.5566 20.336 57.3406 20.112 57.0686 19.96C56.7966 19.8 56.5046 19.72 56.1926 19.72C55.8806 19.72 55.5926 19.796 55.3286 19.948C55.0646 20.1 54.8486 20.324 54.6806 20.62C54.5206 20.908 54.4406 21.252 54.4406 21.652C54.4406 22.052 54.5206 22.404 54.6806 22.708C54.8486 23.004 55.0646 23.232 55.3286 23.392C55.6006 23.552 55.8886 23.632 56.1926 23.632C56.5046 23.632 56.7966 23.556 57.0686 23.404C57.3406 23.244 57.5566 23.02 57.7166 22.732C57.8766 22.436 57.9566 22.084 57.9566 21.676ZM60.6174 21.652C60.6174 20.98 60.7494 20.384 61.0134 19.864C61.2854 19.344 61.6534 18.944 62.1174 18.664C62.5814 18.384 63.0974 18.244 63.6654 18.244C64.0974 18.244 64.5094 18.34 64.9014 18.532C65.2934 18.716 65.6054 18.964 65.8374 19.276V16.12H67.5414V25H65.8374V24.016C65.6294 24.344 65.3374 24.608 64.9614 24.808C64.5854 25.008 64.1494 25.108 63.6534 25.108C63.0934 25.108 62.5814 24.964 62.1174 24.676C61.6534 24.388 61.2854 23.984 61.0134 23.464C60.7494 22.936 60.6174 22.332 60.6174 21.652ZM65.8494 21.676C65.8494 21.268 65.7694 20.92 65.6094 20.632C65.4494 20.336 65.2334 20.112 64.9614 19.96C64.6894 19.8 64.3974 19.72 64.0854 19.72C63.7734 19.72 63.4854 19.796 63.2214 19.948C62.9574 20.1 62.7414 20.324 62.5734 20.62C62.4134 20.908 62.3334 21.252 62.3334 21.652C62.3334 22.052 62.4134 22.404 62.5734 22.708C62.7414 23.004 62.9574 23.232 63.2214 23.392C63.4934 23.552 63.7814 23.632 64.0854 23.632C64.3974 23.632 64.6894 23.556 64.9614 23.404C65.2334 23.244 65.4494 23.02 65.6094 22.732C65.7694 22.436 65.8494 22.084 65.8494 21.676ZM75.1222 21.532C75.1222 21.772 75.1062 21.988 75.0742 22.18H70.2142C70.2542 22.66 70.4222 23.036 70.7182 23.308C71.0142 23.58 71.3782 23.716 71.8102 23.716C72.4342 23.716 72.8782 23.448 73.1422 22.912H74.9542C74.7622 23.552 74.3942 24.08 73.8502 24.496C73.3062 24.904 72.6382 25.108 71.8462 25.108C71.2062 25.108 70.6302 24.968 70.1182 24.688C69.6142 24.4 69.2182 23.996 68.9302 23.476C68.6502 22.956 68.5102 22.356 68.5102 21.676C68.5102 20.988 68.6502 20.384 68.9302 19.864C69.2102 19.344 69.6022 18.944 70.1062 18.664C70.6102 18.384 71.1902 18.244 71.8462 18.244C72.4782 18.244 73.0422 18.38 73.5382 18.652C74.0422 18.924 74.4302 19.312 74.7022 19.816C74.9822 20.312 75.1222 20.884 75.1222 21.532ZM73.3822 21.052C73.3742 20.62 73.2182 20.276 72.9142 20.02C72.6102 19.756 72.2382 19.624 71.7982 19.624C71.3822 19.624 71.0302 19.752 70.7422 20.008C70.4622 20.256 70.2902 20.604 70.2262 21.052H73.3822ZM84.3645 18.256C85.1805 18.256 85.8365 18.508 86.3325 19.012C86.8365 19.508 87.0885 20.204 87.0885 21.1V25H85.4085V21.328C85.4085 20.808 85.2765 20.412 85.0125 20.14C84.7485 19.86 84.3885 19.72 83.9325 19.72C83.4765 19.72 83.1125 19.86 82.8405 20.14C82.5765 20.412 82.4445 20.808 82.4445 21.328V25H80.7645V21.328C80.7645 20.808 80.6325 20.412 80.3685 20.14C80.1045 19.86 79.7445 19.72 79.2885 19.72C78.8245 19.72 78.4565 19.86 78.1845 20.14C77.9205 20.412 77.7885 20.808 77.7885 21.328V25H76.1085V18.352H77.7885V19.156C78.0045 18.876 78.2805 18.656 78.6165 18.496C78.9605 18.336 79.3365 18.256 79.7445 18.256C80.2645 18.256 80.7285 18.368 81.1365 18.592C81.5445 18.808 81.8605 19.12 82.0845 19.528C82.3005 19.144 82.6125 18.836 83.0205 18.604C83.4365 18.372 83.8845 18.256 84.3645 18.256ZM94.8027 18.352L90.6867 28.144H88.8987L90.3387 24.832L87.6747 18.352H89.5587L91.2747 22.996L93.0147 18.352H94.8027Z" fill="white"/>
<circle cx="29" cy="24" r="3" fill="#FFF7B1"/>
<path d="M17.5 6.26452C17.5 4.74247 18.7424 3.51312 20.2644 3.52919L31.75 3.65048V15.25C31.75 16.7688 30.5188 18 29 18V18C27.4812 18 26.25 16.7688 26.25 15.25V9.00003H25.25L20.2355 9.00001C18.7247 9 17.5 7.77529 17.5 6.26452V6.26452Z" fill="#FD958E"/>
<path d="M8.5 15.25C8.5 13.7312 9.73122 12.5 11.25 12.5H20.25C21.7688 12.5 23 13.7312 23 15.25V15.25C23 16.7688 21.7688 18 20.25 18H11.25C9.73122 18 8.5 16.7688 8.5 15.25V15.25Z" fill="#FBDAB0"/>
<path d="M0 24C0 22.3431 1.34315 21 3 21H20C21.6569 21 23 22.3431 23 24V24C23 25.6569 21.6569 27 20 27H3C1.34315 27 0 25.6569 0 24V24Z" fill="#9DBEFF"/>
</svg>
