<svg width="500" height="50" viewBox="0 0 569 64" fill="none" xmlns="http://www.w3.org/2000/svg">
<path d="M0.648 50V3.92H10.632V21.968H19.656L34.76 3.92H45.128V7.376L28.68 26.96L45.128 46.544V50H34.76L19.656 31.952H10.632V50H0.648ZM59.983 50C57.423 50 55.2257 49.0827 53.391 47.248C51.599 45.4133 50.703 43.2373 50.703 40.72V26.512H78.543V24.784C78.543 23.376 78.543 22.672 78.543 22.672C78.543 22.672 77.839 22.672 76.431 22.672H50.703V12.88H79.055C81.615 12.88 83.791 13.7973 85.583 15.632C87.4177 17.4667 88.335 19.6427 88.335 22.16V50H59.983ZM62.607 40.208H78.543V35.088H60.495V38.096C60.495 39.504 60.495 40.208 60.495 40.208C60.495 40.208 61.199 40.208 62.607 40.208ZM102.671 50C100.153 50 97.9772 49.0827 96.1425 47.248C94.3078 45.4133 93.3905 43.2373 93.3905 40.72V0.655998H103.247V38.096C103.247 39.504 103.247 40.208 103.247 40.208C103.247 40.208 103.951 40.208 105.359 40.208H110.735V50H102.671ZM124.921 50C122.361 50 120.163 49.0827 118.329 47.248C116.537 45.4133 115.641 43.2373 115.641 40.72V26.512H143.481V24.784C143.481 23.376 143.481 22.672 143.481 22.672C143.481 22.672 142.777 22.672 141.369 22.672H115.641V12.88H143.993C146.553 12.88 148.729 13.7973 150.521 15.632C152.355 17.4667 153.273 19.6427 153.273 22.16V50H124.921ZM127.545 40.208H143.481V35.088H125.433V38.096C125.433 39.504 125.433 40.208 125.433 40.208C125.433 40.208 126.137 40.208 127.545 40.208ZM158.331 50V12.88H203.003C205.563 12.88 207.739 13.7973 209.531 15.632C211.366 17.4667 212.283 19.6427 212.283 22.16V50H202.555V24.784C202.555 23.376 202.555 22.672 202.555 22.672C202.555 22.672 201.851 22.672 200.443 22.672H192.379C190.971 22.672 190.267 22.672 190.267 22.672C190.267 22.672 190.267 23.376 190.267 24.784V50H180.411V24.784C180.411 23.376 180.411 22.672 180.411 22.672C180.411 22.672 179.707 22.672 178.299 22.672H170.235C168.827 22.672 168.123 22.672 168.123 22.672C168.123 22.672 168.123 23.376 168.123 24.784V50H158.331Z" fill="#D72323"/>
<path d="M241.775 50V13.392C241.775 10.7893 242.692 8.57066 244.527 6.736C246.404 4.85866 248.644 3.92 251.247 3.92H278.319C280.921 3.92 283.161 4.85866 285.039 6.736C286.916 8.57066 287.855 10.7893 287.855 13.392V50H277.807V35.152H251.695V50H241.775ZM251.695 25.168H277.807V16.016C277.807 14.608 277.807 13.904 277.807 13.904C277.807 13.904 277.103 13.904 275.694 13.904H253.807C252.399 13.904 251.695 13.904 251.695 13.904C251.695 13.904 251.695 14.608 251.695 16.016V25.168ZM304.107 50C301.589 50 299.413 49.0827 297.579 47.248C295.744 45.4133 294.827 43.2373 294.827 40.72V22.16C294.827 19.6427 295.744 17.4667 297.579 15.632C299.413 13.7973 301.589 12.88 304.107 12.88H332.395V22.672H306.731C305.323 22.672 304.619 22.672 304.619 22.672C304.619 22.672 304.619 23.376 304.619 24.784V38.096C304.619 39.504 304.619 40.208 304.619 40.208C304.619 40.208 305.323 40.208 306.731 40.208H332.459V50H304.107ZM348.046 50C345.486 50 343.288 49.0827 341.454 47.248C339.662 45.4133 338.766 43.2373 338.766 40.72V26.512H366.606V24.784C366.606 23.376 366.606 22.672 366.606 22.672C366.606 22.672 365.902 22.672 364.494 22.672H338.766V12.88H367.118C369.678 12.88 371.854 13.7973 373.646 15.632C375.48 17.4667 376.398 19.6427 376.398 22.16V50H348.046ZM350.67 40.208H366.606V35.088H348.558V38.096C348.558 39.504 348.558 40.208 348.558 40.208C348.558 40.208 349.262 40.208 350.67 40.208ZM390.627 50C388.067 50 385.87 49.0827 384.035 47.248C382.243 45.4133 381.347 43.2373 381.347 40.72V22.16C381.347 19.6427 382.243 17.4667 384.035 15.632C385.87 13.7973 388.067 12.88 390.627 12.88H409.251V0.719997H419.043V50H390.627ZM393.315 40.208H407.139C408.547 40.208 409.251 40.208 409.251 40.208C409.251 40.208 409.251 39.504 409.251 38.096V24.784C409.251 23.376 409.251 22.672 409.251 22.672C409.251 22.672 408.547 22.672 407.139 22.672H393.315C391.907 22.672 391.203 22.672 391.203 22.672C391.203 22.672 391.203 23.376 391.203 24.784V38.096C391.203 39.504 391.203 40.208 391.203 40.208C391.203 40.208 391.907 40.208 393.315 40.208ZM433.607 50C431.089 50 428.913 49.0827 427.079 47.248C425.244 45.4133 424.327 43.2373 424.327 40.72V22.16C424.327 19.6427 425.244 17.4667 427.079 15.632C428.913 13.7973 431.089 12.88 433.607 12.88H452.679C455.239 12.88 457.415 13.7973 459.207 15.632C461.041 17.4667 461.959 19.6427 461.959 22.16V36.368H434.119V38.096C434.119 39.504 434.119 40.208 434.119 40.208C434.119 40.208 434.823 40.208 436.231 40.208H461.959V50H433.607ZM434.119 27.792H452.167V24.784C452.167 23.376 452.167 22.672 452.167 22.672C452.167 22.672 451.463 22.672 450.055 22.672H436.231C434.823 22.672 434.119 22.672 434.119 22.672C434.119 22.672 434.119 23.376 434.119 24.784V27.792ZM468.831 50V12.88H513.503C516.063 12.88 518.239 13.7973 520.031 15.632C521.866 17.4667 522.783 19.6427 522.783 22.16V50H513.055V24.784C513.055 23.376 513.055 22.672 513.055 22.672C513.055 22.672 512.351 22.672 510.943 22.672H502.879C501.471 22.672 500.767 22.672 500.767 22.672C500.767 22.672 500.767 23.376 500.767 24.784V50H490.911V24.784C490.911 23.376 490.911 22.672 490.911 22.672C490.911 22.672 490.207 22.672 488.799 22.672H480.735C479.327 22.672 478.623 22.672 478.623 22.672C478.623 22.672 478.623 23.376 478.623 24.784V50H468.831ZM536.514 63.312V53.456H556.418C557.826 53.456 558.53 53.456 558.53 53.456C558.53 53.456 558.53 52.752 558.53 51.344V50H539.97C537.41 50 535.212 49.0827 533.378 47.248C531.543 45.4133 530.626 43.2373 530.626 40.72V13.008H540.418V38.096C540.418 39.504 540.418 40.208 540.418 40.208C540.418 40.208 541.122 40.208 542.53 40.208H556.418C557.826 40.208 558.53 40.208 558.53 40.208C558.53 40.208 558.53 39.504 558.53 38.096V13.008H568.322V54.032C568.322 56.592 567.404 58.768 565.569 60.56C563.778 62.3947 561.602 63.312 559.042 63.312H536.514Z" fill="#071E3D"/>
</svg>
