<svg width="446" height="113" viewBox="0 0 446 113" fill="none" xmlns="http://www.w3.org/2000/svg">
<path d="M66.432 68.728C66.9867 68.728 67.4133 68.984 67.712 69.496C68.0533 70.008 68.224 70.712 68.224 71.608C68.224 73.272 67.8187 74.5947 67.008 75.576C64.96 78.0507 62.8907 79.9707 60.8 81.336C58.7093 82.6587 56.2347 83.32 53.376 83.32C50.2187 83.32 47.6373 82.4027 45.632 80.568C43.6267 78.6907 41.7493 75.7893 40 71.864C38.72 69.048 37.6533 66.9573 36.8 65.592C35.9893 64.184 35.1787 63.2027 34.368 62.648C33.5573 62.0507 32.5333 61.688 31.296 61.56L30.592 66.296C29.696 72.3973 27.9467 76.792 25.344 79.48C22.784 82.168 19.2427 83.512 14.72 83.512C11.776 83.512 9.152 82.808 6.848 81.4C4.58667 79.9493 3.008 78.1147 2.112 75.896C1.81333 75.128 1.664 74.296 1.664 73.4C1.664 72.12 1.96267 71.0107 2.56 70.072C3.15733 69.1333 3.92533 68.664 4.864 68.664C5.41867 68.664 5.888 68.8133 6.272 69.112C6.656 69.368 7.01867 69.8373 7.36 70.52C8.68267 72.9947 9.83467 74.7227 10.816 75.704C11.84 76.6853 13.0987 77.176 14.592 77.176C16.2987 77.176 17.7493 76.408 18.944 74.872C20.1813 73.2933 21.056 70.8827 21.568 67.64L22.464 61.56H21.44C20.4587 61.56 19.6907 61.2827 19.136 60.728C18.5813 60.1733 18.304 59.4053 18.304 58.424C18.304 57.3147 18.5813 56.44 19.136 55.8C19.7333 55.1173 20.4587 54.776 21.312 54.776H23.424C23.7227 52.6853 23.936 51.2347 24.064 50.424L26.048 36.024C24.9387 35.896 23.8933 35.832 22.912 35.832C19.2853 35.832 16.5333 36.472 14.656 37.752C12.7787 38.9893 11.84 40.7813 11.84 43.128C11.84 44.1947 11.9467 45.0693 12.16 45.752C12.416 46.392 12.736 47.1173 13.12 47.928C13.2907 48.2693 13.376 48.6533 13.376 49.08C13.376 50.0187 12.928 50.8507 12.032 51.576C11.1787 52.2587 10.2187 52.6 9.152 52.6C7.78667 52.6 6.784 52.0027 6.144 50.808C4.864 48.5467 4.224 46.1147 4.224 43.512C4.224 40.824 4.94933 38.3707 6.4 36.152C7.89333 33.9333 10.1333 32.1627 13.12 30.84C16.1067 29.4747 19.7973 28.792 24.192 28.792C26.112 28.792 27.8613 28.8987 29.44 29.112C31.0613 29.3253 32.832 29.7307 34.752 30.328C36.8427 30.968 37.888 32.1627 37.888 33.912C37.888 36.2587 36.8853 37.432 34.88 37.432L32.384 54.648C37.376 54.136 41.4293 52.0027 44.544 48.248C47.7013 44.4507 50.3253 39.3093 52.416 32.824C52.8 31.6293 53.44 30.712 54.336 30.072C55.2747 29.432 56.448 29.112 57.856 29.112C59.0507 29.112 59.968 29.3893 60.608 29.944C61.2907 30.456 61.632 31.2027 61.632 32.184C61.632 32.4827 61.5467 32.9733 61.376 33.656C59.2427 40.696 56.192 46.2853 52.224 50.424C48.256 54.5627 43.9253 57.3147 39.232 58.68C40.8533 59.064 42.176 59.64 43.2 60.408C44.2667 61.176 45.1627 62.136 45.888 63.288C46.6133 64.3973 47.4453 65.9547 48.384 67.96C49.7067 70.776 50.944 72.7813 52.096 73.976C53.248 75.128 54.592 75.704 56.128 75.704C57.4933 75.704 58.7947 75.256 60.032 74.36C61.2693 73.4213 62.8267 71.8427 64.704 69.624C65.216 69.0267 65.792 68.728 66.432 68.728ZM69.6315 83.32C66.9862 83.32 64.8742 82.36 63.2955 80.44C61.7168 78.52 60.9275 76.0027 60.9275 72.888C60.9275 69.4747 61.7168 66.2533 63.2955 63.224C64.8742 60.152 66.9648 57.6987 69.5675 55.864C72.2128 53.9867 75.0075 53.048 77.9515 53.048C78.8902 53.048 79.5088 53.24 79.8075 53.624C80.1488 53.9653 80.4262 54.6053 80.6395 55.544C81.5355 55.3733 82.4742 55.288 83.4555 55.288C85.5462 55.288 86.5915 56.0347 86.5915 57.528C86.5915 58.424 86.2715 60.5573 85.6315 63.928C84.6502 68.8347 84.1595 72.248 84.1595 74.168C84.1595 74.808 84.3088 75.32 84.6075 75.704C84.9488 76.088 85.3755 76.28 85.8875 76.28C86.6982 76.28 87.6795 75.768 88.8315 74.744C89.9835 73.6773 91.5408 71.9707 93.5035 69.624C94.0155 69.0267 94.5915 68.728 95.2315 68.728C95.7862 68.728 96.2128 68.984 96.5115 69.496C96.8528 70.008 97.0235 70.712 97.0235 71.608C97.0235 73.3147 96.6182 74.6373 95.8075 75.576C94.0582 77.752 92.2022 79.5867 90.2395 81.08C88.2768 82.5733 86.3782 83.32 84.5435 83.32C83.1355 83.32 81.8342 82.8507 80.6395 81.912C79.4875 80.9307 78.6128 79.608 78.0155 77.944C75.7968 81.528 73.0022 83.32 69.6315 83.32ZM71.9355 76.856C72.8742 76.856 73.7702 76.3013 74.6235 75.192C75.4768 74.0827 76.0955 72.6107 76.4795 70.776L78.8475 59C77.0555 59.0427 75.3915 59.7253 73.8555 61.048C72.3622 62.328 71.1675 64.0347 70.2715 66.168C69.3755 68.3013 68.9275 70.5627 68.9275 72.952C68.9275 74.2747 69.1835 75.256 69.6955 75.896C70.2502 76.536 70.9968 76.856 71.9355 76.856ZM116.078 68.728C116.633 68.728 117.059 68.984 117.358 69.496C117.699 70.008 117.87 70.712 117.87 71.608C117.87 73.3147 117.465 74.6373 116.654 75.576C114.819 77.8373 112.814 79.6933 110.638 81.144C108.505 82.5947 106.073 83.32 103.342 83.32C99.5873 83.32 96.7927 81.6133 94.958 78.2C93.166 74.7867 92.27 70.3707 92.27 64.952C92.27 59.7467 92.9313 53.816 94.254 47.16C95.6193 40.504 97.6033 34.7867 100.206 30.008C102.851 25.2293 105.987 22.84 109.614 22.84C111.662 22.84 113.262 23.8 114.414 25.72C115.609 27.5973 116.206 30.3067 116.206 33.848C116.206 38.9253 114.798 44.8133 111.982 51.512C109.166 58.2107 105.347 64.8453 100.526 71.416C100.825 73.1653 101.315 74.424 101.998 75.192C102.681 75.9173 103.577 76.28 104.686 76.28C106.435 76.28 107.971 75.7893 109.294 74.808C110.617 73.784 112.302 72.056 114.35 69.624C114.862 69.0267 115.438 68.728 116.078 68.728ZM108.206 29.176C107.225 29.176 106.115 30.9467 104.878 34.488C103.641 38.0293 102.553 42.424 101.614 47.672C100.675 52.92 100.163 57.9547 100.078 62.776C103.107 57.784 105.518 52.792 107.31 47.8C109.102 42.7653 109.998 38.1787 109.998 34.04C109.998 30.7973 109.401 29.176 108.206 29.176ZM119.944 83.32C117.299 83.32 115.187 82.36 113.608 80.44C112.029 78.52 111.24 76.0027 111.24 72.888C111.24 69.4747 112.029 66.2533 113.608 63.224C115.187 60.152 117.277 57.6987 119.88 55.864C122.525 53.9867 125.32 53.048 128.264 53.048C129.203 53.048 129.821 53.24 130.12 53.624C130.461 53.9653 130.739 54.6053 130.952 55.544C131.848 55.3733 132.787 55.288 133.768 55.288C135.859 55.288 136.904 56.0347 136.904 57.528C136.904 58.424 136.584 60.5573 135.944 63.928C134.963 68.8347 134.472 72.248 134.472 74.168C134.472 74.808 134.621 75.32 134.92 75.704C135.261 76.088 135.688 76.28 136.2 76.28C137.011 76.28 137.992 75.768 139.144 74.744C140.296 73.6773 141.853 71.9707 143.816 69.624C144.328 69.0267 144.904 68.728 145.544 68.728C146.099 68.728 146.525 68.984 146.824 69.496C147.165 70.008 147.336 70.712 147.336 71.608C147.336 73.3147 146.931 74.6373 146.12 75.576C144.371 77.752 142.515 79.5867 140.552 81.08C138.589 82.5733 136.691 83.32 134.856 83.32C133.448 83.32 132.147 82.8507 130.952 81.912C129.8 80.9307 128.925 79.608 128.328 77.944C126.109 81.528 123.315 83.32 119.944 83.32ZM122.248 76.856C123.187 76.856 124.083 76.3013 124.936 75.192C125.789 74.0827 126.408 72.6107 126.792 70.776L129.16 59C127.368 59.0427 125.704 59.7253 124.168 61.048C122.675 62.328 121.48 64.0347 120.584 66.168C119.688 68.3013 119.24 70.5627 119.24 72.952C119.24 74.2747 119.496 75.256 120.008 75.896C120.563 76.536 121.309 76.856 122.248 76.856ZM146.679 83.32C145.057 83.32 143.905 82.4667 143.223 80.76C142.583 79.0533 142.263 76.3227 142.263 72.568C142.263 67.0213 143.052 61.752 144.631 56.76C145.015 55.5227 145.633 54.6267 146.487 54.072C147.383 53.4747 148.62 53.176 150.199 53.176C151.052 53.176 151.649 53.2827 151.991 53.496C152.332 53.7093 152.503 54.1147 152.503 54.712C152.503 55.3947 152.183 56.9307 151.543 59.32C151.116 61.0267 150.775 62.52 150.519 63.8C150.263 65.0373 150.049 66.5947 149.879 68.472C151.031 65.144 152.396 62.328 153.975 60.024C155.596 57.72 157.239 56.0133 158.903 54.904C160.609 53.752 162.209 53.176 163.703 53.176C165.196 53.176 166.241 53.5173 166.839 54.2C167.479 54.8827 167.799 55.928 167.799 57.336C167.799 58.7013 167.393 61.176 166.583 64.76C166.241 66.296 166.007 67.448 165.879 68.216C167.287 64.632 168.844 61.7093 170.551 59.448C172.3 57.1867 174.007 55.5867 175.671 54.648C177.335 53.6667 178.871 53.176 180.279 53.176C181.644 53.176 182.668 53.5387 183.351 54.264C184.076 54.9467 184.439 55.9707 184.439 57.336C184.439 58.4453 184.204 60.536 183.735 63.608C183.308 66.2107 182.967 68.6853 182.711 71.032C182.455 73.336 182.327 75.9173 182.327 78.776C182.327 80.3973 181.985 81.5707 181.303 82.296C180.663 82.9787 179.596 83.32 178.103 83.32C176.695 83.32 175.671 82.9573 175.031 82.232C174.391 81.5067 174.071 80.4187 174.071 78.968C174.071 77.2613 174.369 74.4453 174.967 70.52C175.479 67.1067 175.735 64.9307 175.735 63.992C175.735 63.3093 175.5 62.968 175.031 62.968C174.476 62.968 173.687 63.6933 172.663 65.144C171.639 66.552 170.615 68.4293 169.591 70.776C168.567 73.1227 167.735 75.5973 167.095 78.2C166.625 80.248 166.071 81.6133 165.431 82.296C164.833 82.9787 163.852 83.32 162.487 83.32C161.079 83.32 160.012 82.6587 159.287 81.336C158.604 79.9707 158.263 78.328 158.263 76.408C158.263 74.7867 158.476 72.44 158.903 69.368C159.244 66.6373 159.415 64.8453 159.415 63.992C159.415 63.3093 159.18 62.968 158.711 62.968C158.071 62.968 157.26 63.736 156.279 65.272C155.297 66.808 154.337 68.7707 153.399 71.16C152.503 73.5493 151.777 75.896 151.223 78.2C150.753 80.2053 150.199 81.5707 149.559 82.296C148.961 82.9787 148.001 83.32 146.679 83.32ZM222.075 83.32C219.131 83.32 216.464 82.5947 214.075 81.144C211.728 79.6933 209.872 77.6027 208.507 74.872C207.142 72.0987 206.459 68.8347 206.459 65.08C206.459 58.5947 207.846 52.6 210.619 47.096C213.392 41.5493 217.488 37.112 222.907 33.784C228.326 30.4133 234.832 28.728 242.427 28.728C244.39 28.728 246.48 28.8773 248.699 29.176C250.96 29.4747 253.008 29.9227 254.843 30.52C256.038 30.8613 256.635 31.7147 256.635 33.08C256.635 34.1893 256.208 35.2347 255.355 36.216C254.544 37.1973 253.584 37.688 252.475 37.688C252.134 37.688 251.878 37.6667 251.707 37.624C249.488 37.112 247.59 36.7493 246.011 36.536C244.432 36.28 242.768 36.152 241.019 36.152C235.6 36.152 230.992 37.4747 227.195 40.12C223.398 42.7227 220.56 46.1787 218.683 50.488C216.806 54.7973 215.867 59.448 215.867 64.44C215.867 68.0667 216.571 70.8827 217.979 72.888C219.43 74.8507 221.307 75.832 223.611 75.832C226.214 75.832 228.496 74.7653 230.459 72.632C232.422 70.4987 234.214 67.0427 235.835 62.264C237.456 57.4853 239.056 51 240.635 42.808C240.891 41.6133 241.403 40.8027 242.171 40.376C242.939 39.9493 243.963 39.736 245.243 39.736C248.272 39.736 249.787 40.7173 249.787 42.68C249.787 43.0213 249.723 43.448 249.595 43.96C248.486 48.0987 247.462 52.6853 246.523 57.72C245.627 62.712 245.179 66.5093 245.179 69.112C245.179 71.416 245.52 73.1013 246.203 74.168C246.886 75.192 247.931 75.704 249.339 75.704C250.704 75.704 252.006 75.256 253.243 74.36C254.48 73.4213 256.038 71.8427 257.915 69.624C258.427 69.0267 259.003 68.728 259.643 68.728C260.198 68.728 260.624 68.984 260.923 69.496C261.264 70.008 261.435 70.712 261.435 71.608C261.435 73.272 261.03 74.5947 260.219 75.576C258.128 78.0933 256.08 80.0133 254.075 81.336C252.07 82.6587 249.616 83.32 246.715 83.32C243.728 83.32 241.318 82.4667 239.483 80.76C237.648 79.0107 236.496 76.5573 236.027 73.4C232.87 80.0133 228.219 83.32 222.075 83.32ZM268.484 83.32C264.302 83.32 261.038 82.1467 258.692 79.8C256.388 77.4107 255.236 74.2747 255.236 70.392C255.236 66.936 255.918 63.9067 257.284 61.304C258.649 58.7013 260.42 56.696 262.595 55.288C264.772 53.88 267.054 53.176 269.444 53.176C271.79 53.176 273.604 53.88 274.884 55.288C276.206 56.6533 276.868 58.424 276.868 60.6C276.868 62.392 276.462 63.9067 275.652 65.144C274.884 66.3813 273.86 67 272.58 67C271.769 67 271.108 66.808 270.596 66.424C270.126 66.04 269.892 65.5067 269.892 64.824C269.892 64.5253 269.934 64.184 270.02 63.8C270.105 63.416 270.169 63.1387 270.212 62.968C270.425 62.328 270.532 61.7307 270.532 61.176C270.532 60.6213 270.382 60.1947 270.083 59.896C269.828 59.5973 269.444 59.448 268.932 59.448C267.95 59.448 267.033 59.896 266.18 60.792C265.326 61.6453 264.644 62.8187 264.132 64.312C263.62 65.8053 263.364 67.448 263.364 69.24C263.364 74.1893 265.518 76.664 269.828 76.664C271.577 76.664 273.454 76.088 275.46 74.936C277.508 73.7413 279.513 71.9707 281.476 69.624C281.988 69.0267 282.564 68.728 283.204 68.728C283.758 68.728 284.185 68.984 284.484 69.496C284.825 70.008 284.996 70.712 284.996 71.608C284.996 73.2293 284.59 74.552 283.78 75.576C281.774 78.0507 279.364 79.9707 276.548 81.336C273.774 82.6587 271.086 83.32 268.484 83.32ZM287.069 83.32C284.424 83.32 282.312 82.36 280.733 80.44C279.154 78.52 278.365 76.0027 278.365 72.888C278.365 69.4747 279.154 66.2533 280.733 63.224C282.312 60.152 284.402 57.6987 287.005 55.864C289.65 53.9867 292.445 53.048 295.389 53.048C296.328 53.048 296.946 53.24 297.245 53.624C297.586 53.9653 297.864 54.6053 298.077 55.544C298.973 55.3733 299.912 55.288 300.893 55.288C302.984 55.288 304.029 56.0347 304.029 57.528C304.029 58.424 303.709 60.5573 303.069 63.928C302.088 68.8347 301.597 72.248 301.597 74.168C301.597 74.808 301.746 75.32 302.045 75.704C302.386 76.088 302.813 76.28 303.325 76.28C304.136 76.28 305.117 75.768 306.269 74.744C307.421 73.6773 308.978 71.9707 310.941 69.624C311.453 69.0267 312.029 68.728 312.669 68.728C313.224 68.728 313.65 68.984 313.949 69.496C314.29 70.008 314.461 70.712 314.461 71.608C314.461 73.3147 314.056 74.6373 313.245 75.576C311.496 77.752 309.64 79.5867 307.677 81.08C305.714 82.5733 303.816 83.32 301.981 83.32C300.573 83.32 299.272 82.8507 298.077 81.912C296.925 80.9307 296.05 79.608 295.453 77.944C293.234 81.528 290.44 83.32 287.069 83.32ZM289.373 76.856C290.312 76.856 291.208 76.3013 292.061 75.192C292.914 74.0827 293.533 72.6107 293.917 70.776L296.285 59C294.493 59.0427 292.829 59.7253 291.293 61.048C289.8 62.328 288.605 64.0347 287.709 66.168C286.813 68.3013 286.365 70.5627 286.365 72.952C286.365 74.2747 286.621 75.256 287.133 75.896C287.688 76.536 288.434 76.856 289.373 76.856ZM345.612 68.728C346.166 68.728 346.593 68.984 346.892 69.496C347.233 70.008 347.404 70.712 347.404 71.608C347.404 73.3147 346.998 74.6373 346.188 75.576C344.438 77.7093 342.518 79.544 340.428 81.08C338.337 82.5733 336.268 83.32 334.22 83.32C330.977 83.32 328.502 81.4213 326.796 77.624C325.004 79.8853 323.425 81.4 322.06 82.168C320.737 82.936 319.18 83.32 317.388 83.32C314.785 83.32 312.63 82.36 310.924 80.44C309.26 78.4773 308.428 75.9387 308.428 72.824C308.428 69.4107 309.153 66.2533 310.604 63.352C312.054 60.408 314.038 58.0187 316.556 56.184C319.116 54.3067 321.974 53.1973 325.132 52.856C325.942 44.5787 327.478 37.5173 329.74 31.672C332.044 25.784 335.052 22.84 338.764 22.84C340.598 22.84 342.113 23.672 343.308 25.336C344.545 27 345.164 29.5173 345.164 32.888C345.164 37.6667 343.99 43.256 341.644 49.656C339.297 56.056 336.161 62.6267 332.236 69.368C332.406 71.8427 332.769 73.6133 333.324 74.68C333.921 75.7467 334.668 76.28 335.564 76.28C336.716 76.28 337.889 75.768 339.083 74.744C340.278 73.72 341.878 72.0133 343.884 69.624C344.396 69.0267 344.972 68.728 345.612 68.728ZM338.06 29.112C337.249 29.112 336.438 30.5627 335.628 33.464C334.817 36.3227 334.113 40.0773 333.516 44.728C332.961 49.3787 332.556 54.2427 332.3 59.32C337.078 48.9093 339.468 40.5467 339.468 34.232C339.468 32.6107 339.318 31.352 339.02 30.456C338.764 29.56 338.444 29.112 338.06 29.112ZM319.628 76.856C320.438 76.856 321.249 76.536 322.06 75.896C322.87 75.2133 323.894 73.976 325.132 72.184C324.705 69.88 324.492 67.2987 324.492 64.44C324.492 63.416 324.534 61.752 324.62 59.448C322.273 60.1733 320.31 61.752 318.732 64.184C317.196 66.5733 316.428 69.24 316.428 72.184C316.428 75.2987 317.494 76.856 319.628 76.856ZM370.741 68.728C371.296 68.728 371.722 68.984 372.021 69.496C372.362 70.008 372.533 70.712 372.533 71.608C372.533 73.3147 372.128 74.6373 371.317 75.576C369.738 77.496 367.498 79.2667 364.597 80.888C361.738 82.5093 358.666 83.32 355.381 83.32C350.901 83.32 347.424 82.104 344.949 79.672C342.474 77.24 341.237 73.912 341.237 69.688C341.237 66.744 341.856 64.0133 343.093 61.496C344.33 58.936 346.037 56.9093 348.213 55.416C350.432 53.9227 352.928 53.176 355.701 53.176C358.176 53.176 360.16 53.9227 361.653 55.416C363.146 56.8667 363.893 58.8507 363.893 61.368C363.893 64.312 362.826 66.8507 360.693 68.984C358.602 71.0747 355.04 72.7387 350.005 73.976C351.072 75.9387 353.098 76.92 356.085 76.92C358.005 76.92 360.181 76.2587 362.613 74.936C365.088 73.5707 367.221 71.8 369.013 69.624C369.525 69.0267 370.101 68.728 370.741 68.728ZM354.613 59.448C353.034 59.448 351.69 60.3653 350.581 62.2C349.514 64.0347 348.981 66.2533 348.981 68.856V68.984C351.498 68.3867 353.482 67.4907 354.933 66.296C356.384 65.1013 357.109 63.7147 357.109 62.136C357.109 61.3253 356.874 60.6853 356.405 60.216C355.978 59.704 355.381 59.448 354.613 59.448ZM371.866 83.32C370.245 83.32 369.093 82.4667 368.41 80.76C367.77 79.0533 367.45 76.3227 367.45 72.568C367.45 67.0213 368.239 61.752 369.818 56.76C370.202 55.5227 370.821 54.6267 371.674 54.072C372.57 53.4747 373.807 53.176 375.386 53.176C376.239 53.176 376.837 53.2827 377.178 53.496C377.519 53.7093 377.69 54.1147 377.69 54.712C377.69 55.3947 377.37 56.9307 376.73 59.32C376.303 61.0267 375.962 62.52 375.706 63.8C375.45 65.0373 375.237 66.5947 375.066 68.472C376.218 65.144 377.583 62.328 379.162 60.024C380.783 57.72 382.426 56.0133 384.09 54.904C385.797 53.752 387.397 53.176 388.89 53.176C390.383 53.176 391.429 53.5173 392.026 54.2C392.666 54.8827 392.986 55.928 392.986 57.336C392.986 58.7013 392.581 61.176 391.77 64.76C391.429 66.296 391.194 67.448 391.066 68.216C393.199 62.968 395.567 59.1493 398.17 56.76C400.773 54.3707 403.205 53.176 405.466 53.176C408.239 53.176 409.626 54.5627 409.626 57.336C409.626 59 409.157 62.008 408.218 66.36C407.407 70.072 407.002 72.5253 407.002 73.72C407.002 75.4267 407.621 76.28 408.858 76.28C409.711 76.28 410.714 75.768 411.866 74.744C413.061 73.6773 414.639 71.9707 416.602 69.624C417.114 69.0267 417.69 68.728 418.33 68.728C418.885 68.728 419.311 68.984 419.61 69.496C419.951 70.008 420.122 70.712 420.122 71.608C420.122 73.3147 419.717 74.6373 418.906 75.576C417.071 77.8373 415.087 79.6933 412.954 81.144C410.863 82.5947 408.474 83.32 405.786 83.32C403.61 83.32 401.967 82.7013 400.858 81.464C399.749 80.184 399.194 78.3493 399.194 75.96C399.194 74.7653 399.493 72.632 400.09 69.56C400.645 66.872 400.922 65.016 400.922 63.992C400.922 63.3093 400.687 62.968 400.218 62.968C399.663 62.968 398.874 63.6933 397.85 65.144C396.826 66.552 395.802 68.4293 394.778 70.776C393.754 73.1227 392.922 75.5973 392.282 78.2C391.813 80.248 391.258 81.6133 390.618 82.296C390.021 82.9787 389.039 83.32 387.674 83.32C386.266 83.32 385.199 82.6587 384.474 81.336C383.791 79.9707 383.45 78.328 383.45 76.408C383.45 74.7867 383.663 72.44 384.09 69.368C384.431 66.6373 384.602 64.8453 384.602 63.992C384.602 63.3093 384.367 62.968 383.898 62.968C383.258 62.968 382.447 63.736 381.466 65.272C380.485 66.808 379.525 68.7707 378.586 71.16C377.69 73.5493 376.965 75.896 376.41 78.2C375.941 80.2053 375.386 81.5707 374.746 82.296C374.149 82.9787 373.189 83.32 371.866 83.32ZM437.347 53.176C438.328 53.176 439.011 53.304 439.395 53.56C439.779 53.816 439.971 54.2427 439.971 54.84C439.971 55.864 439.416 59.512 438.307 65.784C437.326 71.8 436.75 75.3627 436.579 76.472C435 87.4373 432.824 96.12 430.051 102.52C427.278 108.92 423.587 112.12 418.979 112.12C416.803 112.12 415.032 111.437 413.667 110.072C412.302 108.749 411.619 107 411.619 104.824C411.619 102.819 412.067 100.771 412.963 98.68C413.902 96.5893 415.608 94.1787 418.083 91.448C420.6 88.76 424.142 85.6667 428.707 82.168L428.899 80.696C429.198 79.1173 429.539 76.856 429.923 73.912C429.07 76.984 427.875 79.3307 426.339 80.952C424.803 82.5307 423.182 83.32 421.475 83.32C419.555 83.32 417.976 82.4453 416.739 80.696C415.544 78.904 414.947 76.6853 414.947 74.04C414.947 70.84 415.16 67.9173 415.587 65.272C416.014 62.584 416.718 59.7467 417.699 56.76C418.126 55.48 418.723 54.5627 419.491 54.008C420.259 53.4533 421.475 53.176 423.139 53.176C424.078 53.176 424.718 53.3253 425.059 53.624C425.443 53.9227 425.635 54.3707 425.635 54.968C425.635 55.3093 425.4 56.4613 424.931 58.424C424.504 60.0027 424.163 61.432 423.907 62.712C423.566 64.4613 423.267 66.1467 423.011 67.768C422.755 69.3467 422.627 70.648 422.627 71.672C422.627 73.2933 423.075 74.104 423.971 74.104C424.611 74.104 425.4 73.464 426.339 72.184C427.32 70.904 428.344 68.9627 429.411 66.36C430.52 63.7573 431.587 60.5573 432.611 56.76C432.952 55.48 433.464 54.5627 434.147 54.008C434.872 53.4533 435.939 53.176 437.347 53.176ZM419.683 105.912C420.75 105.912 421.944 104.675 423.267 102.2C424.59 99.7253 425.912 95.608 427.235 89.848C423.95 92.6213 421.56 95.1387 420.067 97.4C418.616 99.704 417.891 101.709 417.891 103.416C417.891 104.141 418.019 104.739 418.275 105.208C418.574 105.677 419.043 105.912 419.683 105.912Z" fill="#3D6CB9"/>
<line y1="98" x2="401" y2="98" stroke="#00D1FF" stroke-width="8"/>
</svg>
