<svg width="438" height="91" viewBox="0 0 438 91" fill="none" xmlns="http://www.w3.org/2000/svg">
<path d="M65.432 46.728C65.9867 46.728 66.4133 46.984 66.712 47.496C67.0533 48.008 67.224 48.712 67.224 49.608C67.224 51.272 66.8187 52.5947 66.008 53.576C63.96 56.0507 61.8907 57.9707 59.8 59.336C57.7093 60.6587 55.2347 61.32 52.376 61.32C49.2187 61.32 46.6373 60.4027 44.632 58.568C42.6267 56.6907 40.7493 53.7893 39 49.864C37.72 47.048 36.6533 44.9573 35.8 43.592C34.9893 42.184 34.1787 41.2027 33.368 40.648C32.5573 40.0507 31.5333 39.688 30.296 39.56L29.592 44.296C28.696 50.3973 26.9467 54.792 24.344 57.48C21.784 60.168 18.2427 61.512 13.72 61.512C10.776 61.512 8.152 60.808 5.848 59.4C3.58667 57.9493 2.008 56.1147 1.112 53.896C0.813333 53.128 0.664 52.296 0.664 51.4C0.664 50.12 0.962667 49.0107 1.56 48.072C2.15733 47.1333 2.92533 46.664 3.864 46.664C4.41867 46.664 4.888 46.8133 5.272 47.112C5.656 47.368 6.01867 47.8373 6.36 48.52C7.68267 50.9947 8.83467 52.7227 9.816 53.704C10.84 54.6853 12.0987 55.176 13.592 55.176C15.2987 55.176 16.7493 54.408 17.944 52.872C19.1813 51.2933 20.056 48.8827 20.568 45.64L21.464 39.56H20.44C19.4587 39.56 18.6907 39.2827 18.136 38.728C17.5813 38.1733 17.304 37.4053 17.304 36.424C17.304 35.3147 17.5813 34.44 18.136 33.8C18.7333 33.1173 19.4587 32.776 20.312 32.776H22.424C22.7227 30.6853 22.936 29.2347 23.064 28.424L25.048 14.024C23.9387 13.896 22.8933 13.832 21.912 13.832C18.2853 13.832 15.5333 14.472 13.656 15.752C11.7787 16.9893 10.84 18.7813 10.84 21.128C10.84 22.1947 10.9467 23.0693 11.16 23.752C11.416 24.392 11.736 25.1173 12.12 25.928C12.2907 26.2693 12.376 26.6533 12.376 27.08C12.376 28.0187 11.928 28.8507 11.032 29.576C10.1787 30.2587 9.21867 30.6 8.152 30.6C6.78667 30.6 5.784 30.0027 5.144 28.808C3.864 26.5467 3.224 24.1147 3.224 21.512C3.224 18.824 3.94933 16.3707 5.4 14.152C6.89333 11.9333 9.13333 10.1627 12.12 8.84C15.1067 7.47466 18.7973 6.792 23.192 6.792C25.112 6.792 26.8613 6.89866 28.44 7.112C30.0613 7.32533 31.832 7.73067 33.752 8.328C35.8427 8.968 36.888 10.1627 36.888 11.912C36.888 14.2587 35.8853 15.432 33.88 15.432L31.384 32.648C36.376 32.136 40.4293 30.0027 43.544 26.248C46.7013 22.4507 49.3253 17.3093 51.416 10.824C51.8 9.62933 52.44 8.712 53.336 8.072C54.2747 7.432 55.448 7.112 56.856 7.112C58.0507 7.112 58.968 7.38933 59.608 7.944C60.2907 8.456 60.632 9.20266 60.632 10.184C60.632 10.4827 60.5467 10.9733 60.376 11.656C58.2427 18.696 55.192 24.2853 51.224 28.424C47.256 32.5627 42.9253 35.3147 38.232 36.68C39.8533 37.064 41.176 37.64 42.2 38.408C43.2667 39.176 44.1627 40.136 44.888 41.288C45.6133 42.3973 46.4453 43.9547 47.384 45.96C48.7067 48.776 49.944 50.7813 51.096 51.976C52.248 53.128 53.592 53.704 55.128 53.704C56.4933 53.704 57.7947 53.256 59.032 52.36C60.2693 51.4213 61.8267 49.8427 63.704 47.624C64.216 47.0267 64.792 46.728 65.432 46.728ZM68.6315 61.32C65.9862 61.32 63.8742 60.36 62.2955 58.44C60.7168 56.52 59.9275 54.0027 59.9275 50.888C59.9275 47.4747 60.7168 44.2533 62.2955 41.224C63.8742 38.152 65.9648 35.6987 68.5675 33.864C71.2128 31.9867 74.0075 31.048 76.9515 31.048C77.8902 31.048 78.5088 31.24 78.8075 31.624C79.1488 31.9653 79.4262 32.6053 79.6395 33.544C80.5355 33.3733 81.4742 33.288 82.4555 33.288C84.5462 33.288 85.5915 34.0347 85.5915 35.528C85.5915 36.424 85.2715 38.5573 84.6315 41.928C83.6502 46.8347 83.1595 50.248 83.1595 52.168C83.1595 52.808 83.3088 53.32 83.6075 53.704C83.9488 54.088 84.3755 54.28 84.8875 54.28C85.6982 54.28 86.6795 53.768 87.8315 52.744C88.9835 51.6773 90.5408 49.9707 92.5035 47.624C93.0155 47.0267 93.5915 46.728 94.2315 46.728C94.7862 46.728 95.2128 46.984 95.5115 47.496C95.8528 48.008 96.0235 48.712 96.0235 49.608C96.0235 51.3147 95.6182 52.6373 94.8075 53.576C93.0582 55.752 91.2022 57.5867 89.2395 59.08C87.2768 60.5733 85.3782 61.32 83.5435 61.32C82.1355 61.32 80.8342 60.8507 79.6395 59.912C78.4875 58.9307 77.6128 57.608 77.0155 55.944C74.7968 59.528 72.0022 61.32 68.6315 61.32ZM70.9355 54.856C71.8742 54.856 72.7702 54.3013 73.6235 53.192C74.4768 52.0827 75.0955 50.6107 75.4795 48.776L77.8475 37C76.0555 37.0427 74.3915 37.7253 72.8555 39.048C71.3622 40.328 70.1675 42.0347 69.2715 44.168C68.3755 46.3013 67.9275 48.5627 67.9275 50.952C67.9275 52.2747 68.1835 53.256 68.6955 53.896C69.2502 54.536 69.9968 54.856 70.9355 54.856ZM115.078 46.728C115.633 46.728 116.059 46.984 116.358 47.496C116.699 48.008 116.87 48.712 116.87 49.608C116.87 51.3147 116.465 52.6373 115.654 53.576C113.819 55.8373 111.814 57.6933 109.638 59.144C107.505 60.5947 105.073 61.32 102.342 61.32C98.5873 61.32 95.7927 59.6133 93.958 56.2C92.166 52.7867 91.27 48.3707 91.27 42.952C91.27 37.7467 91.9313 31.816 93.254 25.16C94.6193 18.504 96.6033 12.7867 99.206 8.008C101.851 3.22933 104.987 0.839996 108.614 0.839996C110.662 0.839996 112.262 1.8 113.414 3.72C114.609 5.59733 115.206 8.30667 115.206 11.848C115.206 16.9253 113.798 22.8133 110.982 29.512C108.166 36.2107 104.347 42.8453 99.526 49.416C99.8247 51.1653 100.315 52.424 100.998 53.192C101.681 53.9173 102.577 54.28 103.686 54.28C105.435 54.28 106.971 53.7893 108.294 52.808C109.617 51.784 111.302 50.056 113.35 47.624C113.862 47.0267 114.438 46.728 115.078 46.728ZM107.206 7.176C106.225 7.176 105.115 8.94667 103.878 12.488C102.641 16.0293 101.553 20.424 100.614 25.672C99.6753 30.92 99.1633 35.9547 99.078 40.776C102.107 35.784 104.518 30.792 106.31 25.8C108.102 20.7653 108.998 16.1787 108.998 12.04C108.998 8.79733 108.401 7.176 107.206 7.176ZM118.944 61.32C116.299 61.32 114.187 60.36 112.608 58.44C111.029 56.52 110.24 54.0027 110.24 50.888C110.24 47.4747 111.029 44.2533 112.608 41.224C114.187 38.152 116.277 35.6987 118.88 33.864C121.525 31.9867 124.32 31.048 127.264 31.048C128.203 31.048 128.821 31.24 129.12 31.624C129.461 31.9653 129.739 32.6053 129.952 33.544C130.848 33.3733 131.787 33.288 132.768 33.288C134.859 33.288 135.904 34.0347 135.904 35.528C135.904 36.424 135.584 38.5573 134.944 41.928C133.963 46.8347 133.472 50.248 133.472 52.168C133.472 52.808 133.621 53.32 133.92 53.704C134.261 54.088 134.688 54.28 135.2 54.28C136.011 54.28 136.992 53.768 138.144 52.744C139.296 51.6773 140.853 49.9707 142.816 47.624C143.328 47.0267 143.904 46.728 144.544 46.728C145.099 46.728 145.525 46.984 145.824 47.496C146.165 48.008 146.336 48.712 146.336 49.608C146.336 51.3147 145.931 52.6373 145.12 53.576C143.371 55.752 141.515 57.5867 139.552 59.08C137.589 60.5733 135.691 61.32 133.856 61.32C132.448 61.32 131.147 60.8507 129.952 59.912C128.8 58.9307 127.925 57.608 127.328 55.944C125.109 59.528 122.315 61.32 118.944 61.32ZM121.248 54.856C122.187 54.856 123.083 54.3013 123.936 53.192C124.789 52.0827 125.408 50.6107 125.792 48.776L128.16 37C126.368 37.0427 124.704 37.7253 123.168 39.048C121.675 40.328 120.48 42.0347 119.584 44.168C118.688 46.3013 118.24 48.5627 118.24 50.952C118.24 52.2747 118.496 53.256 119.008 53.896C119.563 54.536 120.309 54.856 121.248 54.856ZM145.679 61.32C144.057 61.32 142.905 60.4667 142.223 58.76C141.583 57.0533 141.263 54.3227 141.263 50.568C141.263 45.0213 142.052 39.752 143.631 34.76C144.015 33.5227 144.633 32.6267 145.487 32.072C146.383 31.4747 147.62 31.176 149.199 31.176C150.052 31.176 150.649 31.2827 150.991 31.496C151.332 31.7093 151.503 32.1147 151.503 32.712C151.503 33.3947 151.183 34.9307 150.543 37.32C150.116 39.0267 149.775 40.52 149.519 41.8C149.263 43.0373 149.049 44.5947 148.879 46.472C150.031 43.144 151.396 40.328 152.975 38.024C154.596 35.72 156.239 34.0133 157.903 32.904C159.609 31.752 161.209 31.176 162.703 31.176C164.196 31.176 165.241 31.5173 165.839 32.2C166.479 32.8827 166.799 33.928 166.799 35.336C166.799 36.7013 166.393 39.176 165.583 42.76C165.241 44.296 165.007 45.448 164.879 46.216C166.287 42.632 167.844 39.7093 169.551 37.448C171.3 35.1867 173.007 33.5867 174.671 32.648C176.335 31.6667 177.871 31.176 179.279 31.176C180.644 31.176 181.668 31.5387 182.351 32.264C183.076 32.9467 183.439 33.9707 183.439 35.336C183.439 36.4453 183.204 38.536 182.735 41.608C182.308 44.2107 181.967 46.6853 181.711 49.032C181.455 51.336 181.327 53.9173 181.327 56.776C181.327 58.3973 180.985 59.5707 180.303 60.296C179.663 60.9787 178.596 61.32 177.103 61.32C175.695 61.32 174.671 60.9573 174.031 60.232C173.391 59.5067 173.071 58.4187 173.071 56.968C173.071 55.2613 173.369 52.4453 173.967 48.52C174.479 45.1067 174.735 42.9307 174.735 41.992C174.735 41.3093 174.5 40.968 174.031 40.968C173.476 40.968 172.687 41.6933 171.663 43.144C170.639 44.552 169.615 46.4293 168.591 48.776C167.567 51.1227 166.735 53.5973 166.095 56.2C165.625 58.248 165.071 59.6133 164.431 60.296C163.833 60.9787 162.852 61.32 161.487 61.32C160.079 61.32 159.012 60.6587 158.287 59.336C157.604 57.9707 157.263 56.328 157.263 54.408C157.263 52.7867 157.476 50.44 157.903 47.368C158.244 44.6373 158.415 42.8453 158.415 41.992C158.415 41.3093 158.18 40.968 157.711 40.968C157.071 40.968 156.26 41.736 155.279 43.272C154.297 44.808 153.337 46.7707 152.399 49.16C151.503 51.5493 150.777 53.896 150.223 56.2C149.753 58.2053 149.199 59.5707 148.559 60.296C147.961 60.9787 147.001 61.32 145.679 61.32ZM221.075 61.32C218.131 61.32 215.464 60.5947 213.075 59.144C210.728 57.6933 208.872 55.6027 207.507 52.872C206.142 50.0987 205.459 46.8347 205.459 43.08C205.459 36.5947 206.846 30.6 209.619 25.096C212.392 19.5493 216.488 15.112 221.907 11.784C227.326 8.41333 233.832 6.728 241.427 6.728C243.39 6.728 245.48 6.87733 247.699 7.176C249.96 7.47466 252.008 7.92266 253.843 8.52C255.038 8.86133 255.635 9.71466 255.635 11.08C255.635 12.1893 255.208 13.2347 254.355 14.216C253.544 15.1973 252.584 15.688 251.475 15.688C251.134 15.688 250.878 15.6667 250.707 15.624C248.488 15.112 246.59 14.7493 245.011 14.536C243.432 14.28 241.768 14.152 240.019 14.152C234.6 14.152 229.992 15.4747 226.195 18.12C222.398 20.7227 219.56 24.1787 217.683 28.488C215.806 32.7973 214.867 37.448 214.867 42.44C214.867 46.0667 215.571 48.8827 216.979 50.888C218.43 52.8507 220.307 53.832 222.611 53.832C225.214 53.832 227.496 52.7653 229.459 50.632C231.422 48.4987 233.214 45.0427 234.835 40.264C236.456 35.4853 238.056 29 239.635 20.808C239.891 19.6133 240.403 18.8027 241.171 18.376C241.939 17.9493 242.963 17.736 244.243 17.736C247.272 17.736 248.787 18.7173 248.787 20.68C248.787 21.0213 248.723 21.448 248.595 21.96C247.486 26.0987 246.462 30.6853 245.523 35.72C244.627 40.712 244.179 44.5093 244.179 47.112C244.179 49.416 244.52 51.1013 245.203 52.168C245.886 53.192 246.931 53.704 248.339 53.704C249.704 53.704 251.006 53.256 252.243 52.36C253.48 51.4213 255.038 49.8427 256.915 47.624C257.427 47.0267 258.003 46.728 258.643 46.728C259.198 46.728 259.624 46.984 259.923 47.496C260.264 48.008 260.435 48.712 260.435 49.608C260.435 51.272 260.03 52.5947 259.219 53.576C257.128 56.0933 255.08 58.0133 253.075 59.336C251.07 60.6587 248.616 61.32 245.715 61.32C242.728 61.32 240.318 60.4667 238.483 58.76C236.648 57.0107 235.496 54.5573 235.027 51.4C231.87 58.0133 227.219 61.32 221.075 61.32ZM267.484 61.32C263.302 61.32 260.038 60.1467 257.692 57.8C255.388 55.4107 254.236 52.2747 254.236 48.392C254.236 44.936 254.918 41.9067 256.284 39.304C257.649 36.7013 259.42 34.696 261.595 33.288C263.772 31.88 266.054 31.176 268.444 31.176C270.79 31.176 272.604 31.88 273.884 33.288C275.206 34.6533 275.868 36.424 275.868 38.6C275.868 40.392 275.462 41.9067 274.652 43.144C273.884 44.3813 272.86 45 271.58 45C270.769 45 270.108 44.808 269.596 44.424C269.126 44.04 268.892 43.5067 268.892 42.824C268.892 42.5253 268.934 42.184 269.02 41.8C269.105 41.416 269.169 41.1387 269.212 40.968C269.425 40.328 269.532 39.7307 269.532 39.176C269.532 38.6213 269.382 38.1947 269.083 37.896C268.828 37.5973 268.444 37.448 267.932 37.448C266.95 37.448 266.033 37.896 265.18 38.792C264.326 39.6453 263.644 40.8187 263.132 42.312C262.62 43.8053 262.364 45.448 262.364 47.24C262.364 52.1893 264.518 54.664 268.828 54.664C270.577 54.664 272.454 54.088 274.46 52.936C276.508 51.7413 278.513 49.9707 280.476 47.624C280.988 47.0267 281.564 46.728 282.204 46.728C282.758 46.728 283.185 46.984 283.484 47.496C283.825 48.008 283.996 48.712 283.996 49.608C283.996 51.2293 283.59 52.552 282.78 53.576C280.774 56.0507 278.364 57.9707 275.548 59.336C272.774 60.6587 270.086 61.32 267.484 61.32ZM286.069 61.32C283.424 61.32 281.312 60.36 279.733 58.44C278.154 56.52 277.365 54.0027 277.365 50.888C277.365 47.4747 278.154 44.2533 279.733 41.224C281.312 38.152 283.402 35.6987 286.005 33.864C288.65 31.9867 291.445 31.048 294.389 31.048C295.328 31.048 295.946 31.24 296.245 31.624C296.586 31.9653 296.864 32.6053 297.077 33.544C297.973 33.3733 298.912 33.288 299.893 33.288C301.984 33.288 303.029 34.0347 303.029 35.528C303.029 36.424 302.709 38.5573 302.069 41.928C301.088 46.8347 300.597 50.248 300.597 52.168C300.597 52.808 300.746 53.32 301.045 53.704C301.386 54.088 301.813 54.28 302.325 54.28C303.136 54.28 304.117 53.768 305.269 52.744C306.421 51.6773 307.978 49.9707 309.941 47.624C310.453 47.0267 311.029 46.728 311.669 46.728C312.224 46.728 312.65 46.984 312.949 47.496C313.29 48.008 313.461 48.712 313.461 49.608C313.461 51.3147 313.056 52.6373 312.245 53.576C310.496 55.752 308.64 57.5867 306.677 59.08C304.714 60.5733 302.816 61.32 300.981 61.32C299.573 61.32 298.272 60.8507 297.077 59.912C295.925 58.9307 295.05 57.608 294.453 55.944C292.234 59.528 289.44 61.32 286.069 61.32ZM288.373 54.856C289.312 54.856 290.208 54.3013 291.061 53.192C291.914 52.0827 292.533 50.6107 292.917 48.776L295.285 37C293.493 37.0427 291.829 37.7253 290.293 39.048C288.8 40.328 287.605 42.0347 286.709 44.168C285.813 46.3013 285.365 48.5627 285.365 50.952C285.365 52.2747 285.621 53.256 286.133 53.896C286.688 54.536 287.434 54.856 288.373 54.856ZM312.804 61.32C311.182 61.32 310.03 60.4667 309.348 58.76C308.708 57.0533 308.388 54.3227 308.388 50.568C308.388 45.0213 309.177 39.752 310.756 34.76C311.14 33.5227 311.758 32.6267 312.612 32.072C313.508 31.4747 314.745 31.176 316.324 31.176C317.177 31.176 317.774 31.2827 318.116 31.496C318.457 31.7093 318.628 32.1147 318.628 32.712C318.628 33.3947 318.308 34.9307 317.668 37.32C317.241 39.0267 316.9 40.52 316.644 41.8C316.388 43.0373 316.174 44.5947 316.004 46.472C317.156 43.144 318.521 40.328 320.1 38.024C321.721 35.72 323.364 34.0133 325.028 32.904C326.734 31.752 328.334 31.176 329.828 31.176C331.321 31.176 332.366 31.5173 332.964 32.2C333.604 32.8827 333.924 33.928 333.924 35.336C333.924 36.7013 333.518 39.176 332.708 42.76C332.366 44.296 332.132 45.448 332.004 46.216C334.137 40.968 336.505 37.1493 339.108 34.76C341.71 32.3707 344.142 31.176 346.404 31.176C349.177 31.176 350.564 32.5627 350.564 35.336C350.564 37 350.094 40.008 349.156 44.36C348.345 48.072 347.94 50.5253 347.94 51.72C347.94 53.4267 348.558 54.28 349.796 54.28C350.649 54.28 351.652 53.768 352.804 52.744C353.998 51.6773 355.577 49.9707 357.54 47.624C358.052 47.0267 358.628 46.728 359.268 46.728C359.822 46.728 360.249 46.984 360.548 47.496C360.889 48.008 361.06 48.712 361.06 49.608C361.06 51.3147 360.654 52.6373 359.844 53.576C358.009 55.8373 356.025 57.6933 353.892 59.144C351.801 60.5947 349.412 61.32 346.724 61.32C344.548 61.32 342.905 60.7013 341.796 59.464C340.686 58.184 340.132 56.3493 340.132 53.96C340.132 52.7653 340.43 50.632 341.028 47.56C341.582 44.872 341.86 43.016 341.86 41.992C341.86 41.3093 341.625 40.968 341.156 40.968C340.601 40.968 339.812 41.6933 338.788 43.144C337.764 44.552 336.74 46.4293 335.716 48.776C334.692 51.1227 333.86 53.5973 333.22 56.2C332.75 58.248 332.196 59.6133 331.556 60.296C330.958 60.9787 329.977 61.32 328.612 61.32C327.204 61.32 326.137 60.6587 325.412 59.336C324.729 57.9707 324.388 56.328 324.388 54.408C324.388 52.7867 324.601 50.44 325.028 47.368C325.369 44.6373 325.54 42.8453 325.54 41.992C325.54 41.3093 325.305 40.968 324.836 40.968C324.196 40.968 323.385 41.736 322.404 43.272C321.422 44.808 320.462 46.7707 319.524 49.16C318.628 51.5493 317.902 53.896 317.348 56.2C316.878 58.2053 316.324 59.5707 315.684 60.296C315.086 60.9787 314.126 61.32 312.804 61.32ZM384.429 46.728C384.983 46.728 385.41 46.984 385.708 47.496C386.05 48.008 386.221 48.712 386.221 49.608C386.221 51.3147 385.815 52.6373 385.005 53.576C383.426 55.496 381.186 57.2667 378.285 58.888C375.426 60.5093 372.354 61.32 369.069 61.32C364.589 61.32 361.111 60.104 358.637 57.672C356.162 55.24 354.924 51.912 354.924 47.688C354.924 44.744 355.543 42.0133 356.781 39.496C358.018 36.936 359.725 34.9093 361.901 33.416C364.119 31.9227 366.615 31.176 369.389 31.176C371.863 31.176 373.847 31.9227 375.341 33.416C376.834 34.8667 377.581 36.8507 377.581 39.368C377.581 42.312 376.514 44.8507 374.381 46.984C372.29 49.0747 368.727 50.7387 363.693 51.976C364.759 53.9387 366.786 54.92 369.773 54.92C371.693 54.92 373.869 54.2587 376.301 52.936C378.775 51.5707 380.909 49.8 382.701 47.624C383.213 47.0267 383.789 46.728 384.429 46.728ZM368.301 37.448C366.722 37.448 365.378 38.3653 364.269 40.2C363.202 42.0347 362.669 44.2533 362.669 46.856V46.984C365.186 46.3867 367.17 45.4907 368.621 44.296C370.071 43.1013 370.797 41.7147 370.797 40.136C370.797 39.3253 370.562 38.6853 370.093 38.216C369.666 37.704 369.069 37.448 368.301 37.448ZM385.554 61.32C383.932 61.32 382.78 60.4667 382.098 58.76C381.458 57.0533 381.138 54.3227 381.138 50.568C381.138 45.0213 381.927 39.752 383.506 34.76C383.89 33.5227 384.508 32.6267 385.362 32.072C386.258 31.4747 387.495 31.176 389.074 31.176C389.927 31.176 390.524 31.2827 390.866 31.496C391.207 31.7093 391.378 32.1147 391.378 32.712C391.378 33.3947 391.058 34.9307 390.418 37.32C389.991 39.0267 389.65 40.52 389.394 41.8C389.138 43.08 388.924 44.6587 388.754 46.536C390.162 42.8667 391.74 39.88 393.49 37.576C395.239 35.272 396.946 33.6293 398.61 32.648C400.316 31.6667 401.874 31.176 403.282 31.176C406.055 31.176 407.442 32.5627 407.442 35.336C407.442 37 406.972 40.008 406.034 44.36C405.223 48.072 404.818 50.5253 404.818 51.72C404.818 53.4267 405.436 54.28 406.674 54.28C407.527 54.28 408.53 53.768 409.682 52.744C410.876 51.6773 412.455 49.9707 414.418 47.624C414.93 47.0267 415.506 46.728 416.146 46.728C416.7 46.728 417.127 46.984 417.426 47.496C417.767 48.008 417.938 48.712 417.938 49.608C417.938 51.3147 417.532 52.6373 416.722 53.576C414.887 55.8373 412.903 57.6933 410.77 59.144C408.679 60.5947 406.29 61.32 403.602 61.32C401.426 61.32 399.783 60.7013 398.674 59.464C397.564 58.184 397.01 56.3493 397.01 53.96C397.01 52.7653 397.308 50.632 397.906 47.56C398.46 44.872 398.738 43.016 398.738 41.992C398.738 41.3093 398.503 40.968 398.034 40.968C397.479 40.968 396.69 41.6933 395.666 43.144C394.684 44.552 393.66 46.4293 392.594 48.776C391.57 51.1227 390.738 53.5973 390.098 56.2C389.628 58.2053 389.074 59.5707 388.434 60.296C387.836 60.9787 386.876 61.32 385.554 61.32ZM435.16 31.176C436.141 31.176 436.824 31.304 437.208 31.56C437.592 31.816 437.784 32.2427 437.784 32.84C437.784 33.864 437.229 37.512 436.12 43.784C435.138 49.8 434.562 53.3627 434.392 54.472C432.813 65.4373 430.637 74.12 427.864 80.52C425.09 86.92 421.4 90.12 416.792 90.12C414.616 90.12 412.845 89.4373 411.48 88.072C410.114 86.7493 409.431 85 409.431 82.824C409.431 80.8187 409.88 78.7707 410.776 76.68C411.714 74.5893 413.421 72.1787 415.896 69.448C418.413 66.76 421.954 63.6667 426.52 60.168L426.712 58.696C427.01 57.1173 427.352 54.856 427.736 51.912C426.882 54.984 425.688 57.3307 424.152 58.952C422.616 60.5307 420.994 61.32 419.288 61.32C417.368 61.32 415.789 60.4453 414.552 58.696C413.357 56.904 412.76 54.6853 412.76 52.04C412.76 48.84 412.973 45.9173 413.4 43.272C413.826 40.584 414.53 37.7467 415.512 34.76C415.938 33.48 416.536 32.5627 417.304 32.008C418.072 31.4533 419.288 31.176 420.952 31.176C421.89 31.176 422.53 31.3253 422.872 31.624C423.256 31.9227 423.448 32.3707 423.448 32.968C423.448 33.3093 423.213 34.4613 422.744 36.424C422.317 38.0027 421.976 39.432 421.72 40.712C421.378 42.4613 421.08 44.1467 420.824 45.768C420.568 47.3467 420.44 48.648 420.44 49.672C420.44 51.2933 420.888 52.104 421.784 52.104C422.424 52.104 423.213 51.464 424.152 50.184C425.133 48.904 426.157 46.9627 427.224 44.36C428.333 41.7573 429.4 38.5573 430.424 34.76C430.765 33.48 431.277 32.5627 431.96 32.008C432.685 31.4533 433.752 31.176 435.16 31.176ZM417.496 83.912C418.562 83.912 419.757 82.6747 421.08 80.2C422.402 77.7253 423.725 73.608 425.048 67.848C421.762 70.6213 419.373 73.1387 417.88 75.4C416.429 77.704 415.704 79.7093 415.704 81.416C415.704 82.1413 415.832 82.7387 416.088 83.208C416.386 83.6773 416.856 83.912 417.496 83.912Z" fill="black"/>
</svg>
