<svg width="2383" height="299" viewBox="0 0 2383 299" fill="none" xmlns="http://www.w3.org/2000/svg">
<path d="M79.5938 178.547L56.3906 203.156V267H20.8125V62.25H56.3906V158.297L76.0781 133.969L135.984 62.25H179.016L102.938 152.953L183.375 267H141.188L79.5938 178.547ZM317.109 219.328H237.797L221.203 267H184.219L261.562 62.25H293.484L370.969 267H333.844L317.109 219.328ZM247.781 190.641H307.125L277.453 105.703L247.781 190.641ZM429.891 238.594H522.844V267H394.312V62.25H429.891V238.594ZM667.547 219.328H588.234L571.641 267H534.656L612 62.25H643.922L721.406 267H684.281L667.547 219.328ZM598.219 190.641H657.562L627.891 105.703L598.219 190.641ZM790.875 62.25L849.938 219.188L908.859 62.25H954.844V267H919.406V199.5L922.922 109.219L862.453 267H837L776.672 109.359L780.188 199.5V267H744.75V62.25H790.875ZM1183.36 219.328H1104.05L1087.45 267H1050.47L1127.81 62.25H1159.73L1237.22 267H1200.09L1183.36 219.328ZM1114.03 190.641H1173.38L1143.7 105.703L1114.03 190.641ZM1413.7 200.344C1411.64 222.188 1403.58 239.25 1389.52 251.531C1375.45 263.719 1356.75 269.812 1333.41 269.812C1317.09 269.812 1302.7 265.969 1290.23 258.281C1277.86 250.5 1268.3 239.484 1261.55 225.234C1254.8 210.984 1251.28 194.438 1251 175.594V156.469C1251 137.156 1254.42 120.141 1261.27 105.422C1268.11 90.7031 1277.91 79.3594 1290.66 71.3906C1303.5 63.4219 1318.31 59.4375 1335.09 59.4375C1357.69 59.4375 1375.88 65.5781 1389.66 77.8594C1403.44 90.1406 1411.45 107.484 1413.7 129.891H1378.27C1376.58 115.172 1372.27 104.578 1365.33 98.1094C1358.48 91.5469 1348.41 88.2656 1335.09 88.2656C1319.62 88.2656 1307.72 93.9375 1299.38 105.281C1291.12 116.531 1286.91 133.078 1286.72 154.922V173.062C1286.72 195.188 1290.66 212.062 1298.53 223.688C1306.5 235.312 1318.12 241.125 1333.41 241.125C1347.38 241.125 1357.88 237.984 1364.91 231.703C1371.94 225.422 1376.39 214.969 1378.27 200.344H1413.7ZM1560.23 219.328H1480.92L1464.33 267H1427.34L1504.69 62.25H1536.61L1614.09 267H1576.97L1560.23 219.328ZM1490.91 190.641H1550.25L1520.58 105.703L1490.91 190.641ZM1637.44 267V62.25H1697.91C1716 62.25 1732.03 66.2813 1746 74.3438C1760.06 82.4062 1770.94 93.8438 1778.62 108.656C1786.31 123.469 1790.16 140.438 1790.16 159.562V169.828C1790.16 189.234 1786.27 206.297 1778.48 221.016C1770.8 235.734 1759.78 247.078 1745.44 255.047C1731.19 263.016 1714.83 267 1696.36 267H1637.44ZM1673.02 90.9375V238.594H1696.22C1714.88 238.594 1729.17 232.781 1739.11 221.156C1749.14 209.438 1754.25 192.656 1754.44 170.812V159.422C1754.44 137.203 1749.61 120.234 1739.95 108.516C1730.3 96.7969 1716.28 90.9375 1697.91 90.9375H1673.02ZM2015.16 62.25L2074.22 219.188L2133.14 62.25H2179.12V267H2143.69V199.5L2147.2 109.219L2086.73 267H2061.28L2000.95 109.359L2004.47 199.5V267H1969.03V62.25H2015.16ZM2284.17 159.281L2331.28 62.25H2370.66L2302.03 191.625V267H2266.31V191.625L2197.55 62.25H2237.06L2284.17 159.281Z" fill="#3D6CB9"/>
<path d="M1814 63H1849H1904V90.5636H1849V115.663V147H1891V175H1849V216.554V239H1905V267H1849H1814V63Z" fill="#00D1FF"/>
<rect x="1932" y="77" width="14" height="14" fill="#00D1FF"/>
<rect x="1933" y="239" width="14" height="14" fill="#00D1FF"/>
<rect x="1919" y="253" width="14" height="14" fill="#00D1FF"/>
<rect x="1905" y="239" width="14" height="14" fill="#00D1FF"/>
<rect x="1918" y="63" width="14" height="14" fill="#00D1FF"/>
<rect x="1904" y="77" width="14" height="14" fill="#00D1FF"/>
<rect x="1919" y="161" width="14" height="14" fill="#00D1FF"/>
<rect x="1905" y="147" width="14" height="14" fill="#00D1FF"/>
<rect x="1891" y="161" width="14" height="14" fill="#00D1FF"/>
</svg>
