<svg width="2540" height="338" viewBox="0 0 2540 338" fill="none" xmlns="http://www.w3.org/2000/svg">
<path d="M205.172 288H141.609L84.5156 202.922L74.25 217.266V288H21.6562V78.6094H74.25V171.562L141.188 78.6094H202.078L127.406 175.781L205.172 288ZM199.688 288L270.422 78.6094H327.797L398.531 288H344.391L331.312 245.25H265.5L252.422 288H199.688ZM319.781 207.281L298.406 138.234L277.031 207.281H319.781ZM559.125 288H419.344V78.6094H471.938V248.062H559.125V288ZM561.656 288L632.391 78.6094H689.766L760.5 288H706.359L693.281 245.25H627.469L614.391 288H561.656ZM681.75 207.281L660.375 138.234L639 207.281H681.75ZM995.203 288H942.891V149.203L904.781 238.781H868.922L830.812 149.203V288H781.312V78.6094H841.922L888.328 181.969L934.594 78.6094H995.203V288ZM1100.53 288L1171.27 78.6094H1228.64L1299.38 288H1245.23L1232.16 245.25H1166.34L1153.27 288H1100.53ZM1220.62 207.281L1199.25 138.234L1177.88 207.281H1220.62ZM1410.47 292.078C1379.06 292.078 1354.12 282.609 1335.66 263.672C1317.19 244.641 1307.95 217.922 1307.95 183.516C1307.95 150.328 1317.19 123.891 1335.66 104.203C1354.22 84.4219 1379.2 74.5312 1410.61 74.5312C1418.95 74.5312 1426.45 75 1433.11 75.9375C1439.77 76.875 1446.14 78.1875 1452.23 79.875C1457.02 81.2812 1462.22 83.2031 1467.84 85.6406C1473.47 88.0781 1478.02 90.1875 1481.48 91.9688V141.891H1476.14C1473.61 139.641 1470.42 136.969 1466.58 133.875C1462.73 130.688 1458.38 127.594 1453.5 124.594C1448.62 121.594 1443.23 119.063 1437.33 117C1431.52 114.844 1425.42 113.766 1419.05 113.766C1411.45 113.766 1404.47 114.984 1398.09 117.422C1391.81 119.766 1385.81 123.891 1380.09 129.797C1374.84 135.141 1370.53 142.359 1367.16 151.453C1363.88 160.547 1362.23 171.281 1362.23 183.656C1362.23 196.688 1363.97 207.656 1367.44 216.562C1370.91 225.375 1375.45 232.5 1381.08 237.938C1386.52 243.188 1392.56 246.984 1399.22 249.328C1405.97 251.672 1412.67 252.844 1419.33 252.844C1426.27 252.844 1432.88 251.719 1439.16 249.469C1445.44 247.125 1450.73 244.547 1455.05 241.734C1459.73 238.828 1463.86 235.875 1467.42 232.875C1470.98 229.875 1474.08 227.203 1476.7 224.859H1481.48V274.078C1477.64 275.859 1473.19 277.922 1468.12 280.266C1463.06 282.516 1457.86 284.438 1452.52 286.031C1445.95 288 1439.81 289.5 1434.09 290.531C1428.38 291.562 1420.5 292.078 1410.47 292.078ZM1490.06 288L1560.8 78.6094H1618.17L1688.91 288H1634.77L1621.69 245.25H1555.88L1542.8 288H1490.06ZM1610.16 207.281L1588.78 138.234L1567.41 207.281H1610.16ZM1896.75 183.516C1896.75 203.016 1892.48 220.5 1883.95 235.969C1875.42 251.344 1864.64 263.156 1851.61 271.406C1840.73 278.438 1828.88 282.984 1816.03 285.047C1803.28 287.016 1789.69 288 1775.25 288H1709.72V78.6094H1774.69C1789.41 78.6094 1803.19 79.5469 1816.03 81.4219C1828.88 83.2969 1840.92 87.8438 1852.17 95.0625C1865.95 103.875 1876.83 115.781 1884.8 130.781C1892.77 145.688 1896.75 163.266 1896.75 183.516ZM1842.75 183.094C1842.75 169.312 1840.36 157.547 1835.58 147.797C1830.89 137.953 1823.62 130.266 1813.78 124.734C1806.66 120.797 1799.16 118.641 1791.28 118.266C1783.5 117.891 1774.17 117.703 1763.3 117.703H1762.31V248.766H1763.3C1775.11 248.766 1785.05 248.578 1793.11 248.203C1801.27 247.734 1809 245.203 1816.31 240.609C1824.94 235.172 1831.5 227.672 1836 218.109C1840.5 208.547 1842.75 196.875 1842.75 183.094ZM2310.61 288H2258.3V149.203L2220.19 238.781H2184.33L2146.22 149.203V288H2096.72V78.6094H2157.33L2203.73 181.969L2250 78.6094H2310.61V288ZM2528.16 78.6094L2455.88 200.531V288H2403.28V203.203L2329.73 78.6094H2389.64L2430.7 153.422L2470.22 78.6094H2528.16Z" fill="#3D6CB9"/>
<path d="M2041.82 102.082H2060.42V121.332H2041.82V102.082Z" fill="#00D1FF"/>
<path d="M2028.3 182.082H2046.89V201.332H2028.3V182.082Z" fill="#00D1FF"/>
<path d="M1924 83H1972.29H2005.13V121.438H1972.29V134.25V164.527H1991.6V201.305H1972.29V236.75V250.082H2005.13V288H1972.29H1924V83Z" fill="#00D1FF"/>
<path d="M2041.82 250.082H2060.42V269.332H2041.82V250.082Z" fill="#00D1FF"/>
<path d="M2005.12 250.082H2023.72V269.332H2005.12V250.082Z" fill="#00D1FF"/>
<path d="M2023.47 269.082H2042.07V288.332H2023.47V269.082Z" fill="#00D1FF"/>
<path d="M1991.6 182.082H2010.19V201.332H1991.6V182.082Z" fill="#00D1FF"/>
<path d="M2009.95 164.082H2028.54V183.332H2009.95V164.082Z" fill="#00D1FF"/>
<path d="M2005.12 102.082H2023.72V121.332H2005.12V102.082Z" fill="#00D1FF"/>
<path d="M2023.47 83.082H2042.07V102.332H2023.47V83.082Z" fill="#00D1FF"/>
</svg>
