<svg width="102" height="31" viewBox="0 0 102 31" fill="none" xmlns="http://www.w3.org/2000/svg">
<path d="M42.628 13L39.796 9.28V13H37.744V4.576H39.796V8.272L42.604 4.576H45.016L41.752 8.704L45.136 13H42.628ZM45.4632 9.64C45.4632 8.952 45.5912 8.348 45.8472 7.828C46.1112 7.308 46.4672 6.908 46.9152 6.628C47.3632 6.348 47.8632 6.208 48.4152 6.208C48.8872 6.208 49.2992 6.304 49.6512 6.496C50.0112 6.688 50.2872 6.94 50.4792 7.252V6.304H52.5312V13H50.4792V12.052C50.2792 12.364 49.9992 12.616 49.6392 12.808C49.2872 13 48.8752 13.096 48.4032 13.096C47.8592 13.096 47.3632 12.956 46.9152 12.676C46.4672 12.388 46.1112 11.984 45.8472 11.464C45.5912 10.936 45.4632 10.328 45.4632 9.64ZM50.4792 9.652C50.4792 9.14 50.3352 8.736 50.0472 8.44C49.7672 8.144 49.4232 7.996 49.0152 7.996C48.6072 7.996 48.2592 8.144 47.9712 8.44C47.6912 8.728 47.5512 9.128 47.5512 9.64C47.5512 10.152 47.6912 10.56 47.9712 10.864C48.2592 11.16 48.6072 11.308 49.0152 11.308C49.4232 11.308 49.7672 11.16 50.0472 10.864C50.3352 10.568 50.4792 10.164 50.4792 9.652ZM55.8277 4.12V13H53.7757V4.12H55.8277ZM56.6668 9.64C56.6668 8.952 56.7948 8.348 57.0508 7.828C57.3148 7.308 57.6708 6.908 58.1188 6.628C58.5668 6.348 59.0668 6.208 59.6188 6.208C60.0908 6.208 60.5028 6.304 60.8548 6.496C61.2148 6.688 61.4908 6.94 61.6828 7.252V6.304H63.7348V13H61.6828V12.052C61.4828 12.364 61.2028 12.616 60.8428 12.808C60.4908 13 60.0788 13.096 59.6068 13.096C59.0628 13.096 58.5668 12.956 58.1188 12.676C57.6708 12.388 57.3148 11.984 57.0508 11.464C56.7948 10.936 56.6668 10.328 56.6668 9.64ZM61.6828 9.652C61.6828 9.14 61.5388 8.736 61.2508 8.44C60.9708 8.144 60.6268 7.996 60.2188 7.996C59.8108 7.996 59.4628 8.144 59.1748 8.44C58.8948 8.728 58.7548 9.128 58.7548 9.64C58.7548 10.152 58.8948 10.56 59.1748 10.864C59.4628 11.16 59.8108 11.308 60.2188 11.308C60.6268 11.308 60.9708 11.16 61.2508 10.864C61.5388 10.568 61.6828 10.164 61.6828 9.652ZM73.5233 6.232C74.3553 6.232 75.0153 6.484 75.5033 6.988C75.9993 7.492 76.2473 8.192 76.2473 9.088V13H74.2073V9.364C74.2073 8.932 74.0913 8.6 73.8593 8.368C73.6353 8.128 73.3233 8.008 72.9233 8.008C72.5233 8.008 72.2073 8.128 71.9753 8.368C71.7513 8.6 71.6393 8.932 71.6393 9.364V13H69.5993V9.364C69.5993 8.932 69.4833 8.6 69.2513 8.368C69.0273 8.128 68.7153 8.008 68.3153 8.008C67.9153 8.008 67.5993 8.128 67.3673 8.368C67.1433 8.6 67.0313 8.932 67.0313 9.364V13H64.9793V6.304H67.0313V7.144C67.2393 6.864 67.5113 6.644 67.8473 6.484C68.1833 6.316 68.5633 6.232 68.9873 6.232C69.4913 6.232 69.9393 6.34 70.3313 6.556C70.7313 6.772 71.0433 7.08 71.2673 7.48C71.4993 7.112 71.8153 6.812 72.2153 6.58C72.6153 6.348 73.0513 6.232 73.5233 6.232Z" fill="white"/>
<path d="M42.988 25.512H39.844L39.34 27H37.192L40.24 18.576H42.616L45.664 27H43.492L42.988 25.512ZM42.46 23.928L41.416 20.844L40.384 23.928H42.46ZM45.9437 23.652C45.9437 22.956 46.0837 22.348 46.3637 21.828C46.6517 21.308 47.0477 20.908 47.5517 20.628C48.0637 20.348 48.6477 20.208 49.3037 20.208C50.1437 20.208 50.8437 20.428 51.4037 20.868C51.9717 21.308 52.3437 21.928 52.5197 22.728H50.3357C50.1517 22.216 49.7957 21.96 49.2677 21.96C48.8917 21.96 48.5917 22.108 48.3677 22.404C48.1437 22.692 48.0317 23.108 48.0317 23.652C48.0317 24.196 48.1437 24.616 48.3677 24.912C48.5917 25.2 48.8917 25.344 49.2677 25.344C49.7957 25.344 50.1517 25.088 50.3357 24.576H52.5197C52.3437 25.36 51.9717 25.976 51.4037 26.424C50.8357 26.872 50.1357 27.096 49.3037 27.096C48.6477 27.096 48.0637 26.956 47.5517 26.676C47.0477 26.396 46.6517 25.996 46.3637 25.476C46.0837 24.956 45.9437 24.348 45.9437 23.652ZM52.9693 23.64C52.9693 22.952 53.0973 22.348 53.3533 21.828C53.6173 21.308 53.9733 20.908 54.4213 20.628C54.8693 20.348 55.3693 20.208 55.9213 20.208C56.3933 20.208 56.8053 20.304 57.1573 20.496C57.5173 20.688 57.7933 20.94 57.9853 21.252V20.304H60.0373V27H57.9853V26.052C57.7853 26.364 57.5053 26.616 57.1453 26.808C56.7933 27 56.3813 27.096 55.9093 27.096C55.3653 27.096 54.8693 26.956 54.4213 26.676C53.9733 26.388 53.6173 25.984 53.3533 25.464C53.0973 24.936 52.9693 24.328 52.9693 23.64ZM57.9853 23.652C57.9853 23.14 57.8413 22.736 57.5533 22.44C57.2733 22.144 56.9293 21.996 56.5213 21.996C56.1133 21.996 55.7653 22.144 55.4773 22.44C55.1973 22.728 55.0573 23.128 55.0573 23.64C55.0573 24.152 55.1973 24.56 55.4773 24.864C55.7653 25.16 56.1133 25.308 56.5213 25.308C56.9293 25.308 57.2733 25.16 57.5533 24.864C57.8413 24.568 57.9853 24.164 57.9853 23.652ZM60.8738 23.64C60.8738 22.952 61.0018 22.348 61.2578 21.828C61.5218 21.308 61.8778 20.908 62.3258 20.628C62.7738 20.348 63.2738 20.208 63.8258 20.208C64.2658 20.208 64.6658 20.3 65.0258 20.484C65.3938 20.668 65.6818 20.916 65.8898 21.228V18.12H67.9418V27H65.8898V26.04C65.6978 26.36 65.4218 26.616 65.0618 26.808C64.7098 27 64.2978 27.096 63.8258 27.096C63.2738 27.096 62.7738 26.956 62.3258 26.676C61.8778 26.388 61.5218 25.984 61.2578 25.464C61.0018 24.936 60.8738 24.328 60.8738 23.64ZM65.8898 23.652C65.8898 23.14 65.7458 22.736 65.4578 22.44C65.1778 22.144 64.8338 21.996 64.4258 21.996C64.0178 21.996 63.6698 22.144 63.3818 22.44C63.1018 22.728 62.9618 23.128 62.9618 23.64C62.9618 24.152 63.1018 24.56 63.3818 24.864C63.6698 25.16 64.0178 25.308 64.4258 25.308C64.8338 25.308 65.1778 25.16 65.4578 24.864C65.7458 24.568 65.8898 24.164 65.8898 23.652ZM75.4983 23.544C75.4983 23.736 75.4863 23.936 75.4623 24.144H70.8183C70.8503 24.56 70.9823 24.88 71.2143 25.104C71.4543 25.32 71.7463 25.428 72.0903 25.428C72.6023 25.428 72.9583 25.212 73.1583 24.78H75.3423C75.2303 25.22 75.0263 25.616 74.7303 25.968C74.4423 26.32 74.0783 26.596 73.6383 26.796C73.1983 26.996 72.7063 27.096 72.1623 27.096C71.5063 27.096 70.9223 26.956 70.4103 26.676C69.8983 26.396 69.4983 25.996 69.2103 25.476C68.9223 24.956 68.7783 24.348 68.7783 23.652C68.7783 22.956 68.9183 22.348 69.1983 21.828C69.4863 21.308 69.8863 20.908 70.3983 20.628C70.9103 20.348 71.4983 20.208 72.1623 20.208C72.8103 20.208 73.3863 20.344 73.8903 20.616C74.3943 20.888 74.7863 21.276 75.0663 21.78C75.3543 22.284 75.4983 22.872 75.4983 23.544ZM73.3983 23.004C73.3983 22.652 73.2783 22.372 73.0383 22.164C72.7983 21.956 72.4983 21.852 72.1383 21.852C71.7943 21.852 71.5023 21.952 71.2623 22.152C71.0303 22.352 70.8863 22.636 70.8303 23.004H73.3983ZM84.8849 20.232C85.7169 20.232 86.3769 20.484 86.8649 20.988C87.3609 21.492 87.6089 22.192 87.6089 23.088V27H85.5689V23.364C85.5689 22.932 85.4529 22.6 85.2209 22.368C84.9969 22.128 84.6849 22.008 84.2849 22.008C83.8849 22.008 83.5689 22.128 83.3369 22.368C83.1129 22.6 83.0009 22.932 83.0009 23.364V27H80.9609V23.364C80.9609 22.932 80.8449 22.6 80.6129 22.368C80.3889 22.128 80.0769 22.008 79.6769 22.008C79.2769 22.008 78.9609 22.128 78.7289 22.368C78.5049 22.6 78.3929 22.932 78.3929 23.364V27H76.3409V20.304H78.3929V21.144C78.6009 20.864 78.8729 20.644 79.2089 20.484C79.5449 20.316 79.9249 20.232 80.3489 20.232C80.8529 20.232 81.3009 20.34 81.6929 20.556C82.0929 20.772 82.4049 21.08 82.6289 21.48C82.8609 21.112 83.1769 20.812 83.5769 20.58C83.9769 20.348 84.4129 20.232 84.8849 20.232ZM95.644 20.304L91.444 30.18H89.236L90.772 26.772L88.048 20.304H90.34L91.888 24.492L93.424 20.304H95.644Z" fill="white"/>
<circle cx="29" cy="25" r="3" fill="#FFF7B1"/>
<path d="M17.5 7.26452C17.5 5.74247 18.7424 4.51312 20.2644 4.52919L31.75 4.65048V16.25C31.75 17.7688 30.5188 19 29 19V19C27.4812 19 26.25 17.7688 26.25 16.25V10H25.25L20.2355 10C18.7247 10 17.5 8.77529 17.5 7.26452V7.26452Z" fill="#6C60EA"/>
<path d="M8.5 16.25C8.5 14.7312 9.73122 13.5 11.25 13.5H20.25C21.7688 13.5 23 14.7312 23 16.25V16.25C23 17.7688 21.7688 19 20.25 19H11.25C9.73122 19 8.5 17.7688 8.5 16.25V16.25Z" fill="#6C60EA"/>
<path d="M0 25C0 23.3431 1.34315 22 3 22H20C21.6569 22 23 23.3431 23 25V25C23 26.6569 21.6569 28 20 28H3C1.34315 28 0 26.6569 0 25V25Z" fill="#6C60EA"/>
</svg>
