<svg width="2898" height="364" viewBox="0 0 2898 364" fill="none" xmlns="http://www.w3.org/2000/svg">
<g clip-path="url(#clip0)">
<path d="M163.36 355.485C253.581 355.485 326.72 284.008 326.72 195.836C326.72 107.664 253.581 36.187 163.36 36.187C73.1387 36.187 0 107.664 0 195.836C0 284.008 73.1387 355.485 163.36 355.485Z" fill="white"/>
<path d="M326.72 487.462C416.941 487.462 490.08 415.985 490.08 327.813C490.08 239.641 416.941 168.164 326.72 168.164C236.499 168.164 163.36 239.641 163.36 327.813C163.36 415.985 236.499 487.462 326.72 487.462Z" fill="white"/>
<path d="M1619.44 525.778C1709.66 525.778 1782.8 454.3 1782.8 366.129C1782.8 277.957 1709.66 206.479 1619.44 206.479C1529.22 206.479 1456.08 277.957 1456.08 366.129C1456.08 454.3 1529.22 525.778 1619.44 525.778Z" fill="white"/>
<path d="M1859.03 546C1934.22 546 1995.17 486.436 1995.17 412.959C1995.17 339.483 1934.22 279.918 1859.03 279.918C1783.85 279.918 1722.9 339.483 1722.9 412.959C1722.9 486.436 1783.85 546 1859.03 546Z" fill="white"/>
<path d="M1085.8 541.743C1160.98 541.743 1221.93 482.178 1221.93 408.702C1221.93 335.225 1160.98 275.661 1085.8 275.661C1010.61 275.661 949.664 335.225 949.664 408.702C949.664 482.178 1010.61 541.743 1085.8 541.743Z" fill="white"/>
<path d="M1292.72 530.035C1382.95 530.035 1456.08 458.558 1456.08 370.386C1456.08 282.214 1382.95 210.737 1292.72 210.737C1202.5 210.737 1129.37 282.214 1129.37 370.386C1129.37 458.558 1202.5 530.035 1292.72 530.035Z" fill="white"/>
<path d="M2081.21 572.608C2171.43 572.608 2244.57 501.131 2244.57 412.959C2244.57 324.787 2171.43 253.31 2081.21 253.31C1990.99 253.31 1917.85 324.787 1917.85 412.959C1917.85 501.131 1990.99 572.608 2081.21 572.608Z" fill="white"/>
<path d="M872.341 572.608C962.562 572.608 1035.7 501.131 1035.7 412.959C1035.7 324.787 962.562 253.31 872.341 253.31C782.12 253.31 708.981 324.787 708.981 412.959C708.981 501.131 782.12 572.608 872.341 572.608Z" fill="white"/>
<path d="M638.192 487.462C704.354 487.462 757.989 435.045 757.989 370.386C757.989 305.727 704.354 253.31 638.192 253.31C572.03 253.31 518.395 305.727 518.395 370.386C518.395 435.045 572.03 487.462 638.192 487.462Z" fill="white"/>
<path d="M2288.13 487.462C2354.29 487.462 2407.92 435.045 2407.92 370.386C2407.92 305.727 2354.29 253.31 2288.13 253.31C2221.97 253.31 2168.33 305.727 2168.33 370.386C2168.33 435.045 2221.97 487.462 2288.13 487.462Z" fill="white"/>
<path d="M2571.28 497.041C2661.5 497.041 2734.64 425.564 2734.64 337.392C2734.64 249.22 2661.5 177.743 2571.28 177.743C2481.06 177.743 2407.92 249.22 2407.92 337.392C2407.92 425.564 2481.06 497.041 2571.28 497.041Z" fill="white"/>
<path d="M1449.55 355.485C1494.66 355.485 1531.23 319.747 1531.23 275.661C1531.23 231.575 1494.66 195.836 1449.55 195.836C1404.44 195.836 1367.87 231.575 1367.87 275.661C1367.87 319.747 1404.44 355.485 1449.55 355.485Z" fill="white"/>
<path d="M490.078 456.597C541.204 456.597 582.649 416.093 582.649 366.129C582.649 316.165 541.204 275.661 490.078 275.661C438.953 275.661 397.508 316.165 397.508 366.129C397.508 416.093 438.953 456.597 490.078 456.597Z" fill="white"/>
<path d="M2407.92 456.597C2459.05 456.597 2500.49 416.093 2500.49 366.129C2500.49 316.165 2459.05 275.661 2407.92 275.661C2356.8 275.661 2315.35 316.165 2315.35 366.129C2315.35 416.093 2356.8 456.597 2407.92 456.597Z" fill="white"/>
<path d="M2734.64 355.485C2824.86 355.485 2898 284.008 2898 195.836C2898 107.664 2824.86 36.187 2734.64 36.187C2644.42 36.187 2571.28 107.664 2571.28 195.836C2571.28 284.008 2644.42 355.485 2734.64 355.485Z" fill="white"/>
<path d="M326.72 253.31H0V572.608H326.72V253.31Z" fill="white"/>
<path d="M2898 253.31H2571.28V572.608H2898V253.31Z" fill="white"/>
<path d="M64.2548 195.836H0V352.292H64.2548V195.836Z" fill="white"/>
<path d="M2898 190.515H2833.74V346.971H2898V190.515Z" fill="white"/>
</g>
<defs>
<clipPath id="clip0">
<rect width="2898" height="364" fill="white"/>
</clipPath>
</defs>
</svg>
