<svg width="2701" height="364" viewBox="0 0 2701 364" fill="none" xmlns="http://www.w3.org/2000/svg">
<g clip-path="url(#clip0)">
<path d="M71.3598 355.485C161.581 355.485 234.72 284.008 234.72 195.836C234.72 107.664 161.581 36.187 71.3598 36.187C-18.8613 36.187 -92 107.664 -92 195.836C-92 284.008 -18.8613 355.485 71.3598 355.485Z" fill="white"/>
<path d="M234.72 487.462C324.941 487.462 398.08 415.985 398.08 327.813C398.08 239.641 324.941 168.164 234.72 168.164C144.499 168.164 71.3599 239.641 71.3599 327.813C71.3599 415.985 144.499 487.462 234.72 487.462Z" fill="white"/>
<path d="M1527.44 525.778C1617.66 525.778 1690.8 454.3 1690.8 366.129C1690.8 277.957 1617.66 206.479 1527.44 206.479C1437.22 206.479 1364.08 277.957 1364.08 366.129C1364.08 454.3 1437.22 525.778 1527.44 525.778Z" fill="white"/>
<path d="M1767.03 546C1842.22 546 1903.17 486.436 1903.17 412.959C1903.17 339.483 1842.22 279.918 1767.03 279.918C1691.85 279.918 1630.9 339.483 1630.9 412.959C1630.9 486.436 1691.85 546 1767.03 546Z" fill="white"/>
<path d="M993.796 541.743C1068.98 541.743 1129.93 482.178 1129.93 408.702C1129.93 335.225 1068.98 275.661 993.796 275.661C918.612 275.661 857.664 335.225 857.664 408.702C857.664 482.178 918.612 541.743 993.796 541.743Z" fill="white"/>
<path d="M1200.72 530.035C1290.95 530.035 1364.08 458.558 1364.08 370.386C1364.08 282.214 1290.95 210.737 1200.72 210.737C1110.5 210.737 1037.37 282.214 1037.37 370.386C1037.37 458.558 1110.5 530.035 1200.72 530.035Z" fill="white"/>
<path d="M1989.21 572.608C2079.43 572.608 2152.57 501.131 2152.57 412.959C2152.57 324.787 2079.43 253.31 1989.21 253.31C1898.99 253.31 1825.85 324.787 1825.85 412.959C1825.85 501.131 1898.99 572.608 1989.21 572.608Z" fill="white"/>
<path d="M780.341 572.608C870.562 572.608 943.701 501.131 943.701 412.959C943.701 324.787 870.562 253.31 780.341 253.31C690.12 253.31 616.981 324.787 616.981 412.959C616.981 501.131 690.12 572.608 780.341 572.608Z" fill="white"/>
<path d="M546.192 487.462C612.354 487.462 665.989 435.045 665.989 370.386C665.989 305.727 612.354 253.31 546.192 253.31C480.03 253.31 426.395 305.727 426.395 370.386C426.395 435.045 480.03 487.462 546.192 487.462Z" fill="white"/>
<path d="M2196.13 487.462C2262.29 487.462 2315.92 435.045 2315.92 370.386C2315.92 305.727 2262.29 253.31 2196.13 253.31C2129.97 253.31 2076.33 305.727 2076.33 370.386C2076.33 435.045 2129.97 487.462 2196.13 487.462Z" fill="white"/>
<path d="M2479.28 497.041C2569.5 497.041 2642.64 425.564 2642.64 337.392C2642.64 249.22 2569.5 177.743 2479.28 177.743C2389.06 177.743 2315.92 249.22 2315.92 337.392C2315.92 425.564 2389.06 497.041 2479.28 497.041Z" fill="white"/>
<path d="M1357.55 355.485C1402.66 355.485 1439.23 319.747 1439.23 275.661C1439.23 231.575 1402.66 195.836 1357.55 195.836C1312.44 195.836 1275.87 231.575 1275.87 275.661C1275.87 319.747 1312.44 355.485 1357.55 355.485Z" fill="white"/>
<path d="M398.078 456.597C449.204 456.597 490.649 416.093 490.649 366.129C490.649 316.165 449.204 275.661 398.078 275.661C346.953 275.661 305.508 316.165 305.508 366.129C305.508 416.093 346.953 456.597 398.078 456.597Z" fill="white"/>
<path d="M2315.92 456.597C2367.05 456.597 2408.49 416.093 2408.49 366.129C2408.49 316.165 2367.05 275.661 2315.92 275.661C2264.8 275.661 2223.35 316.165 2223.35 366.129C2223.35 416.093 2264.8 456.597 2315.92 456.597Z" fill="white"/>
<path d="M2642.64 355.485C2732.86 355.485 2806 284.008 2806 195.836C2806 107.664 2732.86 36.187 2642.64 36.187C2552.42 36.187 2479.28 107.664 2479.28 195.836C2479.28 284.008 2552.42 355.485 2642.64 355.485Z" fill="white"/>
<path d="M234.72 253.31H-92V572.608H234.72V253.31Z" fill="white"/>
<path d="M2806 253.31H2479.28V572.608H2806V253.31Z" fill="white"/>
</g>
<defs>
<clipPath id="clip0">
<rect width="2898" height="364" fill="white" transform="translate(-92)"/>
</clipPath>
</defs>
</svg>
