<svg width="2701" height="364" viewBox="0 0 2701 364" fill="none" xmlns="http://www.w3.org/2000/svg">
<g clip-path="url(#clip0)">
<path d="M64.3598 319.298C154.581 319.298 227.72 247.821 227.72 159.649C227.72 71.477 154.581 0 64.3598 0C-25.8613 0 -99 71.477 -99 159.649C-99 247.821 -25.8613 319.298 64.3598 319.298Z" fill="white"/>
<path d="M227.72 451.275C317.941 451.275 391.08 379.798 391.08 291.626C391.08 203.454 317.941 131.977 227.72 131.977C137.499 131.977 64.3599 203.454 64.3599 291.626C64.3599 379.798 137.499 451.275 227.72 451.275Z" fill="white"/>
<path d="M1520.44 489.591C1610.66 489.591 1683.8 418.113 1683.8 329.942C1683.8 241.77 1610.66 170.292 1520.44 170.292C1430.22 170.292 1357.08 241.77 1357.08 329.942C1357.08 418.113 1430.22 489.591 1520.44 489.591Z" fill="white"/>
<path d="M1760.03 509.813C1835.22 509.813 1896.17 450.249 1896.17 376.772C1896.17 303.296 1835.22 243.731 1760.03 243.731C1684.85 243.731 1623.9 303.296 1623.9 376.772C1623.9 450.249 1684.85 509.813 1760.03 509.813Z" fill="white"/>
<path d="M986.796 505.556C1061.98 505.556 1122.93 445.991 1122.93 372.515C1122.93 299.038 1061.98 239.474 986.796 239.474C911.612 239.474 850.664 299.038 850.664 372.515C850.664 445.991 911.612 505.556 986.796 505.556Z" fill="white"/>
<path d="M1193.72 493.848C1283.95 493.848 1357.08 422.371 1357.08 334.199C1357.08 246.027 1283.95 174.55 1193.72 174.55C1103.5 174.55 1030.37 246.027 1030.37 334.199C1030.37 422.371 1103.5 493.848 1193.72 493.848Z" fill="white"/>
<path d="M1982.21 536.421C2072.43 536.421 2145.57 464.944 2145.57 376.772C2145.57 288.6 2072.43 217.123 1982.21 217.123C1891.99 217.123 1818.85 288.6 1818.85 376.772C1818.85 464.944 1891.99 536.421 1982.21 536.421Z" fill="white"/>
<path d="M773.341 536.421C863.562 536.421 936.701 464.944 936.701 376.772C936.701 288.6 863.562 217.123 773.341 217.123C683.12 217.123 609.981 288.6 609.981 376.772C609.981 464.944 683.12 536.421 773.341 536.421Z" fill="white"/>
<path d="M539.192 451.275C605.354 451.275 658.989 398.858 658.989 334.199C658.989 269.54 605.354 217.123 539.192 217.123C473.03 217.123 419.395 269.54 419.395 334.199C419.395 398.858 473.03 451.275 539.192 451.275Z" fill="white"/>
<path d="M2189.13 451.275C2255.29 451.275 2308.92 398.858 2308.92 334.199C2308.92 269.54 2255.29 217.123 2189.13 217.123C2122.97 217.123 2069.33 269.54 2069.33 334.199C2069.33 398.858 2122.97 451.275 2189.13 451.275Z" fill="white"/>
<path d="M2472.28 460.854C2562.5 460.854 2635.64 389.377 2635.64 301.205C2635.64 213.033 2562.5 141.556 2472.28 141.556C2382.06 141.556 2308.92 213.033 2308.92 301.205C2308.92 389.377 2382.06 460.854 2472.28 460.854Z" fill="white"/>
<path d="M1350.55 319.298C1395.66 319.298 1432.23 283.56 1432.23 239.474C1432.23 195.388 1395.66 159.649 1350.55 159.649C1305.44 159.649 1268.87 195.388 1268.87 239.474C1268.87 283.56 1305.44 319.298 1350.55 319.298Z" fill="white"/>
<path d="M391.078 420.41C442.204 420.41 483.649 379.906 483.649 329.942C483.649 279.978 442.204 239.474 391.078 239.474C339.953 239.474 298.508 279.978 298.508 329.942C298.508 379.906 339.953 420.41 391.078 420.41Z" fill="white"/>
<path d="M2308.92 420.41C2360.05 420.41 2401.49 379.906 2401.49 329.942C2401.49 279.978 2360.05 239.474 2308.92 239.474C2257.8 239.474 2216.35 279.978 2216.35 329.942C2216.35 379.906 2257.8 420.41 2308.92 420.41Z" fill="white"/>
<path d="M2635.64 319.298C2725.86 319.298 2799 247.821 2799 159.649C2799 71.477 2725.86 0 2635.64 0C2545.42 0 2472.28 71.477 2472.28 159.649C2472.28 247.821 2545.42 319.298 2635.64 319.298Z" fill="white"/>
<path d="M227.72 217.123H-99V536.421H227.72V217.123Z" fill="white"/>
<path d="M2799 217.123H2472.28V536.421H2799V217.123Z" fill="white"/>
<rect x="1350" y="316" width="18" height="48" fill="white"/>
</g>
<defs>
<clipPath id="clip0">
<rect width="2701" height="364" fill="white"/>
</clipPath>
</defs>
</svg>
