<svg width="2701" height="364" viewBox="0 0 2701 364" fill="none" xmlns="http://www.w3.org/2000/svg">
<g clip-path="url(#clip0)">
<path d="M2636.64 44.702C2546.42 44.702 2473.28 116.179 2473.28 204.351C2473.28 292.523 2546.42 364 2636.64 364C2726.86 364 2800 292.523 2800 204.351C2800 116.179 2726.86 44.702 2636.64 44.702Z" fill="white"/>
<path d="M2473.28 -87.2751C2383.06 -87.2751 2309.92 -15.798 2309.92 72.374C2309.92 160.546 2383.06 232.023 2473.28 232.023C2563.5 232.023 2636.64 160.546 2636.64 72.374C2636.64 -15.798 2563.5 -87.2751 2473.28 -87.2751Z" fill="white"/>
<path d="M1180.56 -125.591C1090.34 -125.591 1017.2 -54.113 1017.2 34.058C1017.2 122.23 1090.34 193.708 1180.56 193.708C1270.78 193.708 1343.92 122.23 1343.92 34.058C1343.92 -54.113 1270.78 -125.591 1180.56 -125.591Z" fill="white"/>
<path d="M940.97 -145.813C865.78 -145.813 804.83 -86.249 804.83 -12.772C804.83 60.704 865.78 120.269 940.97 120.269C1016.15 120.269 1077.1 60.704 1077.1 -12.772C1077.1 -86.249 1016.15 -145.813 940.97 -145.813Z" fill="white"/>
<path d="M1714.2 -141.556C1639.02 -141.556 1578.07 -81.991 1578.07 -8.51498C1578.07 64.962 1639.02 124.526 1714.2 124.526C1789.39 124.526 1850.34 64.962 1850.34 -8.51498C1850.34 -81.991 1789.39 -141.556 1714.2 -141.556Z" fill="white"/>
<path d="M1507.28 -129.848C1417.05 -129.848 1343.92 -58.371 1343.92 29.801C1343.92 117.973 1417.05 189.45 1507.28 189.45C1597.5 189.45 1670.63 117.973 1670.63 29.801C1670.63 -58.371 1597.5 -129.848 1507.28 -129.848Z" fill="white"/>
<path d="M718.79 -172.421C628.57 -172.421 555.43 -100.944 555.43 -12.7721C555.43 75.3999 628.57 146.877 718.79 146.877C809.01 146.877 882.15 75.3999 882.15 -12.7721C882.15 -100.944 809.01 -172.421 718.79 -172.421Z" fill="white"/>
<path d="M1927.66 -172.421C1837.44 -172.421 1764.3 -100.944 1764.3 -12.7721C1764.3 75.3999 1837.44 146.877 1927.66 146.877C2017.88 146.877 2091.02 75.3999 2091.02 -12.7721C2091.02 -100.944 2017.88 -172.421 1927.66 -172.421Z" fill="white"/>
<path d="M2161.81 -87.2751C2095.65 -87.2751 2042.01 -34.858 2042.01 29.801C2042.01 94.46 2095.65 146.877 2161.81 146.877C2227.97 146.877 2281.6 94.46 2281.6 29.801C2281.6 -34.858 2227.97 -87.2751 2161.81 -87.2751Z" fill="white"/>
<path d="M511.87 -87.2751C445.71 -87.2751 392.08 -34.858 392.08 29.801C392.08 94.46 445.71 146.877 511.87 146.877C578.03 146.877 631.67 94.46 631.67 29.801C631.67 -34.858 578.03 -87.2751 511.87 -87.2751Z" fill="white"/>
<path d="M228.72 -96.854C138.5 -96.854 65.3601 -25.377 65.3601 62.795C65.3601 150.967 138.5 222.444 228.72 222.444C318.94 222.444 392.08 150.967 392.08 62.795C392.08 -25.377 318.94 -96.854 228.72 -96.854Z" fill="white"/>
<path d="M1350.45 44.702C1305.34 44.702 1268.77 80.4399 1268.77 124.526C1268.77 168.612 1305.34 204.351 1350.45 204.351C1395.56 204.351 1432.13 168.612 1432.13 124.526C1432.13 80.4399 1395.56 44.702 1350.45 44.702Z" fill="white"/>
<path d="M2309.92 -56.41C2258.8 -56.41 2217.35 -15.906 2217.35 34.058C2217.35 84.022 2258.8 124.526 2309.92 124.526C2361.05 124.526 2402.49 84.022 2402.49 34.058C2402.49 -15.906 2361.05 -56.41 2309.92 -56.41Z" fill="white"/>
<path d="M392.08 -56.41C340.95 -56.41 299.51 -15.906 299.51 34.058C299.51 84.022 340.95 124.526 392.08 124.526C443.2 124.526 484.65 84.022 484.65 34.058C484.65 -15.906 443.2 -56.41 392.08 -56.41Z" fill="white"/>
<path d="M65.3601 44.702C-24.8599 44.702 -98 116.179 -98 204.351C-98 292.523 -24.8599 364 65.3601 364C155.58 364 228.72 292.523 228.72 204.351C228.72 116.179 155.58 44.702 65.3601 44.702Z" fill="white"/>
<path d="M2473.28 146.877L2800 146.877V-172.421L2473.28 -172.421V146.877Z" fill="white"/>
<path d="M-98 146.877L228.72 146.877L228.72 -172.421L-98 -172.421L-98 146.877Z" fill="white"/>
<rect x="1351" y="48" width="18" height="48" transform="rotate(-180 1351 48)" fill="white"/>
</g>
<defs>
<clipPath id="clip0">
<rect width="2701" height="364" fill="white" transform="translate(2701 364) rotate(-180)"/>
</clipPath>
</defs>
</svg>
