<svg width="1910" height="938" viewBox="0 0 1910 938" fill="none" xmlns="http://www.w3.org/2000/svg">
<rect width="1910" height="938" transform="matrix(-1 0 0 1 1908 0)" fill="#080055"/>
<path d="M1906.83 934.887V32.8867C1787.53 19.2127 1719.74 19.8049 1596.32 45.3867C1380.51 87.5974 1229.43 201.51 907.324 560.387C658.199 756.476 525.252 727.354 287.824 681.887C165.069 644.771 103.585 644.018 -2 653.677V934.887H1906.83Z" fill="#3120C1"/>
<path d="M1693 926L1631.5 938H1907.5V835L1898 841.5L1909.5 779.5L1869 825.5L1875 741.5L1836 815.5L1820 733L1802 815.5L1766 739L1771.5 825.5L1715.5 761.5L1743 841.5L1671 793L1719 865L1639 838L1702 893L1616 888L1693 926Z" fill="url(#paint0_linear)"/>
<path d="M865.5 725.5L796 798.5L799.5 883L838.5 830L939 758.5L903 725.5L862.5 724L838.5 693.5L840 646L862.5 648.5" stroke="#F1EAFF" stroke-width="3"/>
<path d="M1168 488L1212.5 447L1262 477L1397 503.5" stroke="#CBBEFF" stroke-width="2"/>
<path d="M1600.5 327.5L1496 330M1496 330L1518.5 394.5M1496 330L1467.5 304.5L1407 267" stroke="#D3C8FF" stroke-width="3"/>
<path d="M1802.5 189L1780 210L1769.5 258M1802.5 189L1861 195.5L1857 223M1802.5 189L1806.5 157L1772 154.5M1769.5 258L1715.5 239M1769.5 258L1785.5 318.5M1715.5 239L1679.5 205L1649 202.5M1715.5 239L1687.5 268" stroke="#D7D8FF" stroke-width="2"/>
<path d="M145 771L257 810.5L303.5 847.5L313 887M501 819.5L547 777L602.5 839L579 915" stroke="#EFE0FF" stroke-width="3"/>
<path d="M253.802 796.039C253.946 795.073 255.248 794.866 255.685 795.739L260.11 804.569C260.306 804.959 260.731 805.177 261.162 805.108L270.737 803.581C271.687 803.43 272.282 804.576 271.611 805.266L264.747 812.322C264.45 812.628 264.379 813.087 264.57 813.468L269.03 822.368C269.465 823.236 268.531 824.152 267.671 823.701L259.065 819.189C258.673 818.983 258.192 819.06 257.884 819.377L251.108 826.343C250.431 827.039 249.259 826.458 249.402 825.498L250.873 815.652C250.936 815.231 250.725 814.816 250.348 814.619L241.629 810.047C240.777 809.6 240.986 808.326 241.936 808.174L251.512 806.647C251.942 806.578 252.279 806.239 252.343 805.807L253.802 796.039Z" fill="#FFF2C2"/>
<path d="M544.828 766.027C544.997 765.069 546.295 764.891 546.715 765.769L549.977 772.587C550.165 772.979 550.584 773.205 551.015 773.146L558.441 772.129C559.398 771.999 559.966 773.165 559.273 773.838L553.85 779.103C553.542 779.402 553.459 779.865 553.645 780.252L556.924 787.105C557.342 787.98 556.395 788.878 555.544 788.415L548.961 784.83C548.576 784.621 548.1 784.686 547.786 784.991L542.408 790.212C541.712 790.888 540.558 790.277 540.726 789.321L542.044 781.839C542.118 781.416 541.914 780.993 541.537 780.788L534.899 777.173C534.051 776.711 534.285 775.435 535.242 775.304L542.668 774.288C543.099 774.229 543.442 773.899 543.517 773.47L544.828 766.027Z" fill="#FFF0C1"/>
<path d="M982.828 606.175C982.997 605.217 984.295 605.04 984.715 605.917L987.977 612.735C988.165 613.127 988.584 613.353 989.015 613.294L996.441 612.278C997.398 612.147 997.966 613.314 997.273 613.986L991.85 619.251C991.542 619.55 991.459 620.013 991.645 620.4L994.924 627.253C995.342 628.128 994.395 629.027 993.544 628.563L986.961 624.978C986.576 624.769 986.1 624.834 985.786 625.139L980.408 630.361C979.712 631.036 978.558 630.425 978.726 629.47L980.044 621.988C980.118 621.565 979.914 621.142 979.537 620.936L972.899 617.321C972.051 616.86 972.285 615.583 973.242 615.452L980.668 614.436C981.099 614.377 981.442 614.047 981.517 613.619L982.828 606.175Z" fill="#F1C5C1"/>
<path d="M1164.6 483.302C1164.78 482.362 1166.05 482.188 1166.48 483.045L1168.05 486.198C1168.24 486.583 1168.65 486.802 1169.08 486.744L1172.61 486.261C1173.57 486.129 1174.14 487.322 1173.42 487.986L1170.9 490.319C1170.57 490.621 1170.48 491.101 1170.68 491.498L1172.2 494.553C1172.63 495.417 1171.71 496.328 1170.85 495.887L1167.63 494.236C1167.26 494.044 1166.81 494.106 1166.5 494.391L1163.85 496.846C1163.14 497.501 1162 496.871 1162.18 495.923L1162.83 492.573C1162.91 492.138 1162.7 491.699 1162.3 491.496L1159.25 489.926C1158.38 489.479 1158.6 488.178 1159.57 488.046L1163.09 487.563C1163.52 487.505 1163.86 487.182 1163.94 486.76L1164.6 483.302Z" fill="#E4B8BE"/>
<path d="M1210.32 437.102C1210.5 436.156 1211.78 435.981 1212.2 436.844L1215.59 443.73C1215.78 444.117 1216.2 444.338 1216.62 444.28L1224.34 443.224C1225.3 443.092 1225.87 444.278 1225.16 444.944L1219.56 450.195C1219.24 450.496 1219.15 450.971 1219.34 451.365L1222.7 458.19C1223.13 459.058 1222.2 459.965 1221.34 459.518L1214.44 455.913C1214.06 455.717 1213.6 455.78 1213.29 456.07L1207.61 461.396C1206.91 462.057 1205.77 461.433 1205.95 460.483L1207.35 453.007C1207.43 452.575 1207.22 452.14 1206.83 451.937L1200.02 448.384C1199.16 447.932 1199.39 446.638 1200.35 446.506L1208.06 445.451C1208.49 445.392 1208.83 445.067 1208.91 444.644L1210.32 437.102Z" fill="#D6ABC3"/>
<path d="M1260.52 471.332C1260.7 470.403 1261.96 470.231 1262.39 471.076L1264.23 474.69C1264.42 475.069 1264.83 475.285 1265.26 475.227L1269.38 474.663C1270.35 474.529 1270.91 475.739 1270.18 476.398L1267.27 479.017C1266.93 479.32 1266.84 479.811 1267.04 480.215L1268.79 483.648C1269.23 484.506 1268.32 485.425 1267.46 484.998L1263.65 483.112C1263.28 482.931 1262.84 482.991 1262.54 483.264L1259.38 486.104C1258.66 486.747 1257.54 486.106 1257.73 485.162L1258.49 481.385C1258.58 480.941 1258.36 480.492 1257.95 480.291L1254.44 478.552C1253.56 478.115 1253.77 476.799 1254.75 476.665L1258.87 476.101C1259.29 476.043 1259.63 475.725 1259.71 475.308L1260.52 471.332Z" fill="#C59AC3"/>
<path d="M1392.91 497.846C1393.05 496.882 1394.35 496.663 1394.79 497.529L1396.58 500.985C1396.78 501.371 1397.2 501.585 1397.63 501.512L1401.44 500.87C1402.39 500.709 1403 501.856 1402.33 502.55L1399.6 505.374C1399.31 505.683 1399.24 506.146 1399.44 506.527L1401.24 510.027C1401.69 510.889 1400.77 511.816 1399.9 511.377L1396.47 509.639C1396.08 509.44 1395.61 509.521 1395.3 509.837L1392.63 512.603C1391.96 513.302 1390.78 512.728 1390.92 511.767L1391.48 507.869C1391.54 507.445 1391.32 507.029 1390.94 506.835L1387.44 505.061C1386.58 504.624 1386.78 503.343 1387.73 503.183L1391.54 502.54C1391.97 502.467 1392.3 502.126 1392.36 501.695L1392.91 497.846Z" fill="#ECBCC5"/>
<path d="M1312.26 216.948C1312.77 216.111 1314.05 216.42 1314.12 217.394L1314.34 220.612C1314.37 221.048 1314.68 221.413 1315.11 221.515L1318.22 222.265C1319.16 222.49 1319.26 223.777 1318.38 224.156L1315.35 225.455C1314.96 225.622 1314.72 226.019 1314.75 226.443L1314.98 229.743C1315.05 230.712 1313.83 231.199 1313.21 230.452L1311.19 228.019C1310.91 227.678 1310.44 227.564 1310.03 227.739L1307.12 228.985C1306.23 229.368 1305.37 228.382 1305.87 227.55L1307.58 224.717C1307.8 224.353 1307.77 223.89 1307.49 223.562L1305.39 221.028C1304.77 220.288 1305.46 219.192 1306.39 219.417L1309.51 220.167C1309.93 220.269 1310.37 220.085 1310.6 219.711L1312.26 216.948Z" fill="#FFD49E"/>
<path d="M1409.26 261.948C1409.77 261.111 1411.05 261.42 1411.12 262.394L1411.34 265.612C1411.37 266.048 1411.68 266.413 1412.11 266.515L1415.22 267.265C1416.16 267.49 1416.26 268.777 1415.38 269.156L1412.35 270.455C1411.96 270.622 1411.72 271.019 1411.75 271.443L1411.98 274.743C1412.05 275.712 1410.83 276.199 1410.21 275.452L1408.19 273.019C1407.91 272.678 1407.44 272.564 1407.03 272.739L1404.12 273.985C1403.23 274.368 1402.37 273.382 1402.87 272.55L1404.58 269.717C1404.8 269.353 1404.77 268.89 1404.49 268.562L1402.39 266.028C1401.77 265.288 1402.46 264.192 1403.39 264.417L1406.51 265.167C1406.93 265.269 1407.37 265.085 1407.6 264.711L1409.26 261.948Z" fill="#FAD0BE"/>
<path d="M1468.8 299.915C1469.31 299.072 1470.6 299.382 1470.66 300.362L1470.86 303.361C1470.88 303.798 1471.19 304.166 1471.62 304.268L1474.52 304.965C1475.45 305.19 1475.56 306.469 1474.68 306.854L1471.83 308.104C1471.44 308.273 1471.2 308.666 1471.23 309.086L1471.44 312.212C1471.5 313.183 1470.28 313.664 1469.66 312.911L1467.82 310.657C1467.54 310.31 1467.06 310.194 1466.64 310.374L1463.98 311.542C1463.09 311.932 1462.22 310.949 1462.72 310.114L1464.32 307.423C1464.54 307.061 1464.51 306.603 1464.24 306.277L1462.27 303.864C1461.66 303.122 1462.34 302.034 1463.27 302.259L1466.17 302.956C1466.6 303.059 1467.04 302.872 1467.26 302.496L1468.8 299.915Z" fill="#F4C4BD"/>
<path d="M1500.54 318.733C1501.09 317.971 1502.29 318.323 1502.35 319.262L1502.75 326.354C1502.77 326.776 1503.06 327.138 1503.47 327.257L1510.66 329.364C1511.61 329.642 1511.62 330.985 1510.68 331.278L1503.91 333.379C1503.47 333.515 1503.18 333.932 1503.21 334.391L1503.6 341.216C1503.65 342.175 1502.45 342.652 1501.83 341.917L1496.99 336.167C1496.73 335.859 1496.31 335.737 1495.93 335.856L1488.75 338.085C1487.83 338.369 1487.08 337.322 1487.64 336.543L1491.65 331.006C1491.92 330.634 1491.9 330.127 1491.61 329.775L1487.04 324.356C1486.4 323.598 1487.14 322.473 1488.09 322.752L1495.28 324.859C1495.69 324.978 1496.12 324.828 1496.37 324.486L1500.54 318.733Z" fill="#EAB5BB"/>
<path d="M1678.99 193.222C1679.28 192.325 1680.53 192.282 1680.88 193.157L1683.49 199.764C1683.64 200.157 1684.03 200.41 1684.45 200.396L1691.94 200.139C1692.93 200.105 1693.36 201.377 1692.56 201.952L1686.79 206.07C1686.42 206.337 1686.27 206.824 1686.44 207.251L1688.95 213.61C1689.31 214.504 1688.32 215.332 1687.5 214.829L1681.09 210.889C1680.75 210.678 1680.32 210.693 1679.99 210.927L1673.87 215.296C1673.09 215.854 1672.05 215.095 1672.34 214.179L1674.41 207.664C1674.55 207.226 1674.37 206.75 1673.98 206.51L1667.94 202.796C1667.1 202.277 1667.44 200.979 1668.43 200.945L1675.92 200.688C1676.35 200.674 1676.72 200.395 1676.84 199.991L1678.99 193.222Z" fill="#D791B8"/>
<path d="M1768.99 246.222C1769.28 245.325 1770.53 245.282 1770.88 246.157L1773.49 252.764C1773.64 253.157 1774.03 253.41 1774.45 253.396L1781.94 253.139C1782.93 253.105 1783.36 254.377 1782.56 254.952L1776.79 259.07C1776.42 259.337 1776.27 259.824 1776.44 260.251L1778.95 266.61C1779.31 267.504 1778.32 268.332 1777.5 267.829L1771.09 263.889C1770.75 263.678 1770.32 263.693 1769.99 263.927L1763.87 268.296C1763.09 268.854 1762.05 268.095 1762.34 267.179L1764.41 260.664C1764.55 260.226 1764.37 259.75 1763.98 259.51L1757.94 255.796C1757.1 255.277 1757.44 253.979 1758.43 253.945L1765.92 253.688C1766.35 253.674 1766.72 253.395 1766.84 252.991L1768.99 246.222Z" fill="#DA96B7"/>
<path d="M1772.99 145.222C1773.28 144.325 1774.53 144.282 1774.88 145.157L1777.49 151.764C1777.64 152.157 1778.03 152.41 1778.45 152.396L1785.94 152.139C1786.93 152.105 1787.36 153.377 1786.56 153.952L1780.79 158.07C1780.42 158.337 1780.27 158.824 1780.44 159.251L1782.95 165.61C1783.31 166.504 1782.32 167.332 1781.5 166.829L1775.09 162.889C1774.75 162.678 1774.32 162.693 1773.99 162.927L1767.87 167.296C1767.09 167.854 1766.05 167.095 1766.34 166.179L1768.41 159.664C1768.55 159.226 1768.37 158.75 1767.98 158.51L1761.94 154.796C1761.1 154.277 1761.44 152.979 1762.43 152.945L1769.92 152.688C1770.35 152.674 1770.72 152.395 1770.84 151.991L1772.99 145.222Z" fill="#EAB2BD"/>
<path d="M1800.99 177.222C1801.28 176.325 1802.53 176.282 1802.88 177.157L1805.49 183.764C1805.64 184.157 1806.03 184.41 1806.45 184.396L1813.94 184.139C1814.93 184.105 1815.36 185.377 1814.56 185.952L1808.79 190.07C1808.42 190.337 1808.27 190.824 1808.44 191.251L1810.95 197.61C1811.31 198.504 1810.32 199.332 1809.5 198.829L1803.09 194.889C1802.75 194.678 1802.32 194.693 1801.99 194.927L1795.87 199.296C1795.09 199.854 1794.05 199.095 1794.34 198.179L1796.41 191.664C1796.55 191.226 1796.37 190.75 1795.98 190.51L1789.94 186.796C1789.1 186.277 1789.44 184.979 1790.43 184.945L1797.92 184.688C1798.35 184.674 1798.72 184.395 1798.84 183.991L1800.99 177.222Z" fill="#E8AFBF"/>
<path d="M1715.85 233.276C1716.12 232.342 1717.42 232.298 1717.75 233.211L1718.61 235.596C1718.76 236.004 1719.15 236.27 1719.59 236.255L1722.12 236.169C1723.09 236.135 1723.53 237.357 1722.77 237.954L1720.76 239.531C1720.43 239.798 1720.29 240.252 1720.44 240.658L1721.31 243.06C1721.64 243.972 1720.61 244.772 1719.81 244.227L1717.72 242.808C1717.36 242.563 1716.88 242.58 1716.54 242.848L1714.55 244.407C1713.79 245.005 1712.71 244.278 1712.98 243.346L1713.68 240.89C1713.8 240.475 1713.63 240.031 1713.28 239.788L1711.17 238.352C1710.37 237.809 1710.73 236.559 1711.69 236.526L1714.23 236.439C1714.66 236.424 1715.03 236.131 1715.15 235.714L1715.85 233.276Z" fill="#D68BB4"/>
<path d="M1777.85 204.276C1778.12 203.342 1779.42 203.298 1779.75 204.211L1780.61 206.596C1780.76 207.004 1781.15 207.27 1781.59 207.255L1784.12 207.169C1785.09 207.135 1785.53 208.357 1784.77 208.954L1782.76 210.531C1782.43 210.798 1782.29 211.252 1782.44 211.658L1783.31 214.06C1783.64 214.972 1782.61 215.772 1781.81 215.227L1779.72 213.808C1779.36 213.563 1778.88 213.58 1778.54 213.848L1776.55 215.407C1775.79 216.005 1774.71 215.278 1774.98 214.346L1775.68 211.89C1775.8 211.475 1775.63 211.031 1775.28 210.788L1773.17 209.352C1772.37 208.809 1772.73 207.559 1773.69 207.526L1776.23 207.439C1776.66 207.424 1777.03 207.131 1777.15 206.714L1777.85 204.276Z" fill="#DDA6C0"/>
<path d="M1803.85 151.276C1804.12 150.342 1805.42 150.298 1805.75 151.211L1806.61 153.596C1806.76 154.004 1807.15 154.27 1807.59 154.255L1810.12 154.169C1811.09 154.135 1811.53 155.357 1810.77 155.954L1808.76 157.531C1808.43 157.798 1808.29 158.252 1808.44 158.658L1809.31 161.06C1809.64 161.972 1808.61 162.772 1807.81 162.227L1805.72 160.808C1805.36 160.563 1804.88 160.58 1804.54 160.848L1802.55 162.407C1801.79 163.005 1800.71 162.278 1800.98 161.346L1801.68 158.89C1801.8 158.475 1801.63 158.031 1801.28 157.788L1799.17 156.352C1798.37 155.809 1798.73 154.559 1799.69 154.526L1802.23 154.439C1802.66 154.424 1803.03 154.131 1803.15 153.714L1803.85 151.276Z" fill="#E7B8BB"/>
<path d="M1860.27 187.787C1860.41 187.32 1861.06 187.298 1861.23 187.754L1862.74 191.938C1862.81 192.142 1863.01 192.275 1863.22 192.268L1867.65 192.116C1868.13 192.099 1868.36 192.71 1867.98 193.009L1864.48 195.755C1864.31 195.888 1864.25 196.115 1864.32 196.318L1865.83 200.51C1866 200.966 1865.48 201.366 1865.08 201.094L1861.42 198.602C1861.24 198.48 1861 198.488 1860.83 198.623L1857.34 201.359C1856.96 201.658 1856.42 201.295 1856.55 200.828L1857.78 196.542C1857.84 196.335 1857.75 196.113 1857.58 195.991L1853.9 193.492C1853.5 193.22 1853.68 192.595 1854.16 192.578L1858.59 192.427C1858.81 192.419 1858.99 192.273 1859.05 192.064L1860.27 187.787Z" fill="#ECC4BF"/>
<path d="M1856.32 217.687C1856.46 217.229 1857.1 217.207 1857.27 217.655L1858.53 221.03C1858.61 221.231 1858.8 221.361 1859.02 221.354L1862.7 221.228C1863.19 221.211 1863.41 221.833 1863.02 222.127L1860.14 224.293C1859.97 224.427 1859.9 224.661 1859.97 224.869L1861.22 228.194C1861.39 228.646 1860.89 229.052 1860.48 228.788L1857.39 226.777C1857.22 226.662 1856.99 226.67 1856.82 226.796L1853.87 229.015C1853.49 229.305 1852.95 228.935 1853.09 228.472L1854.11 225.07C1854.17 224.857 1854.09 224.628 1853.9 224.507L1850.88 222.543C1850.47 222.276 1850.65 221.641 1851.14 221.624L1854.82 221.498C1855.04 221.49 1855.22 221.347 1855.29 221.141L1856.32 217.687Z" fill="#E7C3C1"/>
<path d="M1784.85 313.276C1785.12 312.342 1786.42 312.298 1786.75 313.211L1787.61 315.596C1787.76 316.004 1788.15 316.27 1788.59 316.255L1791.12 316.169C1792.09 316.135 1792.53 317.357 1791.77 317.954L1789.76 319.531C1789.43 319.798 1789.29 320.252 1789.44 320.658L1790.31 323.06C1790.64 323.972 1789.61 324.772 1788.81 324.227L1786.72 322.808C1786.36 322.563 1785.88 322.58 1785.54 322.848L1783.55 324.407C1782.79 325.005 1781.71 324.278 1781.98 323.346L1782.68 320.89C1782.8 320.475 1782.63 320.031 1782.28 319.788L1780.17 318.352C1779.37 317.809 1779.73 316.559 1780.69 316.526L1783.23 316.439C1783.66 316.424 1784.03 316.131 1784.15 315.714L1784.85 313.276Z" fill="#E8B2B7"/>
<path d="M1685.85 263.276C1686.12 262.342 1687.42 262.298 1687.75 263.211L1688.61 265.596C1688.76 266.004 1689.15 266.27 1689.59 266.255L1692.12 266.169C1693.09 266.135 1693.53 267.357 1692.77 267.954L1690.76 269.531C1690.43 269.798 1690.29 270.252 1690.44 270.658L1691.31 273.06C1691.64 273.972 1690.61 274.772 1689.81 274.227L1687.72 272.808C1687.36 272.563 1686.88 272.58 1686.54 272.848L1684.55 274.407C1683.79 275.005 1682.71 274.278 1682.98 273.346L1683.68 270.89C1683.8 270.475 1683.63 270.031 1683.28 269.788L1681.17 268.352C1680.37 267.809 1680.73 266.559 1681.69 266.526L1684.23 266.439C1684.66 266.424 1685.03 266.131 1685.15 265.714L1685.85 263.276Z" fill="#D68EB1"/>
<path d="M1521.71 383.733C1522.26 382.971 1523.46 383.323 1523.51 384.262L1523.92 391.354C1523.94 391.776 1524.23 392.138 1524.64 392.257L1531.83 394.364C1532.78 394.642 1532.79 395.985 1531.85 396.278L1525.08 398.379C1524.64 398.515 1524.35 398.932 1524.38 399.391L1524.76 406.216C1524.82 407.175 1523.62 407.652 1523 406.917L1518.16 401.167C1517.9 400.859 1517.48 400.737 1517.1 400.856L1509.92 403.085C1509 403.369 1508.25 402.322 1508.81 401.543L1512.82 396.006C1513.09 395.634 1513.07 395.127 1512.77 394.775L1508.21 389.356C1507.57 388.598 1508.3 387.473 1509.26 387.752L1516.45 389.859C1516.86 389.978 1517.29 389.828 1517.54 389.486L1521.71 383.733Z" fill="#DFA3B9"/>
<path d="M1600.52 322.319C1600.62 321.851 1601.26 321.78 1601.46 322.214L1603.02 325.563C1603.11 325.757 1603.31 325.872 1603.53 325.849L1607.28 325.431C1607.77 325.378 1608.04 325.981 1607.67 326.304L1604.9 328.742C1604.73 328.889 1604.68 329.128 1604.77 329.329L1606.31 332.628C1606.51 333.065 1606.04 333.509 1605.62 333.278L1602.3 331.464C1602.11 331.364 1601.89 331.389 1601.73 331.528L1598.89 334.025C1598.52 334.344 1597.97 334.014 1598.07 333.543L1598.84 329.987C1598.89 329.77 1598.79 329.548 1598.6 329.442L1595.35 327.671C1594.93 327.437 1595.05 326.79 1595.54 326.736L1599.3 326.318C1599.51 326.295 1599.68 326.138 1599.73 325.928L1600.52 322.319Z" fill="#E1B2C0"/>
<path d="M1572.84 374.723C1572.54 374.347 1572.89 373.802 1573.36 373.925L1577.8 375.1C1578.01 375.155 1578.23 375.07 1578.35 374.889L1580.86 371.018C1581.12 370.611 1581.75 370.781 1581.77 371.266L1582 375.853C1582.01 376.07 1582.16 376.256 1582.37 376.312L1586.8 377.484C1587.27 377.607 1587.3 378.258 1586.85 378.433L1582.55 380.104C1582.35 380.182 1582.22 380.38 1582.24 380.595L1582.46 385.2C1582.49 385.683 1581.88 385.915 1581.57 385.539L1578.7 381.976C1578.56 381.807 1578.33 381.745 1578.13 381.824L1573.85 383.489C1573.4 383.664 1572.98 383.158 1573.25 382.751L1575.76 378.88C1575.88 378.699 1575.86 378.462 1575.73 378.294L1572.84 374.723Z" fill="#FB9AA7"/>
<path d="M1573.84 265.723C1573.54 265.347 1573.89 264.802 1574.36 264.925L1578.8 266.1C1579.01 266.155 1579.23 266.07 1579.35 265.889L1581.86 262.018C1582.12 261.611 1582.75 261.781 1582.77 262.266L1583 266.853C1583.01 267.07 1583.16 267.256 1583.37 267.312L1587.8 268.484C1588.27 268.607 1588.3 269.258 1587.85 269.433L1583.55 271.104C1583.35 271.182 1583.22 271.38 1583.24 271.595L1583.46 276.2C1583.49 276.683 1582.88 276.915 1582.57 276.539L1579.7 272.976C1579.56 272.807 1579.33 272.745 1579.13 272.824L1574.85 274.489C1574.4 274.664 1573.98 274.158 1574.25 273.751L1576.76 269.88C1576.88 269.699 1576.86 269.462 1576.73 269.294L1573.84 265.723Z" fill="#F197AA"/>
<path d="M1648.69 145.251C1648.23 145.408 1647.84 144.889 1648.12 144.493L1650.74 140.727C1650.87 140.549 1650.86 140.313 1650.73 140.14L1647.96 136.456C1647.66 136.069 1648.04 135.534 1648.5 135.678L1652.89 137.036C1653.1 137.1 1653.32 137.022 1653.45 136.844L1656.06 133.087C1656.34 132.69 1656.96 132.879 1656.97 133.362L1657.07 137.972C1657.08 138.188 1657.22 138.376 1657.43 138.439L1661.83 139.803C1662.29 139.946 1662.3 140.597 1661.84 140.754L1657.51 142.235C1657.31 142.306 1657.17 142.501 1657.17 142.719L1657.27 147.311C1657.28 147.796 1656.66 148.01 1656.37 147.622L1653.6 143.938C1653.47 143.766 1653.24 143.696 1653.03 143.766L1648.69 145.251Z" fill="#FC9D8C"/>
<path d="M1645.5 208.797C1645.1 209.079 1644.58 208.696 1644.73 208.237L1646.14 203.871C1646.21 203.666 1646.14 203.44 1645.96 203.313L1642.24 200.595C1641.84 200.309 1642.05 199.688 1642.53 199.691L1647.13 199.716C1647.34 199.717 1647.54 199.577 1647.6 199.37L1649.02 195.015C1649.17 194.555 1649.82 194.554 1649.97 195.014L1651.4 199.397C1651.47 199.602 1651.66 199.741 1651.87 199.742L1656.48 199.767C1656.97 199.77 1657.17 200.39 1656.77 200.673L1653.06 203.348C1652.88 203.476 1652.81 203.703 1652.88 203.91L1654.3 208.275C1654.45 208.736 1653.93 209.12 1653.53 208.834L1649.81 206.116C1649.63 205.989 1649.4 205.988 1649.22 206.114L1645.5 208.797Z" fill="#D898B9"/>
<path d="M599.828 826.175C599.997 825.217 601.295 825.04 601.715 825.917L604.977 832.735C605.165 833.127 605.584 833.353 606.015 833.294L613.441 832.278C614.398 832.147 614.966 833.314 614.273 833.986L608.85 839.251C608.542 839.55 608.459 840.013 608.645 840.4L611.924 847.253C612.342 848.128 611.395 849.027 610.544 848.563L603.961 844.978C603.576 844.769 603.1 844.834 602.786 845.139L597.408 850.361C596.712 851.036 595.558 850.425 595.726 849.47L597.044 841.988C597.118 841.565 596.914 841.142 596.537 840.936L589.899 837.321C589.051 836.86 589.285 835.583 590.242 835.452L597.668 834.436C598.099 834.377 598.442 834.047 598.517 833.619L599.828 826.175Z" fill="#FDF1BE"/>
<path d="M793.474 872.331C793.26 871.395 794.36 870.725 795.094 871.344L801.009 876.336C801.338 876.614 801.807 876.65 802.174 876.426L808.902 872.327C809.735 871.819 810.727 872.683 810.34 873.578L807.263 880.683C807.088 881.088 807.199 881.56 807.536 881.845L813.388 886.783C814.126 887.407 813.639 888.611 812.675 888.545L804.816 888.013C804.393 887.984 803.999 888.224 803.831 888.613L800.701 895.842C800.317 896.729 799.024 896.609 798.808 895.667L797.102 888.203C797.004 887.773 796.635 887.458 796.195 887.428L788.47 886.904C787.496 886.839 787.184 885.56 788.017 885.053L794.744 880.953C795.112 880.73 795.295 880.296 795.199 879.877L793.474 872.331Z" fill="#FFF8B9"/>
<path d="M835.631 826.802C835.477 825.862 836.599 825.259 837.297 825.906L839.914 828.328C840.227 828.618 840.691 828.677 841.067 828.475L844.258 826.758C845.123 826.293 846.07 827.223 845.621 828.096L844.048 831.158C843.843 831.557 843.928 832.044 844.258 832.349L846.757 834.662C847.464 835.317 846.927 836.495 845.968 836.39L842.289 835.987C841.877 835.942 841.48 836.155 841.29 836.524L839.598 839.816C839.158 840.674 837.878 840.472 837.722 839.521L837.17 836.161C837.097 835.718 836.738 835.378 836.292 835.329L832.87 834.954C831.894 834.847 831.64 833.544 832.505 833.079L835.697 831.363C836.073 831.161 836.279 830.742 836.21 830.32L835.631 826.802Z" fill="#FFF7B9"/>
<path d="M792.437 794.866C792.287 793.929 793.403 793.329 794.101 793.971L796.596 796.263C796.909 796.551 797.371 796.609 797.746 796.408L800.782 794.775C801.65 794.308 802.598 795.244 802.143 796.117L800.65 798.984C800.441 799.385 800.527 799.876 800.86 800.182L803.211 802.342C803.92 802.994 803.389 804.173 802.431 804.073L798.903 803.706C798.495 803.664 798.102 803.875 797.912 804.239L796.273 807.385C795.828 808.239 794.552 808.032 794.399 807.082L793.893 803.929C793.821 803.482 793.459 803.14 793.009 803.093L789.794 802.758C788.815 802.657 788.557 801.35 789.424 800.883L792.461 799.25C792.836 799.048 793.042 798.631 792.974 798.211L792.437 794.866Z" fill="#FFF6B9"/>
<path d="M900.144 721.609C899.886 720.696 900.925 719.971 901.693 720.528L904.436 722.516C904.781 722.766 905.246 722.77 905.596 722.526L908.423 720.553C909.23 719.989 910.28 720.809 909.929 721.729L908.778 724.749C908.617 725.171 908.759 725.649 909.125 725.915L911.711 727.789C912.491 728.354 912.099 729.586 911.136 729.598L907.589 729.642C907.179 729.647 906.813 729.902 906.667 730.286L905.403 733.6C905.06 734.5 903.768 734.443 903.506 733.516L902.639 730.443C902.516 730.008 902.116 729.709 901.664 729.715L898.432 729.755C897.448 729.767 897.04 728.498 897.848 727.935L900.675 725.961C901.024 725.718 901.18 725.279 901.065 724.87L900.144 721.609Z" fill="#E9B4B9"/>
<path d="M931.51 750.041C931.233 749.117 932.296 748.375 933.068 748.954L938.399 752.953C938.744 753.213 939.217 753.221 939.571 752.974L945.074 749.133C945.87 748.576 946.912 749.368 946.589 750.285L944.377 756.565C944.232 756.976 944.371 757.435 944.72 757.697L950.023 761.675C950.797 762.256 950.377 763.488 949.409 763.475L942.696 763.386C942.267 763.38 941.882 763.649 941.739 764.054L939.509 770.387C939.187 771.299 937.886 771.269 937.608 770.342L935.701 763.993C935.575 763.575 935.193 763.287 934.756 763.281L928.099 763.192C927.127 763.18 926.743 761.929 927.54 761.373L933.042 757.532C933.396 757.284 933.552 756.838 933.427 756.424L931.51 750.041Z" fill="#F7C7BB"/>
<path d="M860.534 721.375C860.272 720.46 861.316 719.732 862.085 720.293L865.102 722.495C865.447 722.747 865.914 722.751 866.264 722.507L869.383 720.33C870.189 719.768 871.237 720.582 870.892 721.501L869.621 724.886C869.463 725.306 869.604 725.78 869.967 726.045L872.852 728.15C873.631 728.719 873.234 729.951 872.27 729.958L868.39 729.987C867.976 729.99 867.606 730.248 867.461 730.635L866.096 734.268C865.757 735.17 864.464 735.118 864.199 734.191L863.217 730.757C863.093 730.326 862.697 730.029 862.248 730.032L858.633 730.059C857.651 730.066 857.248 728.801 858.053 728.239L861.172 726.062C861.522 725.817 861.678 725.378 861.561 724.967L860.534 721.375Z" fill="#FFC1B6"/>
<path d="M835.995 689.172C835.917 688.224 837.083 687.713 837.728 688.414L840.256 691.163C840.545 691.478 841.002 691.574 841.393 691.402L844.878 689.877C845.778 689.483 846.647 690.487 846.128 691.321L844.22 694.391C843.983 694.773 844.029 695.266 844.333 695.596L846.751 698.225C847.403 698.934 846.773 700.066 845.826 699.884L842.015 699.154C841.609 699.076 841.196 699.256 840.978 699.608L838.929 702.904C838.42 703.722 837.162 703.418 837.083 702.457L836.791 698.898C836.755 698.45 836.424 698.082 835.983 697.997L832.433 697.317C831.468 697.132 831.32 695.812 832.22 695.418L835.704 693.893C836.095 693.722 836.335 693.321 836.3 692.895L835.995 689.172Z" fill="#FFCDB4"/>
<path d="M839.838 640.258C839.939 639.778 840.598 639.715 840.788 640.166L842.13 643.343C842.215 643.544 842.421 643.667 842.639 643.646L845.994 643.322C846.472 643.275 846.734 643.863 846.381 644.187L843.834 646.526C843.679 646.669 843.63 646.894 843.712 647.089L845.076 650.318C845.265 650.766 844.768 651.193 844.354 650.938L841.484 649.178C841.293 649.062 841.048 649.085 840.884 649.236L838.404 651.514C838.046 651.843 837.477 651.519 837.577 651.043L838.296 647.613C838.339 647.406 838.248 647.195 838.068 647.084L835.121 645.277C834.712 645.026 834.857 644.399 835.334 644.353L838.689 644.028C838.907 644.007 839.086 643.847 839.131 643.633L839.838 640.258Z" fill="#FFF7BF"/>
<path d="M863.496 644.262C863.598 643.785 864.252 643.722 864.444 644.17L865.68 647.056C865.766 647.256 865.971 647.378 866.188 647.357L869.277 647.058C869.757 647.012 870.018 647.604 869.66 647.927L867.324 650.036C867.166 650.18 867.116 650.408 867.2 650.604L868.448 653.518C868.639 653.964 868.146 654.393 867.73 654.143L865.075 652.546C864.887 652.432 864.646 652.455 864.482 652.603L862.183 654.68C861.823 655.005 861.257 654.678 861.359 654.204L862.025 651.105C862.07 650.896 861.977 650.682 861.794 650.571L859.097 648.949C858.684 648.7 858.827 648.069 859.307 648.023L862.395 647.724C862.612 647.703 862.79 647.544 862.836 647.331L863.496 644.262Z" fill="#FFF5C1"/>
<path d="M499.022 812.436C499.196 811.486 500.481 811.311 500.904 812.178L502.615 815.685C502.804 816.073 503.221 816.296 503.649 816.237L507.532 815.706C508.495 815.574 509.061 816.754 508.356 817.423L505.542 820.089C505.225 820.389 505.139 820.861 505.331 821.253L507.025 824.727C507.45 825.597 506.514 826.502 505.659 826.05L502.18 824.21C501.801 824.01 501.336 824.073 501.025 824.368L498.168 827.075C497.466 827.74 496.322 827.12 496.497 826.168L497.196 822.366C497.275 821.937 497.066 821.506 496.68 821.302L493.253 819.489C492.394 819.035 492.622 817.746 493.585 817.615L497.468 817.083C497.896 817.025 498.238 816.698 498.316 816.273L499.022 812.436Z" fill="#FEF1BC"/>
<path d="M577.022 907.436C577.196 906.486 578.481 906.311 578.904 907.178L580.615 910.685C580.804 911.073 581.221 911.296 581.649 911.237L585.532 910.706C586.495 910.574 587.061 911.754 586.356 912.423L583.542 915.089C583.225 915.389 583.139 915.861 583.331 916.253L585.025 919.727C585.45 920.597 584.514 921.502 583.659 921.05L580.18 919.21C579.801 919.01 579.336 919.073 579.025 919.368L576.168 922.075C575.466 922.74 574.322 922.12 574.497 921.168L575.196 917.366C575.275 916.937 575.066 916.506 574.68 916.302L571.253 914.489C570.394 914.035 570.622 912.746 571.585 912.615L575.468 912.083C575.896 912.025 576.238 911.698 576.316 911.273L577.022 907.436Z" fill="#FFF0BD"/>
<path d="M300.788 839.55C300.953 838.583 302.267 838.407 302.68 839.296L304.333 842.848C304.518 843.245 304.939 843.476 305.373 843.418L309.197 842.904C310.147 842.777 310.715 843.93 310.034 844.605L307.192 847.426C306.893 847.723 306.813 848.176 306.99 848.558L308.695 852.221C309.105 853.103 308.143 853.992 307.296 853.513L303.983 851.639C303.593 851.419 303.104 851.484 302.787 851.8L300.085 854.481C299.395 855.167 298.232 854.563 298.395 853.604L299.073 849.621C299.144 849.205 298.947 848.79 298.58 848.582L295.095 846.611C294.26 846.139 294.504 844.877 295.454 844.749L299.278 844.236C299.711 844.178 300.057 843.844 300.13 843.413L300.788 839.55Z" fill="#FFF2C0"/>
<path d="M310.045 879.258C310.212 878.293 311.522 878.117 311.936 879.004L313.646 882.656C313.831 883.052 314.252 883.282 314.685 883.224L318.63 882.694C319.582 882.566 320.149 883.723 319.465 884.397L316.544 887.276C316.242 887.573 316.16 888.029 316.34 888.412L318.092 892.156C318.504 893.036 317.544 893.927 316.697 893.452L313.261 891.525C312.873 891.307 312.387 891.372 312.07 891.685L309.264 894.449C308.572 895.132 307.412 894.525 307.577 893.567L308.279 889.494C308.351 889.077 308.153 888.659 307.783 888.452L304.206 886.446C303.368 885.976 303.61 884.71 304.562 884.582L308.507 884.053C308.94 883.995 309.285 883.662 309.36 883.232L310.045 879.258Z" fill="#FFF1BE"/>
<path d="M142.975 764.551C143.141 763.586 144.451 763.41 144.866 764.297L146.576 767.949C146.761 768.345 147.181 768.575 147.614 768.516L151.56 767.987C152.511 767.859 153.079 769.016 152.395 769.69L149.473 772.569C149.171 772.866 149.09 773.322 149.269 773.705L151.021 777.449C151.433 778.329 150.474 779.22 149.626 778.745L146.191 776.818C145.802 776.6 145.317 776.665 145 776.977L142.194 779.742C141.502 780.425 140.341 779.818 140.506 778.86L141.209 774.787C141.281 774.37 141.082 773.952 140.713 773.745L137.136 771.739C136.298 771.269 136.54 770.003 137.492 769.875L141.437 769.346C141.87 769.288 142.215 768.955 142.289 768.525L142.975 764.551Z" fill="#FFEBBE"/>
<path d="M70.4606 872.625C70.6531 871.701 71.9008 871.533 72.3301 872.374L75.6901 878.951C75.8831 879.329 76.2933 879.544 76.7137 879.488L84.405 878.455C85.3845 878.324 85.9408 879.541 85.2002 880.196L79.6667 885.085C79.3247 885.387 79.2307 885.883 79.4383 886.289L82.6897 892.654C83.1272 893.511 82.2213 894.431 81.3581 894.007L74.3841 890.579C74.0203 890.4 73.5846 890.459 73.2809 890.727L67.4577 895.873C66.7369 896.51 65.6204 895.861 65.8166 894.919L67.2741 887.922C67.3672 887.475 67.1459 887.022 66.7362 886.821L60.1092 883.564C59.2222 883.128 59.4377 881.807 60.4172 881.675L68.1085 880.643C68.5288 880.586 68.8679 880.271 68.9544 879.856L70.4606 872.625Z" fill="#D6ABC4"/>
<mask id="path-53-inside-1" fill="white">
<path d="M2052.85 487.753C1971.32 441.218 1878.33 418.576 1784.53 422.419C1690.73 426.263 1599.91 456.436 1522.45 509.486C1445 562.536 1384.05 636.319 1346.57 722.392C1309.09 808.466 1296.61 903.351 1310.53 996.191L1540.1 961.747C1532.63 912.009 1539.33 861.176 1559.4 815.063C1579.48 768.951 1612.14 729.422 1653.63 701.001C1695.12 672.581 1743.78 656.416 1794.03 654.357C1844.29 652.298 1894.1 664.428 1937.78 689.359L2052.85 487.753Z"/>
</mask>
<path d="M2052.85 487.753C1971.32 441.218 1878.33 418.576 1784.53 422.419C1690.73 426.263 1599.91 456.436 1522.45 509.486C1445 562.536 1384.05 636.319 1346.57 722.392C1309.09 808.466 1296.61 903.351 1310.53 996.191L1540.1 961.747C1532.63 912.009 1539.33 861.176 1559.4 815.063C1579.48 768.951 1612.14 729.422 1653.63 701.001C1695.12 672.581 1743.78 656.416 1794.03 654.357C1844.29 652.298 1894.1 664.428 1937.78 689.359L2052.85 487.753Z" fill="url(#paint1_linear)" stroke="url(#paint2_linear)" stroke-width="8" mask="url(#path-53-inside-1)"/>
<circle cx="1609.5" cy="595.5" r="90.5" fill="#3120C1" stroke="url(#paint3_linear)" stroke-width="4"/>
<path d="M1571 562L1638 553.5M1638 553.5L1621.5 656.5M1638 553.5L1666 532" stroke="#F1EAFF" stroke-width="3"/>
<path d="M1563.09 553.521C1562.95 552.576 1564.09 551.993 1564.77 552.658L1569.83 557.566C1570.14 557.864 1570.6 557.933 1570.98 557.738L1577.43 554.441C1578.3 553.995 1579.23 554.939 1578.76 555.803L1575.45 562.008C1575.24 562.401 1575.31 562.886 1575.63 563.197L1580.6 568.012C1581.29 568.684 1580.72 569.85 1579.77 569.721L1572.58 568.751C1572.17 568.695 1571.76 568.902 1571.57 569.271L1568.15 575.664C1567.69 576.515 1566.42 576.292 1566.28 575.337L1565.28 568.495C1565.21 568.054 1564.86 567.709 1564.42 567.649L1557.45 566.707C1556.48 566.576 1556.26 565.272 1557.13 564.826L1563.57 561.529C1563.95 561.334 1564.17 560.918 1564.11 560.494L1563.09 553.521Z" fill="#E6A9A3"/>
<path d="M1632.09 543.9C1631.95 542.955 1633.09 542.372 1633.77 543.037L1638.83 547.945C1639.14 548.243 1639.6 548.312 1639.98 548.117L1646.43 544.82C1647.3 544.374 1648.23 545.318 1647.76 546.182L1644.45 552.387C1644.24 552.78 1644.31 553.265 1644.63 553.576L1649.6 558.391C1650.29 559.063 1649.72 560.229 1648.77 560.1L1641.58 559.13C1641.17 559.074 1640.76 559.281 1640.57 559.65L1637.15 566.043C1636.69 566.894 1635.42 566.671 1635.28 565.716L1634.28 558.874C1634.21 558.433 1633.86 558.087 1633.42 558.028L1626.45 557.086C1625.48 556.955 1625.26 555.651 1626.13 555.205L1632.57 551.908C1632.95 551.713 1633.17 551.297 1633.11 550.873L1632.09 543.9Z" fill="#FFD6B4"/>
<path d="M1618.68 651.701C1618.63 651.237 1619.18 650.954 1619.52 651.273L1621.78 653.381C1621.94 653.525 1622.16 653.557 1622.35 653.461L1625.27 651.967C1625.71 651.74 1626.18 652.229 1625.93 652.66L1624.42 655.31C1624.3 655.511 1624.34 655.765 1624.51 655.924L1626.65 657.923C1627 658.251 1626.74 658.837 1626.26 658.786L1622.97 658.44C1622.77 658.419 1622.58 658.516 1622.48 658.688L1620.83 661.562C1620.6 661.978 1619.96 661.852 1619.9 661.376L1619.54 658.467C1619.51 658.236 1619.32 658.056 1619.09 658.032L1616.06 657.712C1615.56 657.66 1615.44 656.997 1615.88 656.77L1618.8 655.276C1618.99 655.18 1619.1 654.977 1619.07 654.768L1618.68 651.701Z" fill="#FFCAB5"/>
<path d="M1668.91 530.344C1669.4 530.334 1669.61 530.949 1669.23 531.242L1666.94 532.978C1666.77 533.109 1666.7 533.336 1666.77 533.54L1667.72 536.251C1667.88 536.708 1667.36 537.103 1666.96 536.826L1664.61 535.188C1664.43 535.064 1664.19 535.069 1664.02 535.201L1661.74 536.935C1661.35 537.228 1660.81 536.857 1660.95 536.393L1661.78 533.644C1661.84 533.437 1661.77 533.213 1661.59 533.089L1659.23 531.45C1658.83 531.173 1659.02 530.55 1659.51 530.54L1662.37 530.48C1662.59 530.476 1662.78 530.332 1662.84 530.124L1663.67 527.378C1663.81 526.914 1664.46 526.9 1664.62 527.358L1665.56 530.068C1665.64 530.273 1665.83 530.408 1666.05 530.404L1668.91 530.344Z" fill="#896785"/>
<g filter="url(#filter0_d)">
<path d="M1058 737C995.36 815.214 956.814 858.339 884.5 934.5H1090L1160 871C1190.33 841.285 1207.78 829.855 1240.5 829L1338 813.5C1364.85 806.279 1382.72 793.745 1417.5 762.5L1508 688.5C1490.72 686.759 1481.05 686.281 1464 692C1437.01 704.825 1424.55 711.635 1401 726.5C1379.59 739.669 1367.91 744.462 1347.5 750.5C1322.95 751.225 1310.74 749.823 1308 725C1306.35 699.141 1309.86 687.102 1318.5 667C1334.94 637.228 1345.21 621.433 1379 606C1397.64 598.827 1406.32 596.174 1424.5 594L1447.5 568.5C1400.18 563.536 1384.25 563.575 1372 564C1348.74 569.433 1330.38 574.113 1297.5 582.5C1330.3 519.375 1347.3 483.489 1376 419C1388.14 384.874 1386.51 370.32 1376 348.5L1257.5 538.5C1275.63 485.406 1285.04 455.547 1299 402C1301.23 381.585 1297.18 372.383 1284 358.5C1251.73 456.582 1224.66 504.731 1158 580C1147.86 544.819 1141.03 523.428 1128.5 481.5C1115.18 447.148 1106.73 434.367 1088.5 434C1098.76 478.842 1104.73 504.015 1112.5 548.5C1120.79 621.182 1112.28 662.33 1058 737Z" fill="url(#paint4_radial)"/>
</g>
<path d="M1428 594H1424.5L1447.5 568.5L1451 569L1428 594Z" fill="#FFBEC3"/>
<defs>
<filter id="filter0_d" x="884.5" y="348.5" width="623.5" height="590" filterUnits="userSpaceOnUse" color-interpolation-filters="sRGB">
<feFlood flood-opacity="0" result="BackgroundImageFix"/>
<feColorMatrix in="SourceAlpha" type="matrix" values="0 0 0 0 0 0 0 0 0 0 0 0 0 0 0 0 0 0 127 0"/>
<feOffset dy="4"/>
<feColorMatrix type="matrix" values="0 0 0 0 1 0 0 0 0 0.611765 0 0 0 0 0.643137 0 0 0 1 0"/>
<feBlend mode="normal" in2="BackgroundImageFix" result="effect1_dropShadow"/>
<feBlend mode="normal" in="SourceGraphic" in2="effect1_dropShadow" result="shape"/>
</filter>
<linearGradient id="paint0_linear" x1="1751" y1="766" x2="1830" y2="922" gradientUnits="userSpaceOnUse">
<stop stop-color="#9D96FF"/>
<stop offset="1" stop-color="#5B6BFF"/>
</linearGradient>
<linearGradient id="paint1_linear" x1="1489" y1="544" x2="1661.5" y2="754.5" gradientUnits="userSpaceOnUse">
<stop stop-color="#FE909E"/>
<stop offset="1" stop-color="#A34BB6"/>
</linearGradient>
<linearGradient id="paint2_linear" x1="1509" y1="521.5" x2="1646" y2="712" gradientUnits="userSpaceOnUse">
<stop stop-color="#FFEEB1"/>
<stop offset="1" stop-color="#FFC5AC"/>
</linearGradient>
<linearGradient id="paint3_linear" x1="1563" y1="522.5" x2="1653.5" y2="674" gradientUnits="userSpaceOnUse">
<stop stop-color="#FFEEB1"/>
<stop offset="1" stop-color="#FFC5AC"/>
</linearGradient>
<radialGradient id="paint4_radial" cx="0" cy="0" r="1" gradientUnits="userSpaceOnUse" gradientTransform="translate(1226.5 813) rotate(-105.691) scale(247.732 241.902)">
<stop stop-color="#FFD8BE"/>
<stop offset="1" stop-color="#FFBEC3"/>
</radialGradient>
</defs>
</svg>
