<svg width="3218" height="1324" viewBox="0 0 3218 1324" fill="none" xmlns="http://www.w3.org/2000/svg">
<path d="M2579.72 904.5C2579.72 830.77 2520.79 771 2448.1 771C2375.41 771 2316.49 830.77 2316.49 904.5C2316.49 978.23 2375.41 1038 2448.1 1038C2520.79 1038 2579.72 978.23 2579.72 904.5Z" fill="url(#paint0_linear)"/>
<path d="M1893.12 747C1893.12 705.579 1859.48 672 1817.98 672C1776.49 672 1742.85 705.579 1742.85 747C1742.85 788.421 1776.49 822 1817.98 822C1859.48 822 1893.12 788.421 1893.12 747Z" fill="url(#paint1_linear)"/>
<path d="M2013.93 794C2013.93 759.758 1981.19 732 1940.81 732C1900.43 732 1867.69 759.758 1867.69 794C1867.69 828.242 1900.43 856 1940.81 856C1981.19 856 2013.93 828.242 2013.93 794Z" fill="url(#paint2_linear)"/>
<path d="M2133.94 816C2133.94 777.892 2100.98 747 2060.32 747C2019.66 747 1986.7 777.892 1986.7 816C1986.7 854.108 2019.66 885 2060.32 885C2100.98 885 2133.94 854.108 2133.94 816Z" fill="url(#paint3_linear)"/>
<path d="M2409.27 769.5C2409.27 693.561 2339.06 632 2252.45 632C2165.83 632 2095.62 693.561 2095.62 769.5C2095.62 845.439 2165.83 907 2252.45 907C2339.06 907 2409.27 845.439 2409.27 769.5Z" fill="url(#paint4_linear)"/>
<path d="M3204 1184.5C3204 1107.46 3127.92 1045 3034.06 1045C2940.21 1045 2864.12 1107.46 2864.12 1184.5C2864.12 1261.54 2940.21 1324 3034.06 1324C3127.92 1324 3204 1261.54 3204 1184.5Z" fill="url(#paint5_linear)"/>
<path d="M2976.07 1104.5C2976.07 1030.77 2917.15 971 2844.46 971C2771.77 971 2712.84 1030.77 2712.84 1104.5C2712.84 1178.23 2771.77 1238 2844.46 1238C2917.15 1238 2976.07 1178.23 2976.07 1104.5Z" fill="url(#paint6_linear)"/>
<path d="M2741.7 1085C2741.7 1040.82 2708.06 1005 2666.56 1005C2625.07 1005 2591.43 1040.82 2591.43 1085C2591.43 1129.18 2625.07 1165 2666.56 1165C2708.06 1165 2741.7 1129.18 2741.7 1085Z" fill="url(#paint7_linear)"/>
<path d="M2637.2 1041C2637.2 1002.34 2604.24 971 2563.58 971C2522.92 971 2489.96 1002.34 2489.96 1041C2489.96 1079.66 2522.92 1111 2563.58 1111C2604.24 1111 2637.2 1079.66 2637.2 1041Z" fill="url(#paint8_linear)"/>
<path d="M638.283 904.5C638.283 830.77 697.208 771 769.897 771C842.585 771 901.511 830.77 901.511 904.5C901.511 978.23 842.585 1038 769.897 1038C697.208 1038 638.283 978.23 638.283 904.5Z" fill="url(#paint9_linear)"/>
<path d="M1312.24 747C1312.24 705.579 1345.88 672 1387.38 672C1428.87 672 1462.51 705.579 1462.51 747C1462.51 788.421 1428.87 822 1387.38 822C1345.88 822 1312.24 788.421 1312.24 747Z" fill="url(#paint10_linear)"/>
<path d="M1204.07 794C1204.07 759.758 1236.81 732 1277.19 732C1317.57 732 1350.31 759.758 1350.31 794C1350.31 828.242 1317.57 856 1277.19 856C1236.81 856 1204.07 828.242 1204.07 794Z" fill="url(#paint11_linear)"/>
<path d="M1084.06 816C1084.06 777.892 1117.02 747 1157.68 747C1198.34 747 1231.3 777.892 1231.3 816C1231.3 854.108 1198.34 885 1157.68 885C1117.02 885 1084.06 854.108 1084.06 816Z" fill="url(#paint12_linear)"/>
<path d="M808.727 769.5C808.727 693.561 878.941 632 965.554 632C1052.17 632 1122.38 693.561 1122.38 769.5C1122.38 845.439 1052.17 907 965.554 907C878.941 907 808.727 845.439 808.727 769.5Z" fill="url(#paint13_linear)"/>
<path d="M14 1184.5C14 1107.46 90.084 1045 183.938 1045C277.793 1045 353.877 1107.46 353.877 1184.5C353.877 1261.54 277.793 1324 183.938 1324C90.084 1324 14 1261.54 14 1184.5Z" fill="url(#paint14_linear)"/>
<path d="M241.93 1104.5C241.93 1030.77 300.855 971 373.543 971C446.232 971 505.158 1030.77 505.158 1104.5C505.158 1178.23 446.232 1238 373.543 1238C300.855 1238 241.93 1178.23 241.93 1104.5Z" fill="url(#paint15_linear)"/>
<path d="M464.527 1065.5C464.527 1021.32 498.167 985.5 539.663 985.5C581.16 985.5 614.799 1021.32 614.799 1065.5C614.799 1109.68 581.16 1145.5 539.663 1145.5C498.167 1145.5 464.527 1109.68 464.527 1065.5Z" fill="url(#paint16_linear)"/>
<path d="M580.797 1041C580.797 1002.34 613.76 971 654.42 971C695.081 971 728.044 1002.34 728.044 1041C728.044 1079.66 695.081 1111 654.42 1111C613.76 1111 580.797 1079.66 580.797 1041Z" fill="url(#paint17_linear)"/>
<path d="M170.322 1085H682.658L834.461 845L1315.68 769.5L1501.5 699.5L682.658 667L418.499 650L170.322 718V1085Z" fill="url(#paint18_linear)"/>
<path d="M3075.92 1085H2563.58L2383.54 845L1834.5 769.5L1782 699.5L2331.62 614L2563.58 667L3075.92 718V1085Z" fill="url(#paint19_linear)"/>
<path d="M181.346 319.298C281.498 319.298 362.688 247.821 362.688 159.649C362.688 71.477 281.498 0 181.346 0C81.1933 0 0.00390625 71.477 0.00390625 159.649C0.00390625 247.821 81.1933 319.298 181.346 319.298Z" fill="url(#paint20_linear)"/>
<path d="M362.688 451.275C462.84 451.275 882.514 567 544.03 291.626C544.03 203.454 462.84 131.977 362.688 131.977C262.536 131.977 181.346 203.454 181.346 291.626C181.346 379.798 262.536 451.275 362.688 451.275Z" fill="url(#paint21_linear)"/>
<path d="M1797.7 489.591C1897.86 489.591 1979.05 418.113 1979.05 329.942C1979.05 241.77 1897.86 170.292 1797.7 170.292C1697.55 170.292 1616.36 241.77 1616.36 329.942C1616.36 408.603 1697.55 489.591 1797.7 489.591Z" fill="url(#paint22_linear)"/>
<path d="M2063.67 509.813C2147.13 509.813 2214.79 450.249 2214.79 376.772C2214.79 303.296 2147.13 243.731 2063.67 243.731C1980.21 243.731 1912.55 303.296 1912.55 376.772C1912.55 450.249 1980.21 509.813 2063.67 509.813Z" fill="url(#paint23_linear)"/>
<path d="M1205.32 505.556C1288.78 505.556 1356.44 445.991 1356.44 372.515C1356.44 299.038 1288.78 239.474 1205.32 239.474C1121.86 239.474 1054.2 299.038 1054.2 372.515C1054.2 445.991 1121.86 505.556 1205.32 505.556Z" fill="url(#paint24_linear)"/>
<path d="M1435.02 493.848C1535.18 493.848 1616.36 422.371 1616.36 334.199C1616.36 246.027 1535.18 174.55 1435.02 174.55C1334.87 174.55 1253.69 246.027 1253.69 334.199C1253.69 422.371 1334.87 493.848 1435.02 493.848Z" fill="url(#paint25_linear)"/>
<path d="M2310.3 536.421C2410.45 536.421 2491.65 464.944 2491.65 376.772C2491.65 288.6 2410.45 217.123 2310.3 217.123C2210.15 217.123 2128.96 288.6 2128.96 376.772C2128.96 464.944 2210.15 536.421 2310.3 536.421Z" fill="url(#paint26_linear)"/>
<path d="M968.367 536.421C1068.52 536.421 1149.71 464.944 1149.71 376.772C1149.71 288.6 1068.52 217.123 968.367 217.123C868.214 217.123 787.025 288.6 787.025 376.772C787.025 464.944 868.214 536.421 968.367 536.421Z" fill="url(#paint27_linear)"/>
<path d="M708.445 451.275C781.889 451.275 841.428 398.858 841.428 334.199C841.428 269.54 781.889 217.123 708.445 217.123C635 217.123 575.461 269.54 575.461 334.199C575.461 398.858 635 451.275 708.445 451.275Z" fill="url(#paint28_linear)"/>
<path d="M2540 451.275C2613.44 451.275 2672.98 398.858 2672.98 334.199C2672.98 269.54 2613.44 217.123 2540 217.123C2466.56 217.123 2407.01 269.54 2407.01 334.199C2407.01 398.858 2466.56 451.275 2540 451.275Z" fill="url(#paint29_linear)"/>
<path d="M2854.32 460.854C2954.47 460.854 3035.66 389.377 3035.66 301.205C3035.66 213.033 2954.47 141.556 2854.32 141.556C2754.17 141.556 2672.98 213.033 2672.98 301.205C2382.23 562.5 2754.17 460.854 2854.32 460.854Z" fill="url(#paint30_linear)"/>
<path d="M1609.11 319.298C1659.19 319.298 1699.78 283.56 1699.78 239.474C1699.78 195.388 1659.19 159.649 1609.11 159.649C1559.04 159.649 1518.44 195.388 1518.44 239.474C1518.44 283.56 1559.04 319.298 1609.11 319.298Z" fill="url(#paint31_linear)"/>
<path d="M544.028 420.41C600.781 420.41 646.788 379.906 646.788 329.942C646.788 279.978 600.781 239.474 544.028 239.474C487.275 239.474 441.268 279.978 441.268 329.942C441.268 379.906 487.275 420.41 544.028 420.41Z" fill="url(#paint32_linear)"/>
<path d="M2672.98 420.41C2729.73 420.41 2775.74 379.906 2775.74 329.942C2775.74 279.978 2729.73 239.474 2672.98 239.474C2616.23 239.474 2570.22 279.978 2570.22 329.942C2570.22 379.906 2616.23 420.41 2672.98 420.41Z" fill="url(#paint33_linear)"/>
<path d="M3035.66 319.298C3135.81 319.298 3217 247.821 3217 159.649C3217 71.477 3135.81 0 3035.66 0C2935.51 0 2854.32 71.477 2854.32 159.649C2854.32 247.821 2935.51 319.298 3035.66 319.298Z" fill="url(#paint34_linear)"/>
<path d="M362.688 217.123L0.00390625 159.649V536.421H362.688V217.123Z" fill="url(#paint35_linear)"/>
<path d="M3217 159.649L2854.32 217.123V536.421H3217V159.649Z" fill="url(#paint36_linear)"/>
<path d="M3035.66 442.012C2935.51 442.012 2854.32 513.489 2854.32 601.661C2854.32 689.833 2935.51 761.31 3035.66 761.31C3135.81 761.31 3217 689.833 3217 601.661C3217 513.489 3135.81 442.012 3035.66 442.012Z" fill="url(#paint37_linear)"/>
<path d="M2867.88 432.434C2767.73 432.434 2686.54 503.911 2686.54 592.083C2686.54 680.255 2767.73 751.732 2867.88 751.732C2968.03 751.732 3049.22 680.255 3049.22 592.083C3049.22 503.911 2968.03 432.434 2867.88 432.434Z" fill="url(#paint38_linear)"/>
<path d="M1419.3 508.103C1319.15 508.103 1237.96 579.581 1237.96 667.752C1237.96 755.924 1319.15 827.402 1419.3 827.402C1519.45 827.402 1600.64 755.924 1600.64 667.752C1600.64 579.581 1519.45 508.103 1419.3 508.103Z" fill="url(#paint39_linear)"/>
<path d="M1180.57 518.746C1097.1 518.746 1029.44 578.309 1029.44 651.786C1029.44 725.262 1097.1 784.827 1180.57 784.827C1264.02 784.827 1331.68 725.262 1331.68 651.786C1331.68 578.309 1264.02 518.746 1180.57 518.746Z" fill="url(#paint40_linear)"/>
<path d="M2056.24 508.103C1972.78 508.103 1905.12 567.667 1905.12 641.143C1905.12 714.62 1972.78 774.184 2056.24 774.184C2139.7 774.184 2207.35 714.62 2207.35 641.143C2207.35 567.667 2139.7 508.103 2056.24 508.103Z" fill="url(#paint41_linear)"/>
<path d="M1781.98 508.103C1681.82 508.103 1600.64 579.58 1600.64 667.752C1600.64 755.924 1681.82 827.4 1781.98 827.4C1882.13 827.4 1963.31 755.923 1963.31 667.751C1963.31 579.579 1882.13 508.103 1781.98 508.103Z" fill="url(#paint42_linear)"/>
<path d="M936.505 508.103C836.354 508.103 755.162 579.579 755.162 667.751C755.162 755.923 836.354 827.4 936.505 827.4C1036.66 827.4 1117.85 755.923 1117.85 667.751C1117.85 579.579 1036.66 508.103 936.505 508.103Z" fill="url(#paint43_linear)"/>
<path d="M2305.47 508.102C2205.32 508.102 2124.13 579.579 2124.13 667.751C2124.13 755.923 2205.32 827.4 2305.47 827.4C2405.62 827.4 2486.81 755.923 2486.81 667.751C2486.81 579.579 2405.62 508.102 2305.47 508.102Z" fill="url(#paint44_linear)"/>
<path d="M2522.09 550.676C2448.65 550.676 2389.11 603.093 2389.11 667.752C2389.11 732.411 2448.65 784.827 2522.09 784.827C2595.54 784.827 2655.08 732.411 2655.08 667.752C2655.08 603.093 2595.54 550.676 2522.09 550.676Z" fill="url(#paint45_linear)"/>
<path d="M698.792 550.676C625.349 550.676 565.816 603.092 565.816 667.751C565.816 732.41 625.349 784.827 698.792 784.827C772.234 784.827 831.779 732.41 831.779 667.751C831.779 603.092 772.234 550.676 698.792 550.676Z" fill="url(#paint46_linear)"/>
<path d="M362.684 401.568C262.533 401.568 181.342 473.045 181.342 561.217C181.342 649.389 262.533 720.866 362.684 720.866C462.835 720.866 544.026 649.389 544.026 561.217C544.026 473.045 462.835 401.568 362.684 401.568Z" fill="url(#paint47_linear)"/>
<path d="M1600.68 614C1550.6 614 1510 649.738 1510 693.824C1510 737.91 1550.6 773.649 1600.68 773.649C1650.75 773.649 1691.35 737.91 1691.35 693.824C1691.35 649.738 1650.75 614 1600.68 614Z" fill="url(#paint48_linear)"/>
<path d="M2686.54 592.083C2629.79 592.083 2570.21 611.3 2570.21 661.264C2570.21 711.228 2616.22 751.732 2672.97 751.732C2729.73 751.732 2775.73 711.228 2775.73 661.264C2775.73 611.3 2743.29 592.083 2686.54 592.083Z" fill="url(#paint49_linear)"/>
<path d="M543.637 550.676C486.879 550.676 440.877 591.179 440.877 641.143C440.877 691.107 486.879 731.611 543.637 731.611C600.384 731.611 646.397 691.107 646.397 641.143C646.397 591.179 600.384 550.676 543.637 550.676Z" fill="url(#paint50_linear)"/>
<path d="M181.342 442.012C81.1907 442.012 0 513.489 0 601.661C0 689.833 81.1907 761.31 181.342 761.31C281.493 761.31 362.684 689.833 362.684 601.661C362.684 513.489 281.493 442.012 181.342 442.012Z" fill="url(#paint51_linear)"/>
<path d="M2854.32 645.298L3216.95 598L3217 326.001H2854.32V645.298Z" fill="url(#paint52_linear)"/>
<path d="M0 601.661L362.684 645.298V326.001H0V601.661Z" fill="url(#paint53_linear)"/>
<path d="M3217 326H0.00390625V641H3217V326Z" fill="url(#paint54_linear)"/>
<defs>
<linearGradient id="paint0_linear" x1="3084" y1="969" x2="179.5" y2="969" gradientUnits="userSpaceOnUse">
<stop stop-color="#06202D"/>
<stop offset="0.0001" stop-color="#083655"/>
<stop offset="0.505208" stop-color="#073A5C"/>
<stop offset="1" stop-color="#143F44"/>
</linearGradient>
<linearGradient id="paint1_linear" x1="3084" y1="969" x2="179.5" y2="969" gradientUnits="userSpaceOnUse">
<stop stop-color="#06202D"/>
<stop offset="0.0001" stop-color="#083655"/>
<stop offset="0.505208" stop-color="#073A5C"/>
<stop offset="1" stop-color="#143F44"/>
</linearGradient>
<linearGradient id="paint2_linear" x1="3084" y1="969" x2="179.5" y2="969" gradientUnits="userSpaceOnUse">
<stop stop-color="#06202D"/>
<stop offset="0.0001" stop-color="#083655"/>
<stop offset="0.505208" stop-color="#073A5C"/>
<stop offset="1" stop-color="#143F44"/>
</linearGradient>
<linearGradient id="paint3_linear" x1="3084" y1="969" x2="179.5" y2="969" gradientUnits="userSpaceOnUse">
<stop stop-color="#06202D"/>
<stop offset="0.0001" stop-color="#083655"/>
<stop offset="0.505208" stop-color="#073A5C"/>
<stop offset="1" stop-color="#143F44"/>
</linearGradient>
<linearGradient id="paint4_linear" x1="3084" y1="969" x2="179.5" y2="969" gradientUnits="userSpaceOnUse">
<stop stop-color="#06202D"/>
<stop offset="0.0001" stop-color="#083655"/>
<stop offset="0.505208" stop-color="#073A5C"/>
<stop offset="1" stop-color="#143F44"/>
</linearGradient>
<linearGradient id="paint5_linear" x1="3084" y1="969" x2="179.5" y2="969" gradientUnits="userSpaceOnUse">
<stop stop-color="#06202D"/>
<stop offset="0.0001" stop-color="#083655"/>
<stop offset="0.505208" stop-color="#073A5C"/>
<stop offset="1" stop-color="#143F44"/>
</linearGradient>
<linearGradient id="paint6_linear" x1="3084" y1="969" x2="179.5" y2="969" gradientUnits="userSpaceOnUse">
<stop stop-color="#06202D"/>
<stop offset="0.0001" stop-color="#083655"/>
<stop offset="0.505208" stop-color="#073A5C"/>
<stop offset="1" stop-color="#143F44"/>
</linearGradient>
<linearGradient id="paint7_linear" x1="3084" y1="969" x2="179.5" y2="969" gradientUnits="userSpaceOnUse">
<stop stop-color="#06202D"/>
<stop offset="0.0001" stop-color="#083655"/>
<stop offset="0.505208" stop-color="#073A5C"/>
<stop offset="1" stop-color="#143F44"/>
</linearGradient>
<linearGradient id="paint8_linear" x1="3084" y1="969" x2="179.5" y2="969" gradientUnits="userSpaceOnUse">
<stop stop-color="#06202D"/>
<stop offset="0.0001" stop-color="#083655"/>
<stop offset="0.505208" stop-color="#073A5C"/>
<stop offset="1" stop-color="#143F44"/>
</linearGradient>
<linearGradient id="paint9_linear" x1="3084" y1="969" x2="179.5" y2="969" gradientUnits="userSpaceOnUse">
<stop stop-color="#06202D"/>
<stop offset="0.0001" stop-color="#083655"/>
<stop offset="0.505208" stop-color="#073A5C"/>
<stop offset="1" stop-color="#143F44"/>
</linearGradient>
<linearGradient id="paint10_linear" x1="3084" y1="969" x2="179.5" y2="969" gradientUnits="userSpaceOnUse">
<stop stop-color="#06202D"/>
<stop offset="0.0001" stop-color="#083655"/>
<stop offset="0.505208" stop-color="#073A5C"/>
<stop offset="1" stop-color="#143F44"/>
</linearGradient>
<linearGradient id="paint11_linear" x1="3084" y1="969" x2="179.5" y2="969" gradientUnits="userSpaceOnUse">
<stop stop-color="#06202D"/>
<stop offset="0.0001" stop-color="#083655"/>
<stop offset="0.505208" stop-color="#073A5C"/>
<stop offset="1" stop-color="#143F44"/>
</linearGradient>
<linearGradient id="paint12_linear" x1="3084" y1="969" x2="179.5" y2="969" gradientUnits="userSpaceOnUse">
<stop stop-color="#06202D"/>
<stop offset="0.0001" stop-color="#083655"/>
<stop offset="0.505208" stop-color="#073A5C"/>
<stop offset="1" stop-color="#143F44"/>
</linearGradient>
<linearGradient id="paint13_linear" x1="3084" y1="969" x2="179.5" y2="969" gradientUnits="userSpaceOnUse">
<stop stop-color="#06202D"/>
<stop offset="0.0001" stop-color="#083655"/>
<stop offset="0.505208" stop-color="#073A5C"/>
<stop offset="1" stop-color="#143F44"/>
</linearGradient>
<linearGradient id="paint14_linear" x1="3084" y1="969" x2="179.5" y2="969" gradientUnits="userSpaceOnUse">
<stop stop-color="#06202D"/>
<stop offset="0.0001" stop-color="#083655"/>
<stop offset="0.505208" stop-color="#073A5C"/>
<stop offset="1" stop-color="#143F44"/>
</linearGradient>
<linearGradient id="paint15_linear" x1="3084" y1="969" x2="179.5" y2="969" gradientUnits="userSpaceOnUse">
<stop stop-color="#06202D"/>
<stop offset="0.0001" stop-color="#083655"/>
<stop offset="0.505208" stop-color="#073A5C"/>
<stop offset="1" stop-color="#143F44"/>
</linearGradient>
<linearGradient id="paint16_linear" x1="3084" y1="969" x2="179.5" y2="969" gradientUnits="userSpaceOnUse">
<stop stop-color="#06202D"/>
<stop offset="0.0001" stop-color="#083655"/>
<stop offset="0.505208" stop-color="#073A5C"/>
<stop offset="1" stop-color="#143F44"/>
</linearGradient>
<linearGradient id="paint17_linear" x1="3084" y1="969" x2="179.5" y2="969" gradientUnits="userSpaceOnUse">
<stop stop-color="#06202D"/>
<stop offset="0.0001" stop-color="#083655"/>
<stop offset="0.505208" stop-color="#073A5C"/>
<stop offset="1" stop-color="#143F44"/>
</linearGradient>
<linearGradient id="paint18_linear" x1="3084" y1="969" x2="179.5" y2="969" gradientUnits="userSpaceOnUse">
<stop stop-color="#06202D"/>
<stop offset="0.0001" stop-color="#083655"/>
<stop offset="0.505208" stop-color="#073A5C"/>
<stop offset="1" stop-color="#143F44"/>
</linearGradient>
<linearGradient id="paint19_linear" x1="3084" y1="969" x2="179.5" y2="969" gradientUnits="userSpaceOnUse">
<stop stop-color="#06202D"/>
<stop offset="0.0001" stop-color="#083655"/>
<stop offset="0.505208" stop-color="#073A5C"/>
<stop offset="1" stop-color="#143F44"/>
</linearGradient>
<linearGradient id="paint20_linear" x1="0.00390625" y1="268" x2="3217" y2="268" gradientUnits="userSpaceOnUse">
<stop stop-color="#20767F"/>
<stop offset="1" stop-color="#0F4F6F"/>
</linearGradient>
<linearGradient id="paint21_linear" x1="0.0039051" y1="268" x2="3217" y2="268" gradientUnits="userSpaceOnUse">
<stop stop-color="#20767F"/>
<stop offset="1" stop-color="#0F4F6F"/>
</linearGradient>
<linearGradient id="paint22_linear" x1="0.00219644" y1="268" x2="3217" y2="268" gradientUnits="userSpaceOnUse">
<stop stop-color="#20767F"/>
<stop offset="1" stop-color="#0F4F6F"/>
</linearGradient>
<linearGradient id="paint23_linear" x1="0.00389314" y1="268" x2="3217" y2="268" gradientUnits="userSpaceOnUse">
<stop stop-color="#20767F"/>
<stop offset="1" stop-color="#0F4F6F"/>
</linearGradient>
<linearGradient id="paint24_linear" x1="0.00253547" y1="268" x2="3217" y2="268" gradientUnits="userSpaceOnUse">
<stop stop-color="#20767F"/>
<stop offset="1" stop-color="#0F4F6F"/>
</linearGradient>
<linearGradient id="paint25_linear" x1="0.00224864" y1="268" x2="3217" y2="268" gradientUnits="userSpaceOnUse">
<stop stop-color="#20767F"/>
<stop offset="1" stop-color="#0F4F6F"/>
</linearGradient>
<linearGradient id="paint26_linear" x1="0.00436692" y1="268" x2="3217" y2="268" gradientUnits="userSpaceOnUse">
<stop stop-color="#20767F"/>
<stop offset="1" stop-color="#0F4F6F"/>
</linearGradient>
<linearGradient id="paint27_linear" x1="0.00237111" y1="268" x2="3217" y2="268" gradientUnits="userSpaceOnUse">
<stop stop-color="#20767F"/>
<stop offset="1" stop-color="#0F4F6F"/>
</linearGradient>
<linearGradient id="paint28_linear" x1="0.00302283" y1="268" x2="3217" y2="268" gradientUnits="userSpaceOnUse">
<stop stop-color="#20767F"/>
<stop offset="1" stop-color="#0F4F6F"/>
</linearGradient>
<linearGradient id="paint29_linear" x1="0.00306645" y1="268" x2="3217" y2="268" gradientUnits="userSpaceOnUse">
<stop stop-color="#20767F"/>
<stop offset="1" stop-color="#0F4F6F"/>
</linearGradient>
<linearGradient id="paint30_linear" x1="0.00375798" y1="268" x2="3217" y2="268" gradientUnits="userSpaceOnUse">
<stop stop-color="#20767F"/>
<stop offset="1" stop-color="#0F4F6F"/>
</linearGradient>
<linearGradient id="paint31_linear" x1="0.00177483" y1="268" x2="3217" y2="268" gradientUnits="userSpaceOnUse">
<stop stop-color="#20767F"/>
<stop offset="1" stop-color="#0F4F6F"/>
</linearGradient>
<linearGradient id="paint32_linear" x1="0.0036162" y1="268" x2="3217" y2="268" gradientUnits="userSpaceOnUse">
<stop stop-color="#20767F"/>
<stop offset="1" stop-color="#0F4F6F"/>
</linearGradient>
<linearGradient id="paint33_linear" x1="0.00349445" y1="268" x2="3217" y2="268" gradientUnits="userSpaceOnUse">
<stop stop-color="#20767F"/>
<stop offset="1" stop-color="#0F4F6F"/>
</linearGradient>
<linearGradient id="paint34_linear" x1="0.00387025" y1="268" x2="3217" y2="268" gradientUnits="userSpaceOnUse">
<stop stop-color="#20767F"/>
<stop offset="1" stop-color="#0F4F6F"/>
</linearGradient>
<linearGradient id="paint35_linear" x1="0.00390625" y1="268" x2="3217" y2="268" gradientUnits="userSpaceOnUse">
<stop stop-color="#20767F"/>
<stop offset="1" stop-color="#0F4F6F"/>
</linearGradient>
<linearGradient id="paint36_linear" x1="0.00387025" y1="268" x2="3217" y2="268" gradientUnits="userSpaceOnUse">
<stop stop-color="#20767F"/>
<stop offset="1" stop-color="#0F4F6F"/>
</linearGradient>
<linearGradient id="paint37_linear" x1="3217" y1="594.421" x2="0.000941757" y2="594.421" gradientUnits="userSpaceOnUse">
<stop stop-color="#0F4F6F"/>
<stop offset="1" stop-color="#20767F"/>
</linearGradient>
<linearGradient id="paint38_linear" x1="3217" y1="594.421" x2="-0.000336668" y2="594.421" gradientUnits="userSpaceOnUse">
<stop stop-color="#0F4F6F"/>
<stop offset="1" stop-color="#20767F"/>
</linearGradient>
<linearGradient id="paint39_linear" x1="3217" y1="594.421" x2="0.000843547" y2="594.421" gradientUnits="userSpaceOnUse">
<stop stop-color="#0F4F6F"/>
<stop offset="1" stop-color="#20767F"/>
</linearGradient>
<linearGradient id="paint40_linear" x1="3217" y1="594.421" x2="-0.000735357" y2="594.421" gradientUnits="userSpaceOnUse">
<stop stop-color="#0F4F6F"/>
<stop offset="1" stop-color="#20767F"/>
</linearGradient>
<linearGradient id="paint41_linear" x1="3217" y1="594.421" x2="-0.00153657" y2="594.421" gradientUnits="userSpaceOnUse">
<stop stop-color="#0F4F6F"/>
<stop offset="1" stop-color="#20767F"/>
</linearGradient>
<linearGradient id="paint42_linear" x1="3217" y1="594.421" x2="0.000341405" y2="594.421" gradientUnits="userSpaceOnUse">
<stop stop-color="#0F4F6F"/>
<stop offset="1" stop-color="#20767F"/>
</linearGradient>
<linearGradient id="paint43_linear" x1="3217" y1="594.421" x2="-4.92043e-05" y2="594.421" gradientUnits="userSpaceOnUse">
<stop stop-color="#0F4F6F"/>
<stop offset="1" stop-color="#20767F"/>
</linearGradient>
<linearGradient id="paint44_linear" x1="3217" y1="594.421" x2="0.000579885" y2="594.421" gradientUnits="userSpaceOnUse">
<stop stop-color="#0F4F6F"/>
<stop offset="1" stop-color="#20767F"/>
</linearGradient>
<linearGradient id="paint45_linear" x1="3217" y1="594.421" x2="-0.000501752" y2="594.421" gradientUnits="userSpaceOnUse">
<stop stop-color="#0F4F6F"/>
<stop offset="1" stop-color="#20767F"/>
</linearGradient>
<linearGradient id="paint46_linear" x1="3217" y1="594.421" x2="-0.000643744" y2="594.421" gradientUnits="userSpaceOnUse">
<stop stop-color="#0F4F6F"/>
<stop offset="1" stop-color="#20767F"/>
</linearGradient>
<linearGradient id="paint47_linear" x1="3217" y1="594.421" x2="-0.000174396" y2="594.421" gradientUnits="userSpaceOnUse">
<stop stop-color="#0F4F6F"/>
<stop offset="1" stop-color="#20767F"/>
</linearGradient>
<linearGradient id="paint48_linear" x1="3212.04" y1="578.04" x2="-4.96089" y2="578.04" gradientUnits="userSpaceOnUse">
<stop stop-color="#0F4F6F"/>
<stop offset="1" stop-color="#20767F"/>
</linearGradient>
<linearGradient id="paint49_linear" x1="3217" y1="594.421" x2="0.00067856" y2="594.421" gradientUnits="userSpaceOnUse">
<stop stop-color="#0F4F6F"/>
<stop offset="1" stop-color="#20767F"/>
</linearGradient>
<linearGradient id="paint50_linear" x1="3217" y1="594.421" x2="0.000120009" y2="594.421" gradientUnits="userSpaceOnUse">
<stop stop-color="#0F4F6F"/>
<stop offset="1" stop-color="#20767F"/>
</linearGradient>
<linearGradient id="paint51_linear" x1="3217" y1="594.421" x2="0" y2="594.421" gradientUnits="userSpaceOnUse">
<stop stop-color="#0F4F6F"/>
<stop offset="1" stop-color="#20767F"/>
</linearGradient>
<linearGradient id="paint52_linear" x1="3217" y1="594.421" x2="0.000941757" y2="594.421" gradientUnits="userSpaceOnUse">
<stop stop-color="#0F4F6F"/>
<stop offset="1" stop-color="#20767F"/>
</linearGradient>
<linearGradient id="paint53_linear" x1="3217" y1="594.421" x2="0" y2="594.421" gradientUnits="userSpaceOnUse">
<stop stop-color="#0F4F6F"/>
<stop offset="1" stop-color="#20767F"/>
</linearGradient>
<linearGradient id="paint54_linear" x1="0.00390625" y1="483" x2="3217" y2="483" gradientUnits="userSpaceOnUse">
<stop stop-color="#20767F"/>
<stop offset="1" stop-color="#105070"/>
</linearGradient>
</defs>
</svg>
