<svg width="1422" height="263" viewBox="0 0 1422 263" fill="none" xmlns="http://www.w3.org/2000/svg">
<g clip-path="url(#clip0)">
<g filter="url(#filter0_d)">
<path d="M1569.7 -6.99463C1569.7 62.5718 1479.23 129.289 1318.19 178.481C1157.15 227.671 938.74 255.306 711 255.306C483.259 255.306 264.847 227.671 103.81 178.481C-57.2261 129.289 -147.696 62.5718 -147.696 -6.99459L711 -6.99463H1569.7Z" fill="#F4E8DC"/>
</g>
<path d="M356.524 95.1278C424.422 95.1278 479.464 38.7586 479.464 -30.7764C479.464 -100.311 424.422 -156.681 356.524 -156.681C288.627 -156.681 233.585 -100.311 233.585 -30.7764C233.585 38.7586 288.627 95.1278 356.524 95.1278Z" fill="#C8BBB3"/>
<path d="M990.345 198.649C1001.66 198.649 1010.84 189.254 1010.84 177.665C1010.84 166.076 1001.66 156.681 990.345 156.681C979.029 156.681 969.855 166.076 969.855 177.665C969.855 189.254 979.029 198.649 990.345 198.649Z" fill="#C8BBB3"/>
<path d="M1378.29 95.1278C1408.47 95.1278 1432.93 70.0748 1432.93 39.1703C1432.93 8.26589 1408.47 -16.7871 1378.29 -16.7871C1348.11 -16.7871 1323.65 8.26589 1323.65 39.1703C1323.65 70.0748 1348.11 95.1278 1378.29 95.1278Z" fill="#C8BBB3"/>
</g>
<defs>
<filter id="filter0_d" x="-162.696" y="-11.9946" width="1747.39" height="292.301" filterUnits="userSpaceOnUse" color-interpolation-filters="sRGB">
<feFlood flood-opacity="0" result="BackgroundImageFix"/>
<feColorMatrix in="SourceAlpha" type="matrix" values="0 0 0 0 0 0 0 0 0 0 0 0 0 0 0 0 0 0 127 0"/>
<feOffset dy="10"/>
<feGaussianBlur stdDeviation="7.5"/>
<feColorMatrix type="matrix" values="0 0 0 0 0.956863 0 0 0 0 0.909804 0 0 0 0 0.862745 0 0 0 0.25 0"/>
<feBlend mode="normal" in2="BackgroundImageFix" result="effect1_dropShadow"/>
<feBlend mode="normal" in="SourceGraphic" in2="effect1_dropShadow" result="shape"/>
</filter>
<clipPath id="clip0">
<rect width="1422" height="263" fill="white"/>
</clipPath>
</defs>
</svg>
