<svg width="3873" height="1028" viewBox="0 0 3873 1028" fill="none" xmlns="http://www.w3.org/2000/svg">
<path d="M448.5 447L1671.5 274.5L2902.5 512.5L3005 809H401L448.5 447Z" fill="url(#paint0_linear)"/>
<path d="M481 740C481 877.519 373.324 751 240.5 751C107.676 751 0 877.519 0 740C0 602.481 107.676 491 240.5 491C373.324 491 481 602.481 481 740Z" fill="url(#paint1_linear)"/>
<path d="M798 485.5C798 580.217 709.352 657 600 657C490.648 657 402 580.217 402 485.5C402 390.783 490.648 314 600 314C709.352 314 798 390.783 798 485.5Z" fill="url(#paint2_linear)"/>
<path d="M1376 376.5C1376 498.279 1236.76 597 1065 597C893.239 597 754 498.279 754 376.5C754 254.721 893.239 156 1065 156C1236.76 156 1376 254.721 1376 376.5Z" fill="url(#paint3_linear)"/>
<path d="M1750 166C1750 257.679 1634.04 332 1491 332C1347.96 332 1232 257.679 1232 166C1232 74.3207 1347.96 0 1491 0C1634.04 0 1750 74.3207 1750 166Z" fill="url(#paint4_linear)"/>
<path d="M1821 357C1821 413.333 1775.33 459 1719 459C1662.67 459 1617 413.333 1617 357C1617 300.667 1662.67 255 1719 255C1775.33 255 1821 300.667 1821 357Z" fill="url(#paint5_linear)"/>
<path d="M2339 215C2339 333.741 2188.57 430 2003 430C1817.43 430 1667 333.741 1667 215C1667 96.2588 1817.43 0 2003 0C2188.57 0 2339 96.2588 2339 215Z" fill="url(#paint6_linear)"/>
<path d="M2758 430.5C2758 531.292 2639.36 613 2493 613C2346.64 613 2228 531.292 2228 430.5C2228 329.708 2346.64 248 2493 248C2639.36 248 2758 329.708 2758 430.5Z" fill="url(#paint7_linear)"/>
<path d="M3265 565.5C3265 667.949 3139.64 751 2985 751C2830.36 751 2705 667.949 2705 565.5C2705 463.051 2830.36 380 2985 380C3139.64 380 3265 463.051 3265 565.5Z" fill="url(#paint8_linear)"/>
<path d="M3547 623C3547 686.513 3388.4 815.5 3297 815.5C3205.6 815.5 3216 686.513 3216 623C3216 559.487 3290.1 508 3381.5 508C3472.9 508 3547 559.487 3547 623Z" fill="url(#paint9_linear)"/>
<path d="M3873 748C3873 801.572 3766 845 3634 845C3502 845 3395 801.572 3395 748C3395 694.428 3502 651 3634 651C3766 651 3873 694.428 3873 748Z" fill="url(#paint10_linear)"/>
<path d="M1487 355.5C1487 396.645 1450.51 430 1405.5 430C1360.49 430 1324 396.645 1324 355.5C1324 314.355 1360.49 281 1405.5 281C1450.51 281 1487 314.355 1487 355.5Z" fill="url(#paint11_linear)"/>
<path d="M2346 381.5C2346 455.23 2269.22 515 2174.5 515C2079.78 515 2003 455.23 2003 381.5C2003 307.77 2079.78 248 2174.5 248C2269.22 248 2346 307.77 2346 381.5Z" fill="url(#paint12_linear)"/>
<path d="M3521 838C3521 893.228 3392.95 938 3235 938C3077.05 938 2949 893.228 2949 838C2949 782.772 3077.05 738 3235 738C3392.95 738 3521 782.772 3521 838Z" fill="url(#paint13_linear)"/>
<path d="M455 852.5C455 922.364 353.145 979 227.5 979C101.855 979 0 922.364 0 852.5C0 782.636 101.855 726 227.5 726C353.145 726 455 782.636 455 852.5Z" fill="url(#paint14_linear)"/>
<path d="M667 790C667 894.382 591.56 979 498.5 979C405.44 979 330 894.382 330 790C330 685.618 405.44 601 498.5 601C591.56 601 667 685.618 667 790Z" fill="url(#paint15_linear)"/>
<path d="M995 749C995 856.143 909.71 943 804.5 943C699.29 943 614 856.143 614 749C614 641.857 699.29 555 804.5 555C909.71 555 995 641.857 995 749Z" fill="url(#paint16_linear)"/>
<path d="M1719 679C1719 859.597 1550.66 1006 1343 1006C1135.34 1006 967 859.597 967 679C967 498.403 1135.34 352 1343 352C1550.66 352 1719 498.403 1719 679Z" fill="url(#paint17_linear)"/>
<path d="M2055 637C2055 794.401 1962.1 922 1847.5 922C1732.9 922 1640 794.401 1640 637C1640 479.599 1732.9 352 1847.5 352C1962.1 352 2055 479.599 2055 637Z" fill="url(#paint18_linear)"/>
<path d="M2354 628C2354 736.248 2274.31 824 2176 824C2077.69 824 1998 736.248 1998 628C1998 519.752 2077.69 432 2176 432C2274.31 432 2354 519.752 2354 628Z" fill="url(#paint19_linear)"/>
<path d="M2875 611.5C2875 724.442 2749.64 816 2595 816C2440.36 816 2315 724.442 2315 611.5C2315 498.558 2440.36 407 2595 407C2749.64 407 2875 498.558 2875 611.5Z" fill="url(#paint20_linear)"/>
<path d="M3127 705C3127 777.902 3060.51 837 2978.5 837C2896.49 837 2830 777.902 2830 705C2830 632.098 2896.49 573 2978.5 573C3060.51 573 3127 632.098 3127 705Z" fill="url(#paint21_linear)"/>
<path d="M3531 722C3531 819.202 3432.73 898 3311.5 898C3190.27 898 3092 819.202 3092 722C3092 624.798 3190.27 546 3311.5 546C3432.73 546 3531 624.798 3531 722Z" fill="url(#paint22_linear)"/>
<path d="M2089 738C2089 765.614 2066.61 788 2039 788C2011.39 788 1989 765.614 1989 738C1989 710.386 2011.39 688 2039 688C2066.61 688 2089 710.386 2089 738Z" fill="url(#paint23_linear)"/>
<path d="M2430 725.5C2430 760.018 2395.75 788 2353.5 788C2311.25 788 2277 760.018 2277 725.5C2277 690.982 2311.25 663 2353.5 663C2395.75 663 2430 690.982 2430 725.5Z" fill="url(#paint24_linear)"/>
<path d="M2868 734C2868 761.614 2845.61 784 2818 784C2790.39 784 2768 761.614 2768 734C2768 706.386 2790.39 684 2818 684C2845.61 684 2868 706.386 2868 734Z" fill="url(#paint25_linear)"/>
<path d="M2619 821C2619 923.173 2481.33 1006 2311.5 1006C2141.67 1006 2004 923.173 2004 821C2004 718.827 2141.67 636 2311.5 636C2481.33 636 2619 718.827 2619 821Z" fill="url(#paint26_linear)"/>
<path d="M3158 821C3158 935.323 3030.18 1028 2872.5 1028C2714.82 1028 2587 935.323 2587 821C2587 706.677 2714.82 614 2872.5 614C3030.18 614 3158 706.677 3158 821Z" fill="url(#paint27_linear)"/>
<defs>
<linearGradient id="paint0_linear" x1="3005" y1="648" x2="401" y2="660.5" gradientUnits="userSpaceOnUse">
<stop stop-color="#124763"/>
<stop offset="1" stop-color="#1E717C"/>
</linearGradient>
<linearGradient id="paint1_linear" x1="3822" y1="773.5" x2="3.0626e-05" y2="807" gradientUnits="userSpaceOnUse">
<stop stop-color="#0D395A"/>
<stop offset="1" stop-color="#207880"/>
</linearGradient>
<linearGradient id="paint2_linear" x1="3822" y1="773.5" x2="3.0626e-05" y2="807" gradientUnits="userSpaceOnUse">
<stop stop-color="#0D395A"/>
<stop offset="1" stop-color="#207880"/>
</linearGradient>
<linearGradient id="paint3_linear" x1="3822" y1="773.5" x2="3.0626e-05" y2="807" gradientUnits="userSpaceOnUse">
<stop stop-color="#0D395A"/>
<stop offset="1" stop-color="#207880"/>
</linearGradient>
<linearGradient id="paint4_linear" x1="3822" y1="773.5" x2="3.0626e-05" y2="807" gradientUnits="userSpaceOnUse">
<stop stop-color="#0D395A"/>
<stop offset="1" stop-color="#207880"/>
</linearGradient>
<linearGradient id="paint5_linear" x1="3822" y1="773.5" x2="3.0626e-05" y2="807" gradientUnits="userSpaceOnUse">
<stop stop-color="#0D395A"/>
<stop offset="1" stop-color="#207880"/>
</linearGradient>
<linearGradient id="paint6_linear" x1="3822" y1="773.5" x2="3.0626e-05" y2="807" gradientUnits="userSpaceOnUse">
<stop stop-color="#0D395A"/>
<stop offset="1" stop-color="#207880"/>
</linearGradient>
<linearGradient id="paint7_linear" x1="3822" y1="773.5" x2="3.0626e-05" y2="807" gradientUnits="userSpaceOnUse">
<stop stop-color="#0D395A"/>
<stop offset="1" stop-color="#207880"/>
</linearGradient>
<linearGradient id="paint8_linear" x1="3822" y1="773.5" x2="3.0626e-05" y2="807" gradientUnits="userSpaceOnUse">
<stop stop-color="#0D395A"/>
<stop offset="1" stop-color="#207880"/>
</linearGradient>
<linearGradient id="paint9_linear" x1="3822" y1="773.5" x2="3.0626e-05" y2="807" gradientUnits="userSpaceOnUse">
<stop stop-color="#0D395A"/>
<stop offset="1" stop-color="#207880"/>
</linearGradient>
<linearGradient id="paint10_linear" x1="3822" y1="773.5" x2="3.0626e-05" y2="807" gradientUnits="userSpaceOnUse">
<stop stop-color="#0D395A"/>
<stop offset="1" stop-color="#207880"/>
</linearGradient>
<linearGradient id="paint11_linear" x1="3822" y1="773.5" x2="3.0626e-05" y2="807" gradientUnits="userSpaceOnUse">
<stop stop-color="#0D395A"/>
<stop offset="1" stop-color="#207880"/>
</linearGradient>
<linearGradient id="paint12_linear" x1="3822" y1="773.5" x2="3.0626e-05" y2="807" gradientUnits="userSpaceOnUse">
<stop stop-color="#0D395A"/>
<stop offset="1" stop-color="#207880"/>
</linearGradient>
<linearGradient id="paint13_linear" x1="3822" y1="773.5" x2="3.0626e-05" y2="807" gradientUnits="userSpaceOnUse">
<stop stop-color="#0D395A"/>
<stop offset="1" stop-color="#207880"/>
</linearGradient>
<linearGradient id="paint14_linear" x1="3531" y1="689.999" x2="1.35495e-05" y2="689.999" gradientUnits="userSpaceOnUse">
<stop stop-color="#0E4468"/>
<stop offset="1" stop-color="#13A6A3"/>
</linearGradient>
<linearGradient id="paint15_linear" x1="3531" y1="689.999" x2="1.35495e-05" y2="689.999" gradientUnits="userSpaceOnUse">
<stop stop-color="#0E4468"/>
<stop offset="1" stop-color="#13A6A3"/>
</linearGradient>
<linearGradient id="paint16_linear" x1="3531" y1="689.999" x2="1.35495e-05" y2="689.999" gradientUnits="userSpaceOnUse">
<stop stop-color="#0E4468"/>
<stop offset="1" stop-color="#13A6A3"/>
</linearGradient>
<linearGradient id="paint17_linear" x1="3531" y1="689.999" x2="1.35495e-05" y2="689.999" gradientUnits="userSpaceOnUse">
<stop stop-color="#0E4468"/>
<stop offset="1" stop-color="#13A6A3"/>
</linearGradient>
<linearGradient id="paint18_linear" x1="3531" y1="689.999" x2="1.35495e-05" y2="689.999" gradientUnits="userSpaceOnUse">
<stop stop-color="#0E4468"/>
<stop offset="1" stop-color="#13A6A3"/>
</linearGradient>
<linearGradient id="paint19_linear" x1="3531" y1="689.999" x2="1.35495e-05" y2="689.999" gradientUnits="userSpaceOnUse">
<stop stop-color="#0E4468"/>
<stop offset="1" stop-color="#13A6A3"/>
</linearGradient>
<linearGradient id="paint20_linear" x1="3531" y1="689.999" x2="1.35495e-05" y2="689.999" gradientUnits="userSpaceOnUse">
<stop stop-color="#0E4468"/>
<stop offset="1" stop-color="#13A6A3"/>
</linearGradient>
<linearGradient id="paint21_linear" x1="3531" y1="689.999" x2="1.35495e-05" y2="689.999" gradientUnits="userSpaceOnUse">
<stop stop-color="#0E4468"/>
<stop offset="1" stop-color="#13A6A3"/>
</linearGradient>
<linearGradient id="paint22_linear" x1="3531" y1="689.999" x2="1.35495e-05" y2="689.999" gradientUnits="userSpaceOnUse">
<stop stop-color="#0E4468"/>
<stop offset="1" stop-color="#13A6A3"/>
</linearGradient>
<linearGradient id="paint23_linear" x1="3531" y1="689.999" x2="1.35495e-05" y2="689.999" gradientUnits="userSpaceOnUse">
<stop stop-color="#0E4468"/>
<stop offset="1" stop-color="#13A6A3"/>
</linearGradient>
<linearGradient id="paint24_linear" x1="3531" y1="689.999" x2="1.35495e-05" y2="689.999" gradientUnits="userSpaceOnUse">
<stop stop-color="#0E4468"/>
<stop offset="1" stop-color="#13A6A3"/>
</linearGradient>
<linearGradient id="paint25_linear" x1="3531" y1="689.999" x2="1.35495e-05" y2="689.999" gradientUnits="userSpaceOnUse">
<stop stop-color="#0E4468"/>
<stop offset="1" stop-color="#13A6A3"/>
</linearGradient>
<linearGradient id="paint26_linear" x1="3531" y1="689.999" x2="1.35495e-05" y2="689.999" gradientUnits="userSpaceOnUse">
<stop stop-color="#0E4468"/>
<stop offset="1" stop-color="#13A6A3"/>
</linearGradient>
<linearGradient id="paint27_linear" x1="3531" y1="689.999" x2="1.35495e-05" y2="689.999" gradientUnits="userSpaceOnUse">
<stop stop-color="#0E4468"/>
<stop offset="1" stop-color="#13A6A3"/>
</linearGradient>
</defs>
</svg>
