<svg width="4130" height="938" viewBox="0 0 4130 938" fill="none" xmlns="http://www.w3.org/2000/svg">
<path d="M738 740C738 877.519 630.324 751 497.5 751C364.676 751 257 877.519 257 740C257 602.481 364.676 491 497.5 491C630.324 491 738 602.481 738 740Z" fill="url(#paint0_linear)"/>
<path d="M1055 485.5C1055 580.217 966.352 657 857 657C747.648 657 659 580.217 659 485.5C659 390.783 747.648 314 857 314C966.352 314 1055 390.783 1055 485.5Z" fill="url(#paint1_linear)"/>
<path d="M1633 376.5C1633 498.279 1493.76 597 1322 597C1150.24 597 1011 498.279 1011 376.5C1011 254.721 1150.24 156 1322 156C1493.76 156 1633 254.721 1633 376.5Z" fill="url(#paint2_linear)"/>
<path d="M2007 166C2007 257.679 1891.04 332 1748 332C1604.96 332 1489 257.679 1489 166C1489 74.3207 1604.96 0 1748 0C1891.04 0 2007 74.3207 2007 166Z" fill="url(#paint3_linear)"/>
<path d="M2078 357C2078 413.333 2032.33 459 1976 459C1919.67 459 1874 413.333 1874 357C1874 300.667 1919.67 255 1976 255C2032.33 255 2078 300.667 2078 357Z" fill="url(#paint4_linear)"/>
<path d="M2596 215C2596 333.741 2445.57 430 2260 430C2074.43 430 1924 333.741 1924 215C1924 96.2588 2074.43 0 2260 0C2445.57 0 2596 96.2588 2596 215Z" fill="url(#paint5_linear)"/>
<path d="M3015 430.5C3015 531.292 2896.36 613 2750 613C2603.64 613 2485 531.292 2485 430.5C2485 329.708 2603.64 248 2750 248C2896.36 248 3015 329.708 3015 430.5Z" fill="url(#paint6_linear)"/>
<path d="M3522 565.5C3522 667.949 3396.64 751 3242 751C3087.36 751 2962 667.949 2962 565.5C2962 463.051 3087.36 380 3242 380C3396.64 380 3522 463.051 3522 565.5Z" fill="url(#paint7_linear)"/>
<path d="M3804 623C3804 686.513 3645.4 815.5 3554 815.5C3462.6 815.5 3473 686.513 3473 623C3473 559.487 3547.1 508 3638.5 508C3729.9 508 3804 559.487 3804 623Z" fill="url(#paint8_linear)"/>
<path d="M4130 748C4130 801.572 4023 845 3891 845C3759 845 3652 801.572 3652 748C3652 694.428 3759 651 3891 651C4023 651 4130 694.428 4130 748Z" fill="url(#paint9_linear)"/>
<path d="M1744 355.5C1744 396.645 1707.51 430 1662.5 430C1617.49 430 1581 396.645 1581 355.5C1581 314.355 1617.49 281 1662.5 281C1707.51 281 1744 314.355 1744 355.5Z" fill="url(#paint10_linear)"/>
<path d="M2603 381.5C2603 455.23 2526.22 515 2431.5 515C2336.78 515 2260 455.23 2260 381.5C2260 307.77 2336.78 248 2431.5 248C2526.22 248 2603 307.77 2603 381.5Z" fill="url(#paint11_linear)"/>
<path d="M3778 838C3778 893.228 3649.95 938 3492 938C3334.05 938 3206 893.228 3206 838C3206 782.772 3334.05 738 3492 738C3649.95 738 3778 782.772 3778 838Z" fill="url(#paint12_linear)"/>
<path d="M455 775.5C455 845.364 353.145 902 227.5 902C101.855 902 0 845.364 0 775.5C0 705.636 101.855 649 227.5 649C353.145 649 455 705.636 455 775.5Z" fill="url(#paint13_linear)"/>
<path d="M667 713C667 817.382 591.56 902 498.5 902C405.44 902 330 817.382 330 713C330 608.618 405.44 524 498.5 524C591.56 524 667 608.618 667 713Z" fill="url(#paint14_linear)"/>
<path d="M995 672C995 779.143 909.71 866 804.5 866C699.29 866 614 779.143 614 672C614 564.857 699.29 478 804.5 478C909.71 478 995 564.857 995 672Z" fill="url(#paint15_linear)"/>
<path d="M1719 602C1719 782.597 1550.66 929 1343 929C1135.34 929 967 782.597 967 602C967 421.403 1135.34 275 1343 275C1550.66 275 1719 421.403 1719 602Z" fill="url(#paint16_linear)"/>
<path d="M2055 560C2055 717.401 1962.1 845 1847.5 845C1732.9 845 1640 717.401 1640 560C1640 402.599 1732.9 275 1847.5 275C1962.1 275 2055 402.599 2055 560Z" fill="url(#paint17_linear)"/>
<path d="M2354 551C2354 659.248 2274.31 747 2176 747C2077.69 747 1998 659.248 1998 551C1998 442.752 2077.69 355 2176 355C2274.31 355 2354 442.752 2354 551Z" fill="url(#paint18_linear)"/>
<path d="M2875 534.5C2875 647.442 2749.64 739 2595 739C2440.36 739 2315 647.442 2315 534.5C2315 421.558 2440.36 330 2595 330C2749.64 330 2875 421.558 2875 534.5Z" fill="url(#paint19_linear)"/>
<path d="M3127 628C3127 700.902 3060.51 760 2978.5 760C2896.49 760 2830 700.902 2830 628C2830 555.098 2896.49 496 2978.5 496C3060.51 496 3127 555.098 3127 628Z" fill="url(#paint20_linear)"/>
<path d="M3531 645C3531 742.202 3432.73 821 3311.5 821C3190.27 821 3092 742.202 3092 645C3092 547.798 3190.27 469 3311.5 469C3432.73 469 3531 547.798 3531 645Z" fill="url(#paint21_linear)"/>
<path d="M2089 661C2089 688.614 2066.61 711 2039 711C2011.39 711 1989 688.614 1989 661C1989 633.386 2011.39 611 2039 611C2066.61 611 2089 633.386 2089 661Z" fill="url(#paint22_linear)"/>
<path d="M2430 648.5C2430 683.018 2395.75 711 2353.5 711C2311.25 711 2277 683.018 2277 648.5C2277 613.982 2311.25 586 2353.5 586C2395.75 586 2430 613.982 2430 648.5Z" fill="url(#paint23_linear)"/>
<path d="M2868 657C2868 684.614 2845.61 707 2818 707C2790.39 707 2768 684.614 2768 657C2768 629.386 2790.39 607 2818 607C2845.61 607 2868 629.386 2868 657Z" fill="url(#paint24_linear)"/>
<defs>
<linearGradient id="paint0_linear" x1="4079" y1="773.5" x2="257" y2="807" gradientUnits="userSpaceOnUse">
<stop stop-color="#0D395A"/>
<stop offset="1" stop-color="#207880"/>
</linearGradient>
<linearGradient id="paint1_linear" x1="4079" y1="773.5" x2="257" y2="807" gradientUnits="userSpaceOnUse">
<stop stop-color="#0D395A"/>
<stop offset="1" stop-color="#207880"/>
</linearGradient>
<linearGradient id="paint2_linear" x1="4079" y1="773.5" x2="257" y2="807" gradientUnits="userSpaceOnUse">
<stop stop-color="#0D395A"/>
<stop offset="1" stop-color="#207880"/>
</linearGradient>
<linearGradient id="paint3_linear" x1="4079" y1="773.5" x2="257" y2="807" gradientUnits="userSpaceOnUse">
<stop stop-color="#0D395A"/>
<stop offset="1" stop-color="#207880"/>
</linearGradient>
<linearGradient id="paint4_linear" x1="4079" y1="773.5" x2="257" y2="807" gradientUnits="userSpaceOnUse">
<stop stop-color="#0D395A"/>
<stop offset="1" stop-color="#207880"/>
</linearGradient>
<linearGradient id="paint5_linear" x1="4079" y1="773.5" x2="257" y2="807" gradientUnits="userSpaceOnUse">
<stop stop-color="#0D395A"/>
<stop offset="1" stop-color="#207880"/>
</linearGradient>
<linearGradient id="paint6_linear" x1="4079" y1="773.5" x2="257" y2="807" gradientUnits="userSpaceOnUse">
<stop stop-color="#0D395A"/>
<stop offset="1" stop-color="#207880"/>
</linearGradient>
<linearGradient id="paint7_linear" x1="4079" y1="773.5" x2="257" y2="807" gradientUnits="userSpaceOnUse">
<stop stop-color="#0D395A"/>
<stop offset="1" stop-color="#207880"/>
</linearGradient>
<linearGradient id="paint8_linear" x1="4079" y1="773.5" x2="257" y2="807" gradientUnits="userSpaceOnUse">
<stop stop-color="#0D395A"/>
<stop offset="1" stop-color="#207880"/>
</linearGradient>
<linearGradient id="paint9_linear" x1="4079" y1="773.5" x2="257" y2="807" gradientUnits="userSpaceOnUse">
<stop stop-color="#0D395A"/>
<stop offset="1" stop-color="#207880"/>
</linearGradient>
<linearGradient id="paint10_linear" x1="4079" y1="773.5" x2="257" y2="807" gradientUnits="userSpaceOnUse">
<stop stop-color="#0D395A"/>
<stop offset="1" stop-color="#207880"/>
</linearGradient>
<linearGradient id="paint11_linear" x1="4079" y1="773.5" x2="257" y2="807" gradientUnits="userSpaceOnUse">
<stop stop-color="#0D395A"/>
<stop offset="1" stop-color="#207880"/>
</linearGradient>
<linearGradient id="paint12_linear" x1="4079" y1="773.5" x2="257" y2="807" gradientUnits="userSpaceOnUse">
<stop stop-color="#0D395A"/>
<stop offset="1" stop-color="#207880"/>
</linearGradient>
<linearGradient id="paint13_linear" x1="3531" y1="680" x2="3.07089e-05" y2="658" gradientUnits="userSpaceOnUse">
<stop stop-color="#0F4265"/>
<stop offset="1" stop-color="#19A9A6"/>
</linearGradient>
<linearGradient id="paint14_linear" x1="3531" y1="680" x2="3.07089e-05" y2="658" gradientUnits="userSpaceOnUse">
<stop stop-color="#0F4265"/>
<stop offset="1" stop-color="#19A9A6"/>
</linearGradient>
<linearGradient id="paint15_linear" x1="3531" y1="680" x2="3.07089e-05" y2="658" gradientUnits="userSpaceOnUse">
<stop stop-color="#0F4265"/>
<stop offset="1" stop-color="#19A9A6"/>
</linearGradient>
<linearGradient id="paint16_linear" x1="3531" y1="680" x2="3.07089e-05" y2="658" gradientUnits="userSpaceOnUse">
<stop stop-color="#0F4265"/>
<stop offset="1" stop-color="#19A9A6"/>
</linearGradient>
<linearGradient id="paint17_linear" x1="3531" y1="680" x2="3.07089e-05" y2="658" gradientUnits="userSpaceOnUse">
<stop stop-color="#0F4265"/>
<stop offset="1" stop-color="#19A9A6"/>
</linearGradient>
<linearGradient id="paint18_linear" x1="3531" y1="680" x2="3.07089e-05" y2="658" gradientUnits="userSpaceOnUse">
<stop stop-color="#0F4265"/>
<stop offset="1" stop-color="#19A9A6"/>
</linearGradient>
<linearGradient id="paint19_linear" x1="3531" y1="680" x2="3.07089e-05" y2="658" gradientUnits="userSpaceOnUse">
<stop stop-color="#0F4265"/>
<stop offset="1" stop-color="#19A9A6"/>
</linearGradient>
<linearGradient id="paint20_linear" x1="3531" y1="680" x2="3.07089e-05" y2="658" gradientUnits="userSpaceOnUse">
<stop stop-color="#0F4265"/>
<stop offset="1" stop-color="#19A9A6"/>
</linearGradient>
<linearGradient id="paint21_linear" x1="3531" y1="680" x2="3.07089e-05" y2="658" gradientUnits="userSpaceOnUse">
<stop stop-color="#0F4265"/>
<stop offset="1" stop-color="#19A9A6"/>
</linearGradient>
<linearGradient id="paint22_linear" x1="3531" y1="680" x2="3.07089e-05" y2="658" gradientUnits="userSpaceOnUse">
<stop stop-color="#0F4265"/>
<stop offset="1" stop-color="#19A9A6"/>
</linearGradient>
<linearGradient id="paint23_linear" x1="3531" y1="680" x2="3.07089e-05" y2="658" gradientUnits="userSpaceOnUse">
<stop stop-color="#0F4265"/>
<stop offset="1" stop-color="#19A9A6"/>
</linearGradient>
<linearGradient id="paint24_linear" x1="3531" y1="680" x2="3.07089e-05" y2="658" gradientUnits="userSpaceOnUse">
<stop stop-color="#0F4265"/>
<stop offset="1" stop-color="#19A9A6"/>
</linearGradient>
</defs>
</svg>
