<svg width="2895" height="1324" viewBox="0 0 2895 1324" fill="none" xmlns="http://www.w3.org/2000/svg">
<path d="M2398.72 904.5C2398.72 830.77 2339.79 771 2267.1 771C2194.41 771 2135.49 830.77 2135.49 904.5C2135.49 978.23 2194.41 1038 2267.1 1038C2339.79 1038 2398.72 978.23 2398.72 904.5Z" fill="url(#paint0_linear)"/>
<path d="M1712.12 747C1712.12 705.579 1678.48 672 1636.98 672C1595.49 672 1561.85 705.579 1561.85 747C1561.85 788.421 1595.49 822 1636.98 822C1678.48 822 1712.12 788.421 1712.12 747Z" fill="url(#paint1_linear)"/>
<path d="M1832.93 794C1832.93 759.758 1800.19 732 1759.81 732C1719.43 732 1686.69 759.758 1686.69 794C1686.69 828.242 1719.43 856 1759.81 856C1800.19 856 1832.93 828.242 1832.93 794Z" fill="url(#paint2_linear)"/>
<path d="M1952.94 816C1952.94 777.892 1919.98 747 1879.32 747C1838.66 747 1805.7 777.892 1805.7 816C1805.7 854.108 1838.66 885 1879.32 885C1919.98 885 1952.94 854.108 1952.94 816Z" fill="url(#paint3_linear)"/>
<path d="M2228.27 769.5C2228.27 693.561 2158.06 632 2071.45 632C1984.83 632 1914.62 693.561 1914.62 769.5C1914.62 845.439 1984.83 907 2071.45 907C2158.06 907 2228.27 845.439 2228.27 769.5Z" fill="url(#paint4_linear)"/>
<path d="M3023 1184.5C3023 1107.46 2946.92 1045 2853.06 1045C2759.21 1045 2683.12 1107.46 2683.12 1184.5C2683.12 1261.54 2759.21 1324 2853.06 1324C2946.92 1324 3023 1261.54 3023 1184.5Z" fill="url(#paint5_linear)"/>
<path d="M2795.07 1104.5C2795.07 1030.77 2736.15 971 2663.46 971C2590.77 971 2531.84 1030.77 2531.84 1104.5C2531.84 1178.23 2590.77 1238 2663.46 1238C2736.15 1238 2795.07 1178.23 2795.07 1104.5Z" fill="url(#paint6_linear)"/>
<path d="M2560.7 1085C2560.7 1040.82 2527.06 1005 2485.56 1005C2444.07 1005 2410.43 1040.82 2410.43 1085C2410.43 1129.18 2444.07 1165 2485.56 1165C2527.06 1165 2560.7 1129.18 2560.7 1085Z" fill="url(#paint7_linear)"/>
<path d="M2456.2 1041C2456.2 1002.34 2423.24 971 2382.58 971C2341.92 971 2308.96 1002.34 2308.96 1041C2308.96 1079.66 2341.92 1111 2382.58 1111C2423.24 1111 2456.2 1079.66 2456.2 1041Z" fill="url(#paint8_linear)"/>
<path d="M457.283 904.5C457.283 830.77 516.208 771 588.897 771C661.585 771 720.511 830.77 720.511 904.5C720.511 978.23 661.585 1038 588.897 1038C516.208 1038 457.283 978.23 457.283 904.5Z" fill="url(#paint9_linear)"/>
<path d="M1131.24 747C1131.24 705.579 1164.88 672 1206.38 672C1247.87 672 1281.51 705.579 1281.51 747C1281.51 788.421 1247.87 822 1206.38 822C1164.88 822 1131.24 788.421 1131.24 747Z" fill="url(#paint10_linear)"/>
<path d="M1023.07 794C1023.07 759.758 1055.81 732 1096.19 732C1136.57 732 1169.31 759.758 1169.31 794C1169.31 828.242 1136.57 856 1096.19 856C1055.81 856 1023.07 828.242 1023.07 794Z" fill="url(#paint11_linear)"/>
<path d="M903.057 816C903.057 777.892 936.019 747 976.68 747C1017.34 747 1050.3 777.892 1050.3 816C1050.3 854.108 1017.34 885 976.68 885C936.019 885 903.057 854.108 903.057 816Z" fill="url(#paint12_linear)"/>
<path d="M627.727 769.5C627.727 693.561 697.941 632 784.554 632C871.167 632 941.381 693.561 941.381 769.5C941.381 845.439 871.167 907 784.554 907C697.941 907 627.727 845.439 627.727 769.5Z" fill="url(#paint13_linear)"/>
<path d="M-167 1184.5C-167 1107.46 -90.916 1045 2.93835 1045C96.793 1045 172.877 1107.46 172.877 1184.5C172.877 1261.54 96.793 1324 2.93835 1324C-90.916 1324 -167 1261.54 -167 1184.5Z" fill="url(#paint14_linear)"/>
<path d="M60.9297 1104.5C60.9297 1030.77 119.855 971 192.543 971C265.232 971 324.158 1030.77 324.158 1104.5C324.158 1178.23 265.232 1238 192.543 1238C119.855 1238 60.9297 1178.23 60.9297 1104.5Z" fill="url(#paint15_linear)"/>
<path d="M283.527 1065.5C283.527 1021.32 317.167 985.5 358.663 985.5C400.16 985.5 433.799 1021.32 433.799 1065.5C433.799 1109.68 400.16 1145.5 358.663 1145.5C317.167 1145.5 283.527 1109.68 283.527 1065.5Z" fill="url(#paint16_linear)"/>
<path d="M399.797 1041C399.797 1002.34 432.76 971 473.42 971C514.081 971 547.044 1002.34 547.044 1041C547.044 1079.66 514.081 1111 473.42 1111C432.76 1111 399.797 1079.66 399.797 1041Z" fill="url(#paint17_linear)"/>
<path d="M-10.6777 1085H501.658L653.461 845L1134.68 769.5L1320.5 699.5L501.658 667L237.499 650L-10.6777 718V1085Z" fill="url(#paint18_linear)"/>
<path d="M2894.92 1085H2382.58L2202.54 845L1653.5 769.5L1601 699.5L2150.62 614L2382.58 667L2894.92 718V1085Z" fill="url(#paint19_linear)"/>
<path d="M0.345612 319.298C100.498 319.298 181.688 247.821 181.688 159.649C181.688 71.477 100.498 0 0.345612 0C-99.8067 0 -180.996 71.477 -180.996 159.649C-180.996 247.821 -99.8067 319.298 0.345612 319.298Z" fill="url(#paint20_linear)"/>
<path d="M181.688 451.275C281.84 451.275 701.514 567 363.03 291.626C363.03 203.454 281.84 131.977 181.688 131.977C81.5359 131.977 0.345703 203.454 0.345703 291.626C0.345703 379.798 81.5359 451.275 181.688 451.275Z" fill="url(#paint21_linear)"/>
<path d="M1616.7 489.591C1716.86 489.591 1798.05 418.113 1798.05 329.942C1798.05 241.77 1716.86 170.292 1616.7 170.292C1516.55 170.292 1435.36 241.77 1435.36 329.942C1435.36 408.603 1516.55 489.591 1616.7 489.591Z" fill="url(#paint22_linear)"/>
<path d="M1882.67 509.813C1966.13 509.813 2033.79 450.249 2033.79 376.772C2033.79 303.296 1966.13 243.731 1882.67 243.731C1799.21 243.731 1731.55 303.296 1731.55 376.772C1731.55 450.249 1799.21 509.813 1882.67 509.813Z" fill="url(#paint23_linear)"/>
<path d="M1024.32 505.556C1107.78 505.556 1175.44 445.991 1175.44 372.515C1175.44 299.038 1107.78 239.474 1024.32 239.474C940.858 239.474 873.201 299.038 873.201 372.515C873.201 445.991 940.858 505.556 1024.32 505.556Z" fill="url(#paint24_linear)"/>
<path d="M1254.02 493.848C1354.18 493.848 1435.36 422.371 1435.36 334.199C1435.36 246.027 1354.18 174.55 1254.02 174.55C1153.87 174.55 1072.69 246.027 1072.69 334.199C1072.69 422.371 1153.87 493.848 1254.02 493.848Z" fill="url(#paint25_linear)"/>
<path d="M2129.3 536.421C2229.45 536.421 2310.65 464.944 2310.65 376.772C2310.65 288.6 2229.45 217.123 2129.3 217.123C2029.15 217.123 1947.96 288.6 1947.96 376.772C1947.96 464.944 2029.15 536.421 2129.3 536.421Z" fill="url(#paint26_linear)"/>
<path d="M787.367 536.421C887.519 536.421 968.709 464.944 968.709 376.772C968.709 288.6 887.519 217.123 787.367 217.123C687.214 217.123 606.025 288.6 606.025 376.772C606.025 464.944 687.214 536.421 787.367 536.421Z" fill="url(#paint27_linear)"/>
<path d="M527.445 451.275C600.889 451.275 660.428 398.858 660.428 334.199C660.428 269.54 600.889 217.123 527.445 217.123C454 217.123 394.461 269.54 394.461 334.199C394.461 398.858 454 451.275 527.445 451.275Z" fill="url(#paint28_linear)"/>
<path d="M2359 451.275C2432.44 451.275 2491.98 398.858 2491.98 334.199C2491.98 269.54 2432.44 217.123 2359 217.123C2285.56 217.123 2226.01 269.54 2226.01 334.199C2226.01 398.858 2285.56 451.275 2359 451.275Z" fill="url(#paint29_linear)"/>
<path d="M2673.32 460.854C2773.47 460.854 2854.66 389.377 2854.66 301.205C2854.66 213.033 2773.47 141.556 2673.32 141.556C2573.17 141.556 2491.98 213.033 2491.98 301.205C2201.23 562.5 2573.17 460.854 2673.32 460.854Z" fill="url(#paint30_linear)"/>
<path d="M1428.11 319.298C1478.19 319.298 1518.78 283.56 1518.78 239.474C1518.78 195.388 1478.19 159.649 1428.11 159.649C1378.04 159.649 1337.44 195.388 1337.44 239.474C1337.44 283.56 1378.04 319.298 1428.11 319.298Z" fill="url(#paint31_linear)"/>
<path d="M363.028 420.41C419.781 420.41 465.788 379.906 465.788 329.942C465.788 279.978 419.781 239.474 363.028 239.474C306.275 239.474 260.268 279.978 260.268 329.942C260.268 379.906 306.275 420.41 363.028 420.41Z" fill="url(#paint32_linear)"/>
<path d="M2491.98 420.41C2548.73 420.41 2594.74 379.906 2594.74 329.942C2594.74 279.978 2548.73 239.474 2491.98 239.474C2435.23 239.474 2389.22 279.978 2389.22 329.942C2389.22 379.906 2435.23 420.41 2491.98 420.41Z" fill="url(#paint33_linear)"/>
<path d="M2854.66 319.298C2954.81 319.298 3036 247.821 3036 159.649C3036 71.477 2954.81 0 2854.66 0C2754.51 0 2673.32 71.477 2673.32 159.649C2673.32 247.821 2754.51 319.298 2854.66 319.298Z" fill="url(#paint34_linear)"/>
<path d="M181.688 217.123L-180.996 159.649V536.421H181.688V217.123Z" fill="url(#paint35_linear)"/>
<path d="M3036 159.649L2673.32 217.123V536.421H3036V159.649Z" fill="url(#paint36_linear)"/>
<path d="M2854.66 442.012C2754.51 442.012 2673.32 513.489 2673.32 601.661C2673.32 689.833 2754.51 761.31 2854.66 761.31C2954.81 761.31 3036 689.833 3036 601.661C3036 513.489 2954.81 442.012 2854.66 442.012Z" fill="url(#paint37_linear)"/>
<path d="M2686.88 432.434C2586.73 432.434 2505.54 503.911 2505.54 592.083C2505.54 680.255 2586.73 751.732 2686.88 751.732C2787.03 751.732 2868.22 680.255 2868.22 592.083C2868.22 503.911 2787.03 432.434 2686.88 432.434Z" fill="url(#paint38_linear)"/>
<path d="M1238.3 508.103C1138.15 508.103 1056.96 579.581 1056.96 667.752C1056.96 755.924 1138.15 827.402 1238.3 827.402C1338.45 827.402 1419.64 755.924 1419.64 667.752C1419.64 579.581 1338.45 508.103 1238.3 508.103Z" fill="url(#paint39_linear)"/>
<path d="M999.569 518.746C916.098 518.746 848.439 578.309 848.439 651.786C848.439 725.262 916.098 784.827 999.569 784.827C1083.02 784.827 1150.68 725.262 1150.68 651.786C1150.68 578.309 1083.02 518.746 999.569 518.746Z" fill="url(#paint40_linear)"/>
<path d="M1875.24 508.103C1791.78 508.103 1724.12 567.667 1724.12 641.143C1724.12 714.62 1791.78 774.184 1875.24 774.184C1958.7 774.184 2026.35 714.62 2026.35 641.143C2026.35 567.667 1958.7 508.103 1875.24 508.103Z" fill="url(#paint41_linear)"/>
<path d="M1600.98 508.103C1500.82 508.103 1419.64 579.58 1419.64 667.752C1419.64 755.924 1500.82 827.4 1600.98 827.4C1701.13 827.4 1782.31 755.923 1782.31 667.751C1782.31 579.579 1701.13 508.103 1600.98 508.103Z" fill="url(#paint42_linear)"/>
<path d="M755.505 508.103C655.354 508.103 574.162 579.579 574.162 667.751C574.162 755.923 655.354 827.4 755.505 827.4C855.656 827.4 936.846 755.923 936.846 667.751C936.846 579.579 855.656 508.103 755.505 508.103Z" fill="url(#paint43_linear)"/>
<path d="M2124.47 508.102C2024.32 508.102 1943.13 579.579 1943.13 667.751C1943.13 755.923 2024.32 827.4 2124.47 827.4C2224.62 827.4 2305.81 755.923 2305.81 667.751C2305.81 579.579 2224.62 508.102 2124.47 508.102Z" fill="url(#paint44_linear)"/>
<path d="M2341.09 550.676C2267.65 550.676 2208.11 603.093 2208.11 667.752C2208.11 732.411 2267.65 784.827 2341.09 784.827C2414.54 784.827 2474.08 732.411 2474.08 667.752C2474.08 603.093 2414.54 550.676 2341.09 550.676Z" fill="url(#paint45_linear)"/>
<path d="M517.792 550.676C444.349 550.676 384.816 603.092 384.816 667.751C384.816 732.41 444.349 784.827 517.792 784.827C591.234 784.827 650.779 732.41 650.779 667.751C650.779 603.092 591.234 550.676 517.792 550.676Z" fill="url(#paint46_linear)"/>
<path d="M181.684 401.568C81.5328 401.568 0.341797 473.045 0.341797 561.217C0.341797 649.389 81.5328 720.866 181.684 720.866C281.835 720.866 363.026 649.389 363.026 561.217C363.026 473.045 281.835 401.568 181.684 401.568Z" fill="url(#paint47_linear)"/>
<path d="M1419.68 614C1369.6 614 1329 649.738 1329 693.824C1329 737.91 1369.6 773.649 1419.68 773.649C1469.75 773.649 1510.35 737.91 1510.35 693.824C1510.35 649.738 1469.75 614 1419.68 614Z" fill="url(#paint48_linear)"/>
<path d="M2505.54 592.083C2448.79 592.083 2389.21 611.3 2389.21 661.264C2389.21 711.228 2435.22 751.732 2491.97 751.732C2548.73 751.732 2594.73 711.228 2594.73 661.264C2594.73 611.3 2562.29 592.083 2505.54 592.083Z" fill="url(#paint49_linear)"/>
<path d="M362.637 550.676C305.879 550.676 259.877 591.179 259.877 641.143C259.877 691.107 305.879 731.611 362.637 731.611C419.384 731.611 465.397 691.107 465.397 641.143C465.397 591.179 419.384 550.676 362.637 550.676Z" fill="url(#paint50_linear)"/>
<path d="M0.341797 442.012C-99.8093 442.012 -181 513.489 -181 601.661C-181 689.833 -99.8093 761.31 0.341797 761.31C100.493 761.31 181.684 689.833 181.684 601.661C181.684 513.489 100.493 442.012 0.341797 442.012Z" fill="url(#paint51_linear)"/>
<path d="M2673.32 645.298L3035.95 598L3036 326.001H2673.32V645.298Z" fill="url(#paint52_linear)"/>
<path d="M-181 601.661L181.684 645.298V326.001H-181V601.661Z" fill="url(#paint53_linear)"/>
<path d="M3036 326H-180.996V641H3036V326Z" fill="url(#paint54_linear)"/>
<defs>
<linearGradient id="paint0_linear" x1="2903" y1="969" x2="-1.49983" y2="969" gradientUnits="userSpaceOnUse">
<stop stop-color="#06202D"/>
<stop offset="0.0001" stop-color="#083655"/>
<stop offset="0.505208" stop-color="#073A5C"/>
<stop offset="1" stop-color="#143F44"/>
</linearGradient>
<linearGradient id="paint1_linear" x1="2903" y1="969" x2="-1.49983" y2="969" gradientUnits="userSpaceOnUse">
<stop stop-color="#06202D"/>
<stop offset="0.0001" stop-color="#083655"/>
<stop offset="0.505208" stop-color="#073A5C"/>
<stop offset="1" stop-color="#143F44"/>
</linearGradient>
<linearGradient id="paint2_linear" x1="2903" y1="969" x2="-1.49983" y2="969" gradientUnits="userSpaceOnUse">
<stop stop-color="#06202D"/>
<stop offset="0.0001" stop-color="#083655"/>
<stop offset="0.505208" stop-color="#073A5C"/>
<stop offset="1" stop-color="#143F44"/>
</linearGradient>
<linearGradient id="paint3_linear" x1="2903" y1="969" x2="-1.49983" y2="969" gradientUnits="userSpaceOnUse">
<stop stop-color="#06202D"/>
<stop offset="0.0001" stop-color="#083655"/>
<stop offset="0.505208" stop-color="#073A5C"/>
<stop offset="1" stop-color="#143F44"/>
</linearGradient>
<linearGradient id="paint4_linear" x1="2903" y1="969" x2="-1.49983" y2="969" gradientUnits="userSpaceOnUse">
<stop stop-color="#06202D"/>
<stop offset="0.0001" stop-color="#083655"/>
<stop offset="0.505208" stop-color="#073A5C"/>
<stop offset="1" stop-color="#143F44"/>
</linearGradient>
<linearGradient id="paint5_linear" x1="2903" y1="969" x2="-1.49983" y2="969" gradientUnits="userSpaceOnUse">
<stop stop-color="#06202D"/>
<stop offset="0.0001" stop-color="#083655"/>
<stop offset="0.505208" stop-color="#073A5C"/>
<stop offset="1" stop-color="#143F44"/>
</linearGradient>
<linearGradient id="paint6_linear" x1="2903" y1="969" x2="-1.49983" y2="969" gradientUnits="userSpaceOnUse">
<stop stop-color="#06202D"/>
<stop offset="0.0001" stop-color="#083655"/>
<stop offset="0.505208" stop-color="#073A5C"/>
<stop offset="1" stop-color="#143F44"/>
</linearGradient>
<linearGradient id="paint7_linear" x1="2903" y1="969" x2="-1.49983" y2="969" gradientUnits="userSpaceOnUse">
<stop stop-color="#06202D"/>
<stop offset="0.0001" stop-color="#083655"/>
<stop offset="0.505208" stop-color="#073A5C"/>
<stop offset="1" stop-color="#143F44"/>
</linearGradient>
<linearGradient id="paint8_linear" x1="2903" y1="969" x2="-1.49983" y2="969" gradientUnits="userSpaceOnUse">
<stop stop-color="#06202D"/>
<stop offset="0.0001" stop-color="#083655"/>
<stop offset="0.505208" stop-color="#073A5C"/>
<stop offset="1" stop-color="#143F44"/>
</linearGradient>
<linearGradient id="paint9_linear" x1="2903" y1="969" x2="-1.49983" y2="969" gradientUnits="userSpaceOnUse">
<stop stop-color="#06202D"/>
<stop offset="0.0001" stop-color="#083655"/>
<stop offset="0.505208" stop-color="#073A5C"/>
<stop offset="1" stop-color="#143F44"/>
</linearGradient>
<linearGradient id="paint10_linear" x1="2903" y1="969" x2="-1.49983" y2="969" gradientUnits="userSpaceOnUse">
<stop stop-color="#06202D"/>
<stop offset="0.0001" stop-color="#083655"/>
<stop offset="0.505208" stop-color="#073A5C"/>
<stop offset="1" stop-color="#143F44"/>
</linearGradient>
<linearGradient id="paint11_linear" x1="2903" y1="969" x2="-1.49983" y2="969" gradientUnits="userSpaceOnUse">
<stop stop-color="#06202D"/>
<stop offset="0.0001" stop-color="#083655"/>
<stop offset="0.505208" stop-color="#073A5C"/>
<stop offset="1" stop-color="#143F44"/>
</linearGradient>
<linearGradient id="paint12_linear" x1="2903" y1="969" x2="-1.49983" y2="969" gradientUnits="userSpaceOnUse">
<stop stop-color="#06202D"/>
<stop offset="0.0001" stop-color="#083655"/>
<stop offset="0.505208" stop-color="#073A5C"/>
<stop offset="1" stop-color="#143F44"/>
</linearGradient>
<linearGradient id="paint13_linear" x1="2903" y1="969" x2="-1.49983" y2="969" gradientUnits="userSpaceOnUse">
<stop stop-color="#06202D"/>
<stop offset="0.0001" stop-color="#083655"/>
<stop offset="0.505208" stop-color="#073A5C"/>
<stop offset="1" stop-color="#143F44"/>
</linearGradient>
<linearGradient id="paint14_linear" x1="2903" y1="969" x2="-1.49983" y2="969" gradientUnits="userSpaceOnUse">
<stop stop-color="#06202D"/>
<stop offset="0.0001" stop-color="#083655"/>
<stop offset="0.505208" stop-color="#073A5C"/>
<stop offset="1" stop-color="#143F44"/>
</linearGradient>
<linearGradient id="paint15_linear" x1="2903" y1="969" x2="-1.49983" y2="969" gradientUnits="userSpaceOnUse">
<stop stop-color="#06202D"/>
<stop offset="0.0001" stop-color="#083655"/>
<stop offset="0.505208" stop-color="#073A5C"/>
<stop offset="1" stop-color="#143F44"/>
</linearGradient>
<linearGradient id="paint16_linear" x1="2903" y1="969" x2="-1.49983" y2="969" gradientUnits="userSpaceOnUse">
<stop stop-color="#06202D"/>
<stop offset="0.0001" stop-color="#083655"/>
<stop offset="0.505208" stop-color="#073A5C"/>
<stop offset="1" stop-color="#143F44"/>
</linearGradient>
<linearGradient id="paint17_linear" x1="2903" y1="969" x2="-1.49983" y2="969" gradientUnits="userSpaceOnUse">
<stop stop-color="#06202D"/>
<stop offset="0.0001" stop-color="#083655"/>
<stop offset="0.505208" stop-color="#073A5C"/>
<stop offset="1" stop-color="#143F44"/>
</linearGradient>
<linearGradient id="paint18_linear" x1="2903" y1="969" x2="-1.49983" y2="969" gradientUnits="userSpaceOnUse">
<stop stop-color="#06202D"/>
<stop offset="0.0001" stop-color="#083655"/>
<stop offset="0.505208" stop-color="#073A5C"/>
<stop offset="1" stop-color="#143F44"/>
</linearGradient>
<linearGradient id="paint19_linear" x1="2903" y1="969" x2="-1.49983" y2="969" gradientUnits="userSpaceOnUse">
<stop stop-color="#06202D"/>
<stop offset="0.0001" stop-color="#083655"/>
<stop offset="0.505208" stop-color="#073A5C"/>
<stop offset="1" stop-color="#143F44"/>
</linearGradient>
<linearGradient id="paint20_linear" x1="-180.996" y1="268" x2="3036" y2="268" gradientUnits="userSpaceOnUse">
<stop stop-color="#20767F"/>
<stop offset="1" stop-color="#0F4F6F"/>
</linearGradient>
<linearGradient id="paint21_linear" x1="-180.996" y1="268" x2="3036" y2="268" gradientUnits="userSpaceOnUse">
<stop stop-color="#20767F"/>
<stop offset="1" stop-color="#0F4F6F"/>
</linearGradient>
<linearGradient id="paint22_linear" x1="-180.998" y1="268" x2="3036" y2="268" gradientUnits="userSpaceOnUse">
<stop stop-color="#20767F"/>
<stop offset="1" stop-color="#0F4F6F"/>
</linearGradient>
<linearGradient id="paint23_linear" x1="-180.996" y1="268" x2="3036" y2="268" gradientUnits="userSpaceOnUse">
<stop stop-color="#20767F"/>
<stop offset="1" stop-color="#0F4F6F"/>
</linearGradient>
<linearGradient id="paint24_linear" x1="-180.997" y1="268" x2="3036" y2="268" gradientUnits="userSpaceOnUse">
<stop stop-color="#20767F"/>
<stop offset="1" stop-color="#0F4F6F"/>
</linearGradient>
<linearGradient id="paint25_linear" x1="-180.998" y1="268" x2="3036" y2="268" gradientUnits="userSpaceOnUse">
<stop stop-color="#20767F"/>
<stop offset="1" stop-color="#0F4F6F"/>
</linearGradient>
<linearGradient id="paint26_linear" x1="-180.996" y1="268" x2="3036" y2="268" gradientUnits="userSpaceOnUse">
<stop stop-color="#20767F"/>
<stop offset="1" stop-color="#0F4F6F"/>
</linearGradient>
<linearGradient id="paint27_linear" x1="-180.998" y1="268" x2="3036" y2="268" gradientUnits="userSpaceOnUse">
<stop stop-color="#20767F"/>
<stop offset="1" stop-color="#0F4F6F"/>
</linearGradient>
<linearGradient id="paint28_linear" x1="-180.997" y1="268" x2="3036" y2="268" gradientUnits="userSpaceOnUse">
<stop stop-color="#20767F"/>
<stop offset="1" stop-color="#0F4F6F"/>
</linearGradient>
<linearGradient id="paint29_linear" x1="-180.997" y1="268" x2="3036" y2="268" gradientUnits="userSpaceOnUse">
<stop stop-color="#20767F"/>
<stop offset="1" stop-color="#0F4F6F"/>
</linearGradient>
<linearGradient id="paint30_linear" x1="-180.996" y1="268" x2="3036" y2="268" gradientUnits="userSpaceOnUse">
<stop stop-color="#20767F"/>
<stop offset="1" stop-color="#0F4F6F"/>
</linearGradient>
<linearGradient id="paint31_linear" x1="-180.998" y1="268" x2="3036" y2="268" gradientUnits="userSpaceOnUse">
<stop stop-color="#20767F"/>
<stop offset="1" stop-color="#0F4F6F"/>
</linearGradient>
<linearGradient id="paint32_linear" x1="-180.996" y1="268" x2="3036" y2="268" gradientUnits="userSpaceOnUse">
<stop stop-color="#20767F"/>
<stop offset="1" stop-color="#0F4F6F"/>
</linearGradient>
<linearGradient id="paint33_linear" x1="-180.997" y1="268" x2="3036" y2="268" gradientUnits="userSpaceOnUse">
<stop stop-color="#20767F"/>
<stop offset="1" stop-color="#0F4F6F"/>
</linearGradient>
<linearGradient id="paint34_linear" x1="-180.996" y1="268" x2="3036" y2="268" gradientUnits="userSpaceOnUse">
<stop stop-color="#20767F"/>
<stop offset="1" stop-color="#0F4F6F"/>
</linearGradient>
<linearGradient id="paint35_linear" x1="-180.996" y1="268" x2="3036" y2="268" gradientUnits="userSpaceOnUse">
<stop stop-color="#20767F"/>
<stop offset="1" stop-color="#0F4F6F"/>
</linearGradient>
<linearGradient id="paint36_linear" x1="-180.996" y1="268" x2="3036" y2="268" gradientUnits="userSpaceOnUse">
<stop stop-color="#20767F"/>
<stop offset="1" stop-color="#0F4F6F"/>
</linearGradient>
<linearGradient id="paint37_linear" x1="3036" y1="594.421" x2="-180.999" y2="594.421" gradientUnits="userSpaceOnUse">
<stop stop-color="#0F4F6F"/>
<stop offset="1" stop-color="#20767F"/>
</linearGradient>
<linearGradient id="paint38_linear" x1="3036" y1="594.421" x2="-181" y2="594.421" gradientUnits="userSpaceOnUse">
<stop stop-color="#0F4F6F"/>
<stop offset="1" stop-color="#20767F"/>
</linearGradient>
<linearGradient id="paint39_linear" x1="3036" y1="594.421" x2="-180.999" y2="594.421" gradientUnits="userSpaceOnUse">
<stop stop-color="#0F4F6F"/>
<stop offset="1" stop-color="#20767F"/>
</linearGradient>
<linearGradient id="paint40_linear" x1="3036" y1="594.421" x2="-181.001" y2="594.421" gradientUnits="userSpaceOnUse">
<stop stop-color="#0F4F6F"/>
<stop offset="1" stop-color="#20767F"/>
</linearGradient>
<linearGradient id="paint41_linear" x1="3036" y1="594.421" x2="-181.002" y2="594.421" gradientUnits="userSpaceOnUse">
<stop stop-color="#0F4F6F"/>
<stop offset="1" stop-color="#20767F"/>
</linearGradient>
<linearGradient id="paint42_linear" x1="3036" y1="594.421" x2="-181" y2="594.421" gradientUnits="userSpaceOnUse">
<stop stop-color="#0F4F6F"/>
<stop offset="1" stop-color="#20767F"/>
</linearGradient>
<linearGradient id="paint43_linear" x1="3036" y1="594.421" x2="-181" y2="594.421" gradientUnits="userSpaceOnUse">
<stop stop-color="#0F4F6F"/>
<stop offset="1" stop-color="#20767F"/>
</linearGradient>
<linearGradient id="paint44_linear" x1="3036" y1="594.421" x2="-180.999" y2="594.421" gradientUnits="userSpaceOnUse">
<stop stop-color="#0F4F6F"/>
<stop offset="1" stop-color="#20767F"/>
</linearGradient>
<linearGradient id="paint45_linear" x1="3036" y1="594.421" x2="-181.001" y2="594.421" gradientUnits="userSpaceOnUse">
<stop stop-color="#0F4F6F"/>
<stop offset="1" stop-color="#20767F"/>
</linearGradient>
<linearGradient id="paint46_linear" x1="3036" y1="594.421" x2="-181.001" y2="594.421" gradientUnits="userSpaceOnUse">
<stop stop-color="#0F4F6F"/>
<stop offset="1" stop-color="#20767F"/>
</linearGradient>
<linearGradient id="paint47_linear" x1="3036" y1="594.421" x2="-181" y2="594.421" gradientUnits="userSpaceOnUse">
<stop stop-color="#0F4F6F"/>
<stop offset="1" stop-color="#20767F"/>
</linearGradient>
<linearGradient id="paint48_linear" x1="3031.04" y1="578.04" x2="-185.961" y2="578.04" gradientUnits="userSpaceOnUse">
<stop stop-color="#0F4F6F"/>
<stop offset="1" stop-color="#20767F"/>
</linearGradient>
<linearGradient id="paint49_linear" x1="3036" y1="594.421" x2="-180.999" y2="594.421" gradientUnits="userSpaceOnUse">
<stop stop-color="#0F4F6F"/>
<stop offset="1" stop-color="#20767F"/>
</linearGradient>
<linearGradient id="paint50_linear" x1="3036" y1="594.421" x2="-181" y2="594.421" gradientUnits="userSpaceOnUse">
<stop stop-color="#0F4F6F"/>
<stop offset="1" stop-color="#20767F"/>
</linearGradient>
<linearGradient id="paint51_linear" x1="3036" y1="594.421" x2="-181" y2="594.421" gradientUnits="userSpaceOnUse">
<stop stop-color="#0F4F6F"/>
<stop offset="1" stop-color="#20767F"/>
</linearGradient>
<linearGradient id="paint52_linear" x1="3036" y1="594.421" x2="-180.999" y2="594.421" gradientUnits="userSpaceOnUse">
<stop stop-color="#0F4F6F"/>
<stop offset="1" stop-color="#20767F"/>
</linearGradient>
<linearGradient id="paint53_linear" x1="3036" y1="594.421" x2="-181" y2="594.421" gradientUnits="userSpaceOnUse">
<stop stop-color="#0F4F6F"/>
<stop offset="1" stop-color="#20767F"/>
</linearGradient>
<linearGradient id="paint54_linear" x1="-180.996" y1="483" x2="3036" y2="483" gradientUnits="userSpaceOnUse">
<stop stop-color="#20767F"/>
<stop offset="1" stop-color="#105070"/>
</linearGradient>
</defs>
</svg>
