<svg width="1492" height="1541" viewBox="0 0 1492 1541" fill="none" xmlns="http://www.w3.org/2000/svg">
<path d="M1349.9 1372H1432.08L1435.5 1460V1541H1349.9L1345.5 1457L1349.9 1372Z" fill="#260B04"/>
<path d="M1341.53 937.498L1433.51 937.064L1427.19 994.219L1430.74 1047.38L1434.54 1155.23L1435.06 1264.31L1435.32 1318.85L1435.44 1346.16L1433.71 1359.84L1431.68 1373.41L1349.88 1373.8L1359.27 1330.91L1355.4 1272.89L1358.73 1215.75L1358.5 1054L1358.5 1021.5L1341.53 937.498Z" fill="#260B04"/>
<rect width="77.9259" height="181.002" transform="matrix(0.979224 -0.202782 0.1975 0.980303 1305.94 760.208)" fill="#260B04"/>
<path d="M1292.45 694.641L1335.52 685.848L1346.5 719.607L1357.73 749.636L1306.25 761.84L1292.45 694.641Z" fill="#260B04"/>
<path d="M1369.36 698.866L1431.19 697.463L1408.98 732.611L1394.02 757.698L1394.24 805.374L1374.86 784.528L1362.75 757.845L1348.39 742.818L1358.68 720.49L1369.36 698.866Z" fill="#260B04"/>
<path d="M1341.49 927.188L1417.24 917.5L1422.67 930.43L1423.56 921.309L1424.74 918.569L1431.59 908.813L1432.21 913.672L1432.23 918.838L1433.78 929.162L1433.81 934.935L1433.23 940.711L1344.18 950.06L1341.53 937.497L1341.49 927.188Z" fill="#260B04"/>
<path d="M1413.81 616.578L1427.02 620.725L1433.63 628.578L1435.63 662.578L1434.7 688.881L1431.1 697.608L1402.93 698.662L1368.8 699.94L1379.7 678.142L1391.34 665.464L1401.37 652.847L1407.05 643.175L1413.81 632.906L1413.81 616.578Z" fill="#260B04"/>
<path d="M1245.96 505.781L1085.61 466.584L928.115 423.584L843.111 430.081L719.111 402.578L629.11 389.828L539.111 384.577L543.115 378.077L721.111 381.578L790.111 400.578L825.111 407.578L859.611 409.078L912.614 412.582L904.615 405.333L881.114 387.082L755.616 330.577L558.617 327.577L375.122 277.578L610.368 321.577L662.118 315.576L555.622 261.078L577.622 263.078L605.62 275.578L655.619 290.077L755.616 319.077L725.622 298.078L698.122 282.578L634.622 246.078L527.625 192.077L496.134 182.578L461.134 173.578L499.131 173.577L559.627 197.577L586.875 212.327L641.622 239.078L711.628 274.133L731.122 285.578L774.122 314.132L834.368 340.857L750.634 261.078L703.634 234.078L646.634 153.078L711.628 197.577L769.634 246.078L856.134 337.578L801.384 211.827L761.634 170.578L755.634 162.078L765.134 158.078L772.634 167.578L788.634 164.578L786.134 157.078L797.634 157.078L797.634 163.078L818.634 197.577L859.611 302.578L894.614 367.582L912.615 390.833L919.114 398.582L928.116 403.584L1120.12 439.584L1234.62 466.584L1228.04 446.682L1210.12 387.582L1075.12 339.084L1075.12 324.083L1063.12 274.585L1106.74 332.677L1138.37 341.271L1201.62 358.457L1193.12 329.333L1176.12 271.083L1191.62 271.083L1292.34 492.082L1292.34 517.582L1295.12 543.582L1299.62 569.582L1309.12 596.083L1339.62 695.809L1315.62 695.809L1292.34 695.81L1284.62 652.083L1273.62 600.083L1259.62 552.082L1245.96 505.781Z" fill="#260B04"/>
<path d="M1338.78 515.668L1366.77 518.253L1362.01 549.377L1359.65 565.736L1354.1 580.763L1338.28 643.536L1335.31 647.792L1330.85 652.038L1324.88 655.321L1314.85 648.963L1328.29 579.764L1338.78 515.668Z" fill="#260B04"/>
<path d="M1353.17 368.283L1381.14 371.016L1374.63 445.578L1366.68 519.044L1338.71 516.311L1353.17 368.283Z" fill="#260B04"/>
<path d="M1330.16 162.124L1338.93 161.848L1343.91 241.077L1345.63 279.577L1381.13 371.078L1353.13 368.578L1333.63 320.046L1331.9 241.085L1331.03 201.605L1330.16 181.578L1330.16 162.124Z" fill="#260B04"/>
<path d="M1380.63 254.578L1391.13 272.576L1396.63 341.325L1380.63 372.077L1371.63 354.577L1377.21 341.325L1380.63 254.578Z" fill="#260B04"/>
<path d="M1353 1338L1357 1324.5L1354 1308.5L1355 1243.5L1358.5 1095.5V1023L1328 879L1287 671L1301 679L1312 734L1354.5 946L1356 937.5L1368.5 1013.5L1370.5 1079.5L1381.5 1025.5L1384 1002H1387V1036.5L1384 1062L1371.5 1125L1368.5 1222.5L1366.5 1247.5L1364 1278.5L1365.5 1295.5L1374.5 1271.5L1369.5 1313L1368 1338L1371 1362L1361 1350L1355 1394.5L1353 1418L1352.5 1439L1359.5 1432L1360.5 1391L1366 1371.5H1367L1368 1407L1369.5 1435.5V1489V1515V1528L1374 1511L1379.5 1500.5V1515L1375.5 1532.5L1373 1541H1343.5V1485.5L1341 1457.5L1342.5 1402.5L1353 1338Z" fill="#966116"/>
<path d="M193.501 237.577L191.68 238.626C143.813 266.175 82.6764 249.705 55.1267 201.839L50 192.931L51.8212 191.883C99.6877 164.333 160.825 180.803 188.374 228.67L193.501 237.577Z" fill="url(#paint0_linear)"/>
<path d="M200.757 199.155L198.677 199.454C144.011 207.314 93.3228 169.371 85.4625 114.704L83.9998 104.531L86.0798 104.232C140.746 96.3721 191.434 134.316 199.294 188.982L200.757 199.155Z" fill="url(#paint1_linear)"/>
<path d="M304.803 215.522L303.173 216.849C260.342 251.716 197.356 245.26 162.489 202.429L156 194.459L157.63 193.132C200.461 158.265 263.447 164.721 298.314 207.552L304.803 215.522Z" fill="url(#paint2_linear)"/>
<path d="M259.794 239.562L259.516 241.644C252.224 296.389 201.933 334.857 147.188 327.565L137 326.207L137.278 324.125C144.57 269.38 194.862 230.912 249.606 238.204L259.794 239.562Z" fill="url(#paint3_linear)"/>
<path d="M367.22 413.262L365.557 414.547C321.855 448.315 259.053 440.263 225.284 396.561L219 388.429L220.663 387.144C264.364 353.375 327.167 361.427 360.936 405.129L367.22 413.262Z" fill="url(#paint4_linear)"/>
<path d="M448.22 345.262L446.557 346.547C402.855 380.315 340.053 372.263 306.284 328.561L300 320.429L301.663 319.144C345.364 285.375 408.167 293.427 441.936 337.129L448.22 345.262Z" fill="url(#paint5_linear)"/>
<path d="M509.358 259.639L507.403 260.407C456 280.605 397.956 255.308 377.759 203.905L374 194.339L375.956 193.571C427.359 173.373 485.402 198.67 505.6 250.073L509.358 259.639Z" fill="url(#paint6_linear)"/>
<path d="M586.358 259.639L584.403 260.407C533 280.605 474.956 255.308 454.759 203.905L451 194.339L452.956 193.571C504.359 173.373 562.402 198.67 582.6 250.073L586.358 259.639Z" fill="url(#paint7_linear)"/>
<path d="M578.815 302.48L577.187 303.807C534.377 338.701 471.387 332.283 436.493 289.474L430 281.508L431.629 280.18C474.438 245.287 537.429 251.704 572.322 294.513L578.815 302.48Z" fill="url(#paint8_linear)"/>
<path d="M658.421 285.454L658.355 287.554C656.625 342.756 610.474 386.103 555.272 384.373L545 384.051L545.066 381.951C546.795 326.75 592.947 283.402 648.148 285.132L658.421 285.454Z" fill="url(#paint9_linear)"/>
<path d="M621.148 483.897L619.187 484.652C567.638 504.472 509.781 478.75 489.961 427.201L486.273 417.608L488.234 416.854C539.783 397.034 597.64 422.755 617.46 474.305L621.148 483.897Z" fill="url(#paint10_linear)"/>
<path d="M710.125 460.155L708.274 461.149C659.617 487.278 598.992 469.016 572.862 420.36L568 411.306L569.851 410.311C618.507 384.182 679.133 402.444 705.263 451.1L710.125 460.155Z" fill="url(#paint11_linear)"/>
<path d="M699.498 481.585L698.325 483.328C667.482 529.142 605.339 541.279 559.526 510.436L551 504.697L552.173 502.954C583.016 457.14 645.159 445.003 690.972 475.846L699.498 481.585Z" fill="url(#paint12_linear)"/>
<path d="M757.721 162.303L755.905 163.36C708.176 191.147 646.958 174.981 619.171 127.252L614 118.37L615.816 117.313C663.544 89.5259 724.762 105.692 752.55 153.421L757.721 162.303Z" fill="url(#paint13_linear)"/>
<path d="M834.299 170.276L833.589 172.254C814.92 224.231 757.65 251.234 705.673 232.565L696 229.091L696.71 227.114C715.379 175.136 772.649 148.134 824.626 166.802L834.299 170.276Z" fill="url(#paint14_linear)"/>
<path d="M773.318 378.813L771.34 379.522C719.349 398.153 662.099 371.11 643.467 319.119L640 309.444L641.978 308.735C693.969 290.104 751.22 317.147 769.851 369.138L773.318 378.813Z" fill="url(#paint15_linear)"/>
<path d="M781.269 484L781.295 486.101C782.001 541.325 737.804 586.665 682.58 587.37L672.304 587.501L672.277 585.4C671.572 530.176 715.768 484.836 770.992 484.131L781.269 484Z" fill="url(#paint16_linear)"/>
<path d="M922.639 570.909L920.582 571.343C866.54 582.726 813.502 548.144 802.118 494.102L800 484.045L802.056 483.612C856.098 472.228 909.137 506.81 920.52 560.853L922.639 570.909Z" fill="url(#paint17_linear)"/>
<path d="M934.77 429.643L934.109 431.638C916.76 484.071 860.19 512.511 807.757 495.161L798 491.932L798.66 489.937C816.01 437.505 872.58 409.065 925.012 426.415L934.77 429.643Z" fill="url(#paint18_linear)"/>
<path d="M876.576 421.159L874.571 421.786C821.864 438.285 765.762 408.932 749.264 356.225L746.194 346.417L748.2 345.789C800.906 329.291 857.008 358.644 873.506 411.35L876.576 421.159Z" fill="url(#paint19_linear)"/>
<path d="M968.378 231.816L966.723 233.111C923.237 267.158 860.385 259.505 826.339 216.019L820.003 207.927L821.658 206.631C865.144 172.585 927.996 180.238 962.042 223.724L968.378 231.816Z" fill="url(#paint20_linear)"/>
<path d="M984.136 195.874L982.099 196.392C928.575 210.007 874.148 177.655 860.533 124.131L858 114.17L860.036 113.652C913.56 100.037 967.987 132.39 981.602 185.914L984.136 195.874Z" fill="url(#paint21_linear)"/>
<path d="M987.798 173.065L988.784 174.921C1014.7 223.689 996.181 284.236 947.412 310.156L938.337 314.979L937.351 313.123C911.431 264.355 929.954 203.808 978.722 177.889L987.798 173.065Z" fill="url(#paint22_linear)"/>
<path d="M1018.8 304.101L1017.15 305.392C973.568 339.321 910.737 331.5 876.807 287.922L870.494 279.813L872.152 278.522C915.729 244.593 978.561 252.414 1012.49 295.991L1018.8 304.101Z" fill="url(#paint23_linear)"/>
<path d="M1028.22 322.753L1027.37 324.673C1004.96 375.149 945.869 397.9 895.393 375.487L886 371.316L886.852 369.396C909.265 318.919 968.353 296.169 1018.83 318.582L1028.22 322.753Z" fill="url(#paint24_linear)"/>
<path d="M1068.93 273L1069.89 274.866C1095.29 323.909 1076.12 384.254 1027.08 409.65L1017.95 414.377L1016.99 412.511C991.588 363.468 1010.76 303.123 1059.8 277.726L1068.93 273Z" fill="url(#paint25_linear)"/>
<path d="M1050.94 492.931L1049.97 494.794C1024.42 543.759 964.018 562.745 915.052 537.199L905.94 532.445L906.912 530.582C932.458 481.617 992.861 462.632 1041.83 488.177L1050.94 492.931Z" fill="url(#paint26_linear)"/>
<path d="M1076 449.009L1075.03 450.872C1049.48 499.837 989.077 518.822 940.112 493.276L931 488.523L931.972 486.66C957.518 437.694 1017.92 418.709 1066.89 444.255L1076 449.009Z" fill="url(#paint27_linear)"/>
<path d="M1082.98 570.128L1082.4 572.15C1067.31 625.277 1012.01 656.113 958.887 641.025L949 638.217L949.574 636.196C964.663 583.068 1019.96 552.232 1073.09 567.32L1082.98 570.128Z" fill="url(#paint28_linear)"/>
<path d="M1110.85 440L1111.5 441.998C1128.61 494.509 1099.92 550.949 1047.41 568.06L1037.63 571.244L1036.98 569.246C1019.87 516.735 1048.57 460.296 1101.08 443.184L1110.85 440Z" fill="url(#paint29_linear)"/>
<path d="M1195.86 607.609L1195.57 609.69C1188 664.398 1137.52 702.612 1082.81 695.044L1072.63 693.636L1072.92 691.554C1080.49 636.847 1130.97 598.632 1185.68 606.2L1195.86 607.609Z" fill="url(#paint30_linear)"/>
<path d="M1153.76 556L1154.47 557.977C1173.18 609.943 1146.21 667.23 1094.24 685.931L1084.57 689.412L1083.86 687.434C1065.16 635.469 1092.13 578.182 1144.09 559.48L1153.76 556Z" fill="url(#paint31_linear)"/>
<path d="M1240.87 533.536L1240.27 535.549C1224.48 588.472 1168.77 618.57 1115.85 602.776L1106 599.837L1106.6 597.824C1122.39 544.902 1178.1 514.803 1231.02 530.597L1240.87 533.536Z" fill="url(#paint32_linear)"/>
<path d="M1250.46 562L1251.47 563.838C1278.25 612.144 1260.79 673.006 1212.48 699.778L1203.49 704.76L1202.47 702.922C1175.7 654.616 1193.16 593.753 1241.47 566.982L1250.46 562Z" fill="url(#paint33_linear)"/>
<path d="M1354.78 394.809L1355.13 396.881C1364.38 451.328 1327.75 502.971 1273.3 512.228L1263.17 513.95L1262.82 511.879C1253.56 457.432 1290.2 405.789 1344.64 396.532L1354.78 394.809Z" fill="url(#paint34_linear)"/>
<path d="M1271.38 412.221L1270.48 414.12C1246.83 464.029 1187.2 485.317 1137.29 461.668L1128 457.267L1128.9 455.368C1152.55 405.459 1212.18 384.171 1262.09 407.82L1271.38 412.221Z" fill="url(#paint35_linear)"/>
<path d="M1199.74 411.412L1197.98 412.558C1151.69 442.696 1089.75 429.608 1059.61 383.327L1054 374.715L1055.76 373.568C1102.04 343.431 1163.99 356.518 1194.13 402.799L1199.74 411.412Z" fill="url(#paint36_linear)"/>
<path d="M1200.74 360.412L1198.98 361.558C1152.69 391.696 1090.75 378.608 1060.61 332.327L1055 323.715L1056.76 322.568C1103.04 292.431 1164.99 305.518 1195.13 351.799L1200.74 360.412Z" fill="url(#paint37_linear)"/>
<path d="M1295.74 409.412L1293.98 410.558C1247.69 440.696 1185.75 427.608 1155.61 381.327L1150 372.715L1151.76 371.568C1198.04 341.431 1259.99 354.518 1290.13 400.799L1295.74 409.412Z" fill="url(#paint38_linear)"/>
<path d="M1191.25 331.006L1189.47 329.875C1142.92 300.169 1129.25 238.344 1158.96 191.785L1164.49 183.121L1166.26 184.251C1212.82 213.958 1226.48 275.783 1196.77 322.341L1191.25 331.006Z" fill="url(#paint39_linear)"/>
<path d="M1291.11 187.054L1289.28 188.087C1241.17 215.217 1180.18 198.213 1153.05 150.108L1148 141.156L1149.83 140.124C1197.94 112.993 1258.93 129.997 1286.06 178.102L1291.11 187.054Z" fill="url(#paint40_linear)"/>
<path d="M1436.53 206.489L1434.44 206.266C1379.52 200.405 1339.75 151.136 1345.61 96.2195L1346.7 86L1348.79 86.223C1403.71 92.083 1443.48 141.352 1437.62 196.269L1436.53 206.489Z" fill="url(#paint41_linear)"/>
<path d="M1432.53 274.489L1430.44 274.266C1375.52 268.405 1335.75 219.136 1341.61 164.22L1342.7 154L1344.79 154.223C1399.71 160.083 1439.48 209.352 1433.62 264.269L1432.53 274.489Z" fill="url(#paint42_linear)"/>
<path d="M1488.66 365.616L1486.78 366.557C1437.39 391.275 1377.32 371.275 1352.6 321.887L1348 312.696L1349.88 311.755C1399.27 287.038 1459.34 307.037 1484.06 356.426L1488.66 365.616Z" fill="url(#paint43_linear)"/>
<path d="M858.156 384.49L856.26 383.585C806.411 359.81 785.274 300.125 809.05 250.277L813.474 241L815.371 241.905C865.22 265.68 886.356 325.365 862.581 375.214L858.156 384.49Z" fill="url(#paint44_linear)"/>
<path d="M464.051 374.608L462.972 376.412C434.622 423.808 373.217 439.249 325.82 410.899L317 405.623L318.079 403.82C346.429 356.423 407.834 340.982 455.231 369.332L464.051 374.608Z" fill="url(#paint45_linear)"/>
<path d="M527.886 402.157L527.121 404.114C507.01 455.55 449.009 480.945 397.572 460.834L388 457.092L388.765 455.134C408.876 403.698 466.877 378.303 518.314 398.414L527.886 402.157Z" fill="url(#paint46_linear)"/>
<path d="M254.449 262L255.534 263.8C284.043 311.101 268.808 372.558 221.506 401.066L212.704 406.372L211.619 404.572C183.111 357.27 198.345 295.814 245.647 267.305L254.449 262Z" fill="#A2C73C"/>
<path d="M317.219 162L317.287 164.1C319.084 219.299 275.793 265.504 220.594 267.301L210.322 267.635L210.253 265.535C208.456 210.336 251.747 164.131 306.947 162.334L317.219 162Z" fill="#A2C73C"/>
<path d="M400.774 141L402.141 142.596C438.057 184.551 433.161 247.678 391.206 283.594L383.398 290.278L382.032 288.682C346.116 246.726 351.012 183.599 392.967 147.684L400.774 141Z" fill="#A2C73C"/>
<path d="M517.558 77L519.07 78.4588C558.821 116.8 559.964 180.106 521.623 219.857L514.488 227.254L512.976 225.796C473.225 187.455 472.082 124.148 510.423 84.3973L517.558 77Z" fill="#A2C73C"/>
<path d="M525.858 313.389L525.603 315.475C518.898 370.295 469.022 409.299 414.202 402.594L404 401.346L404.255 399.26C410.961 344.44 460.837 305.436 515.657 312.141L525.858 313.389Z" fill="#A2C73C"/>
<path d="M419.491 413L419.868 415.067C429.768 469.401 393.748 521.473 339.414 531.374L329.303 533.216L328.926 531.149C319.026 476.815 355.046 424.743 409.38 414.842L419.491 413Z" fill="#A2C73C"/>
<path d="M514.097 392L515.386 393.66C549.261 437.279 541.362 500.101 497.743 533.976L489.626 540.28L488.337 538.62C454.461 495.001 462.36 432.179 505.98 398.304L514.097 392Z" fill="#A2C73C"/>
<path d="M654.097 311L655.386 312.66C689.261 356.279 681.362 419.101 637.743 452.976L629.626 459.28L628.337 457.62C594.461 414.001 602.36 351.179 645.98 317.304L654.097 311Z" fill="#A2C73C"/>
<path d="M656.671 526.516L656.642 528.617C655.883 583.84 610.5 627.992 555.277 627.233L545 627.092L545.029 624.991C545.788 569.767 591.171 525.616 646.394 526.375L656.671 526.516Z" fill="#A2C73C"/>
<path d="M696.043 180.586L694.965 182.389C666.626 229.793 605.224 245.248 557.821 216.909L549 211.635L550.078 209.832C578.417 162.428 639.818 146.973 687.222 175.312L696.043 180.586Z" fill="#A2C73C"/>
<path d="M819.043 420.586L817.965 422.389C789.626 469.793 728.224 485.248 680.821 456.909L672 451.635L673.078 449.832C701.417 402.428 762.818 386.973 810.222 415.312L819.043 420.586Z" fill="#A2C73C"/>
<path d="M781.766 508L783.217 509.52C821.353 549.468 819.884 612.767 779.936 650.903L772.502 658L771.051 656.48C732.915 616.532 734.384 553.233 774.332 515.097L781.766 508Z" fill="#A2C73C"/>
<path d="M809.443 189L810.311 190.914C833.109 241.217 810.812 300.478 760.509 323.276L751.148 327.519L750.281 325.605C727.482 275.302 749.779 216.041 800.082 193.243L809.443 189Z" fill="#A2C73C"/>
<path d="M899.443 264L900.311 265.914C923.109 316.217 900.812 375.478 850.509 398.276L841.148 402.519L840.281 400.605C817.482 350.302 839.779 291.041 890.082 268.243L899.443 264Z" fill="#A2C73C"/>
<path d="M1016.33 142.849L1016.02 144.928C1007.92 199.559 957.063 237.278 902.432 229.177L892.265 227.669L892.574 225.591C900.675 170.96 951.53 133.24 1006.16 141.342L1016.33 142.849Z" fill="#A2C73C"/>
<path d="M996.319 163L998.385 163.387C1052.67 173.563 1088.42 225.817 1078.25 280.1L1076.35 290.202L1074.29 289.815C1020.01 279.639 984.25 227.384 994.426 173.102L996.319 163Z" fill="#A2C73C"/>
<path d="M1017.47 526.383L1017.95 528.429C1030.46 582.221 997.003 635.974 943.212 648.49L933.202 650.82L932.726 648.773C920.209 594.981 953.669 541.228 1007.46 528.712L1017.47 526.383Z" fill="#A2C73C"/>
<path d="M1081.13 586.429L1082.03 588.327C1105.76 638.198 1084.57 697.863 1034.7 721.592L1025.42 726.007L1024.52 724.11C1000.79 674.239 1021.98 614.574 1071.85 590.845L1081.13 586.429Z" fill="#A2C73C"/>
<path d="M1164.58 654L1165.48 655.897C1189.21 705.769 1168.02 765.433 1118.15 789.162L1108.87 793.578L1107.97 791.68C1084.24 741.809 1105.43 682.145 1155.3 658.416L1164.58 654Z" fill="#A2C73C"/>
<path d="M1252.12 564L1254.2 564.288C1308.91 571.862 1347.12 622.35 1339.55 677.057L1338.14 687.237L1336.06 686.949C1281.35 679.375 1243.14 628.887 1250.71 574.18L1252.12 564Z" fill="#A2C73C"/>
<path d="M1378.12 517L1380.2 517.288C1434.91 524.862 1473.12 575.35 1465.55 630.057L1464.14 640.237L1462.06 639.949C1407.35 632.375 1369.14 581.887 1376.71 527.18L1378.12 517Z" fill="#A2C73C"/>
<path d="M1354.65 419L1356.45 420.079C1403.83 448.448 1419.25 509.859 1390.88 557.245L1385.6 566.063L1383.8 564.984C1336.41 536.615 1321 475.204 1349.37 427.818L1354.65 419Z" fill="#A2C73C"/>
<path d="M1473.69 389.436L1473.42 391.52C1466.19 446.273 1415.94 484.798 1361.19 477.568L1351 476.223L1351.27 474.139C1358.5 419.386 1408.75 380.861 1463.51 388.091L1473.69 389.436Z" fill="#A2C73C"/>
<path d="M1172.91 606.023L1170.88 605.496C1117.42 591.623 1085.33 537.041 1099.2 483.584L1101.78 473.635L1103.82 474.163C1157.27 488.036 1189.37 542.618 1175.49 596.075L1172.91 606.023Z" fill="#A2C73C"/>
<path d="M1106.34 446.942L1104.4 446.138C1053.37 425.017 1029.12 366.526 1050.24 315.496L1054.18 306L1056.12 306.804C1107.15 327.925 1131.39 386.416 1110.27 437.446L1106.34 446.942Z" fill="#A2C73C"/>
<path d="M1148.78 562.193L1148.58 560.101C1143.29 505.127 1183.57 456.273 1238.54 450.984L1248.77 450L1248.97 452.092C1254.26 507.066 1213.98 555.92 1159.01 561.209L1148.78 562.193Z" fill="#A2C73C"/>
<path d="M1352.22 451.767L1350.15 451.365C1295.94 440.804 1260.56 388.297 1271.12 334.088L1273.09 324L1275.15 324.402C1329.36 334.963 1364.74 387.47 1354.18 441.679L1352.22 451.767Z" fill="#A2C73C"/>
<path d="M1293.62 318.333L1292.57 320.151C1264.86 367.924 1203.66 384.187 1155.89 356.475L1147 351.318L1148.05 349.501C1175.77 301.728 1236.96 285.465 1284.73 313.176L1293.62 318.333Z" fill="#A2C73C"/>
<path d="M1202.98 153L1203.56 155.019C1218.83 208.094 1188.19 263.501 1135.11 278.776L1125.24 281.619L1124.66 279.599C1109.38 226.525 1140.02 171.117 1193.1 155.842L1202.98 153Z" fill="#A2C73C"/>
<path d="M1244.24 186.771L1242.78 188.284C1204.48 228.073 1141.17 229.278 1101.38 190.976L1093.98 183.848L1095.44 182.334C1133.74 142.546 1197.04 141.341 1236.83 179.643L1244.24 186.771Z" fill="#A2C73C"/>
<path d="M1303.23 191.382L1303.01 193.472C1297.31 248.406 1248.16 288.317 1193.22 282.617L1183 281.556L1183.22 279.466C1188.92 224.532 1238.07 184.621 1293 190.322L1303.23 191.382Z" fill="#A2C73C"/>
<path d="M1328.69 171.879L1330.55 172.86C1379.4 198.633 1398.1 259.124 1372.33 307.97L1367.53 317.059L1365.67 316.079C1316.83 290.305 1298.12 229.815 1323.9 180.969L1328.69 171.879Z" fill="#A2C73C"/>
<path d="M993.861 352.869L994.412 354.897C1008.89 408.195 977.415 463.136 924.117 477.611L914.199 480.304L913.648 478.277C899.173 424.979 930.645 370.038 983.943 355.563L993.861 352.869Z" fill="#A2C73C"/>
<path d="M940.725 456.639L941.1 458.706C950.965 513.046 914.911 565.095 860.571 574.961L850.459 576.797L850.083 574.729C840.218 520.389 876.272 468.34 930.612 458.475L940.725 456.639Z" fill="#A2C73C"/>
<path d="M947.152 560.425L946.687 562.474C934.455 616.331 880.879 650.074 827.022 637.842L817 635.565L817.465 633.516C829.697 579.66 883.273 545.916 937.13 558.149L947.152 560.425Z" fill="#A2C73C"/>
<path d="M965.721 580L965.932 582.091C971.474 637.04 931.422 686.079 876.472 691.621L866.246 692.653L866.035 690.562C860.493 635.612 900.545 586.574 955.495 581.031L965.721 580Z" fill="#B6CD37"/>
<path d="M746.58 498.399L745.01 499.796C703.743 536.501 640.535 532.802 603.83 491.536L597 483.856L598.57 482.46C639.837 445.755 703.045 449.453 739.75 490.72L746.58 498.399Z" fill="#B6CD37"/>
<path d="M677.241 527L678.117 528.91C701.137 579.112 679.101 638.471 628.899 661.491L619.557 665.774L618.681 663.864C595.661 613.662 617.697 554.304 667.899 531.284L677.241 527Z" fill="#B6CD37"/>
<path d="M344.997 174L345.64 176.001C362.525 228.584 333.587 284.901 281.003 301.787L271.218 304.929L270.575 302.928C253.689 250.345 282.628 194.028 335.212 177.142L344.997 174Z" fill="#B6CD37"/>
<path d="M333.658 206L335.735 206.317C390.33 214.66 427.825 265.681 419.482 320.276L417.93 330.435L415.852 330.118C361.258 321.775 323.763 270.754 332.106 216.16L333.658 206Z" fill="#B6CD37"/>
<path d="M418.257 114L418.745 116.044C431.583 169.759 398.445 223.712 344.73 236.55L334.734 238.939L334.245 236.895C321.407 183.179 354.545 129.227 408.261 116.389L418.257 114Z" fill="#B6CD37"/>
<path d="M621.19 310.694L619.386 311.771C571.962 340.075 510.572 324.576 482.267 277.152L477 268.327L478.805 267.25C526.229 238.945 587.619 254.445 615.923 301.869L621.19 310.694Z" fill="#B6CD37"/>
<path d="M715.097 443.268L713.203 442.357C663.438 418.406 642.511 358.648 666.461 308.883L670.918 299.622L672.812 300.534C722.577 324.484 743.504 384.242 719.554 434.007L715.097 443.268Z" fill="#B6CD37"/>
<path d="M600.438 281.757L600.368 279.657C598.508 224.46 641.746 178.206 696.944 176.346L707.215 176L707.286 178.1C709.146 233.297 665.907 279.551 610.71 281.411L600.438 281.757Z" fill="#B6CD37"/>
<path d="M600.283 204.496L598.219 204.101C543.974 193.725 508.411 141.34 518.787 87.0946L520.718 77.0001L522.782 77.3948C577.027 87.7707 612.59 140.156 602.214 194.401L600.283 204.496Z" fill="#B6CD37"/>
<path d="M842.567 337.172L840.971 335.805C799.013 299.892 794.113 236.766 830.025 194.808L836.708 187L838.305 188.367C880.263 224.279 885.163 287.406 849.25 329.364L842.567 337.172Z" fill="#B6CD37"/>
<path d="M930.002 419.399L928.314 418.147C883.958 385.243 874.675 322.61 907.58 278.254L913.703 270L915.391 271.252C959.747 304.157 969.03 366.789 936.125 411.145L930.002 419.399Z" fill="#B6CD37"/>
<path d="M1000.51 506.113L999.036 504.613C960.356 465.191 960.958 401.878 1000.38 363.198L1007.72 356L1009.19 357.5C1047.87 396.922 1047.27 460.235 1007.84 498.915L1000.51 506.113Z" fill="#B6CD37"/>
<path d="M1131.52 485.84L1129.44 486.178C1074.94 495.066 1023.54 458.083 1014.65 403.574L1013 393.431L1015.07 393.093C1069.58 384.205 1120.98 421.188 1129.86 475.697L1131.52 485.84Z" fill="#B6CD37"/>
<path d="M1237.52 547.84L1235.44 548.178C1180.94 557.066 1129.54 520.083 1120.65 465.574L1119 455.431L1121.07 455.093C1175.58 446.205 1226.98 483.188 1235.86 537.697L1237.52 547.84Z" fill="#B6CD37"/>
<path d="M1215.97 601.519L1214.92 599.698C1187.35 551.843 1203.79 490.699 1251.65 463.13L1260.55 458L1261.6 459.821C1289.17 507.676 1272.73 568.82 1224.87 596.389L1215.97 601.519Z" fill="#B6CD37"/>
<path d="M1263 556.883L1265.01 556.268C1317.82 540.104 1373.73 569.811 1389.9 622.621L1392.91 632.449L1390.9 633.064C1338.09 649.228 1282.17 619.521 1266.01 566.711L1263 556.883Z" fill="#B6CD37"/>
<path d="M1144.36 227.252L1142.35 227.879C1089.64 244.362 1033.55 214.993 1017.07 162.281L1014 152.472L1016.01 151.845C1068.72 135.362 1124.81 164.731 1141.29 217.443L1144.36 227.252Z" fill="#B6CD37"/>
<path d="M1325.26 416.34L1323.86 417.91C1287.13 459.154 1223.92 462.814 1182.68 426.084L1175 419.249L1176.4 417.68C1213.13 376.435 1276.34 372.775 1317.58 409.505L1325.26 416.34Z" fill="#B6CD37"/>
<path d="M1411.58 393.655L1409.53 394.111C1355.61 406.083 1302.2 372.081 1290.23 318.166L1288 308.133L1290.05 307.678C1343.97 295.705 1397.38 329.707 1409.35 383.622L1411.58 393.655Z" fill="#B6CD37"/>
<path d="M1491.43 577.217L1489.33 577.307C1434.16 579.672 1387.51 536.858 1385.14 481.681L1384.7 471.412L1386.8 471.323C1441.98 468.957 1488.63 511.771 1490.99 566.948L1491.43 577.217Z" fill="#B6CD37"/>
<path d="M278.787 256L280.528 257.177C326.273 288.121 338.272 350.29 307.328 396.036L301.57 404.549L299.829 403.371C254.084 372.428 242.085 310.258 273.029 264.513L278.787 256Z" fill="#B6CD37"/>
<path d="M553.656 326L554.015 328.07C563.451 382.487 526.986 434.249 472.57 443.685L462.443 445.44L462.084 443.37C452.649 388.953 489.113 337.191 543.53 327.756L553.656 326Z" fill="#B6CD37"/>
<path d="M436.896 405L438.139 406.694C470.821 451.214 461.225 513.799 416.705 546.482L408.42 552.563L407.177 550.87C374.494 506.349 384.091 443.764 428.611 411.082L436.896 405Z" fill="#B6CD37"/>
<path d="M446.619 445L448.72 445.031C503.943 445.842 548.052 491.266 547.241 546.489L547.09 556.765L544.989 556.734C489.766 555.923 445.657 510.499 446.468 455.276L446.619 445Z" fill="#B6CD37"/>
<path d="M830.785 431.133L830.668 433.231C827.597 488.374 780.405 530.586 725.262 527.515L715 526.943L715.117 524.845C718.188 469.702 765.381 427.49 820.524 430.561L830.785 431.133Z" fill="#B6CD37"/>
<path d="M783.677 487L785.748 487.356C840.178 496.71 876.721 548.417 867.367 602.848L865.626 612.977L863.555 612.621C809.125 603.267 772.582 551.56 781.936 497.129L783.677 487Z" fill="#B6CD37"/>
<path d="M1186.02 641L1187.7 642.258C1231.94 675.322 1241 737.988 1207.94 782.225L1201.78 790.457L1200.1 789.199C1155.86 756.135 1146.8 693.469 1179.87 649.232L1186.02 641Z" fill="#B6CD37"/>
<path d="M1096.36 580L1098.05 581.245C1142.54 613.979 1152.06 676.575 1119.33 721.058L1113.24 729.335L1111.54 728.09C1067.06 695.356 1057.54 632.76 1090.27 588.278L1096.36 580Z" fill="#B6CD37"/>
<path d="M945.842 452L947.385 453.426C987.947 490.908 990.445 554.175 952.963 594.737L945.988 602.286L944.445 600.86C903.882 563.378 901.385 500.111 938.867 459.548L945.842 452Z" fill="#B6CD37"/>
<path d="M1025.73 527L1027.18 528.519C1065.34 568.45 1063.9 631.75 1023.97 669.904L1016.54 677.004L1015.08 675.485C976.93 635.554 978.37 572.254 1018.3 534.1L1025.73 527Z" fill="#B6CD37"/>
<path d="M141.616 251.512L140.787 253.443C118.996 304.19 60.1913 327.664 9.44367 305.873L-6.95861e-06 301.818L0.82911 299.887C22.6204 249.139 81.4249 225.665 132.173 247.457L141.616 251.512Z" fill="#A2C73C"/>
<path d="M154.79 260L154.987 262.092C160.173 317.076 119.804 365.854 64.8194 371.04L54.5873 372.006L54.39 369.913C49.2039 314.929 89.5735 266.151 144.558 260.965L154.79 260Z" fill="#B6CD37"/>
<defs>
<linearGradient id="paint0_linear" x1="128.898" y1="182.381" x2="108.568" y2="246.504" gradientUnits="userSpaceOnUse">
<stop stop-color="#258B42"/>
<stop offset="1" stop-color="#6FAC54"/>
</linearGradient>
<linearGradient id="paint1_linear" x1="161.194" y1="123.956" x2="118.559" y2="175.987" gradientUnits="userSpaceOnUse">
<stop stop-color="#258B42"/>
<stop offset="1" stop-color="#6FAC54"/>
</linearGradient>
<linearGradient id="paint2_linear" x1="232.187" y1="171.397" x2="222.399" y2="237.949" gradientUnits="userSpaceOnUse">
<stop stop-color="#258B42"/>
<stop offset="1" stop-color="#6FAC54"/>
</linearGradient>
<linearGradient id="paint3_linear" x1="176.673" y1="257.198" x2="215.159" y2="312.369" gradientUnits="userSpaceOnUse">
<stop stop-color="#258B42"/>
<stop offset="1" stop-color="#6FAC54"/>
</linearGradient>
<linearGradient id="paint4_linear" x1="295.747" y1="367.308" x2="284.274" y2="433.59" gradientUnits="userSpaceOnUse">
<stop stop-color="#258B42"/>
<stop offset="1" stop-color="#6FAC54"/>
</linearGradient>
<linearGradient id="paint5_linear" x1="376.747" y1="299.308" x2="365.274" y2="365.59" gradientUnits="userSpaceOnUse">
<stop stop-color="#258B42"/>
<stop offset="1" stop-color="#6FAC54"/>
</linearGradient>
<linearGradient id="paint6_linear" x1="453.592" y1="195.527" x2="424.037" y2="255.955" gradientUnits="userSpaceOnUse">
<stop stop-color="#258B42"/>
<stop offset="1" stop-color="#6FAC54"/>
</linearGradient>
<linearGradient id="paint7_linear" x1="530.592" y1="195.527" x2="501.037" y2="255.955" gradientUnits="userSpaceOnUse">
<stop stop-color="#258B42"/>
<stop offset="1" stop-color="#6FAC54"/>
</linearGradient>
<linearGradient id="paint8_linear" x1="506.172" y1="258.399" x2="496.426" y2="324.957" gradientUnits="userSpaceOnUse">
<stop stop-color="#258B42"/>
<stop offset="1" stop-color="#6FAC54"/>
</linearGradient>
<linearGradient id="paint9_linear" x1="577.504" y1="311.39" x2="621.362" y2="362.395" gradientUnits="userSpaceOnUse">
<stop stop-color="#258B42"/>
<stop offset="1" stop-color="#6FAC54"/>
</linearGradient>
<linearGradient id="paint10_linear" x1="565.853" y1="419.379" x2="535.857" y2="479.589" gradientUnits="userSpaceOnUse">
<stop stop-color="#258B42"/>
<stop offset="1" stop-color="#6FAC54"/>
</linearGradient>
<linearGradient id="paint11_linear" x1="647.174" y1="403.082" x2="624.966" y2="466.578" gradientUnits="userSpaceOnUse">
<stop stop-color="#258B42"/>
<stop offset="1" stop-color="#6FAC54"/>
</linearGradient>
<linearGradient id="paint12_linear" x1="617.189" y1="460.479" x2="627.175" y2="527.002" gradientUnits="userSpaceOnUse">
<stop stop-color="#258B42"/>
<stop offset="1" stop-color="#6FAC54"/>
</linearGradient>
<linearGradient id="paint13_linear" x1="692.844" y1="107.428" x2="672.833" y2="171.651" gradientUnits="userSpaceOnUse">
<stop stop-color="#258B42"/>
<stop offset="1" stop-color="#6FAC54"/>
</linearGradient>
<linearGradient id="paint14_linear" x1="749.328" y1="169.995" x2="775.319" y2="232.039" gradientUnits="userSpaceOnUse">
<stop stop-color="#258B42"/>
<stop offset="1" stop-color="#6FAC54"/>
</linearGradient>
<linearGradient id="paint15_linear" x1="719.519" y1="313.042" x2="688.148" y2="372.547" gradientUnits="userSpaceOnUse">
<stop stop-color="#258B42"/>
<stop offset="1" stop-color="#6FAC54"/>
</linearGradient>
<linearGradient id="paint16_linear" x1="701.574" y1="513.478" x2="747.637" y2="562.5" gradientUnits="userSpaceOnUse">
<stop stop-color="#258B42"/>
<stop offset="1" stop-color="#6FAC54"/>
</linearGradient>
<linearGradient id="paint17_linear" x1="878.289" y1="498.43" x2="839.113" y2="553.113" gradientUnits="userSpaceOnUse">
<stop stop-color="#258B42"/>
<stop offset="1" stop-color="#6FAC54"/>
</linearGradient>
<linearGradient id="paint18_linear" x1="849.818" y1="431.508" x2="877.368" y2="492.876" gradientUnits="userSpaceOnUse">
<stop stop-color="#258B42"/>
<stop offset="1" stop-color="#6FAC54"/>
</linearGradient>
<linearGradient id="paint19_linear" x1="825.5" y1="353.251" x2="791.732" y2="411.429" gradientUnits="userSpaceOnUse">
<stop stop-color="#258B42"/>
<stop offset="1" stop-color="#6FAC54"/>
</linearGradient>
<linearGradient id="paint20_linear" x1="896.614" y1="186.318" x2="885.563" y2="252.672" gradientUnits="userSpaceOnUse">
<stop stop-color="#258B42"/>
<stop offset="1" stop-color="#6FAC54"/>
</linearGradient>
<linearGradient id="paint21_linear" x1="936.819" y1="125.296" x2="899.944" y2="181.557" gradientUnits="userSpaceOnUse">
<stop stop-color="#258B42"/>
<stop offset="1" stop-color="#6FAC54"/>
</linearGradient>
<linearGradient id="paint22_linear" x1="930.454" y1="235.77" x2="993.854" y2="258.251" gradientUnits="userSpaceOnUse">
<stop stop-color="#258B42"/>
<stop offset="1" stop-color="#6FAC54"/>
</linearGradient>
<linearGradient id="paint23_linear" x1="947.162" y1="258.41" x2="935.933" y2="324.734" gradientUnits="userSpaceOnUse">
<stop stop-color="#258B42"/>
<stop offset="1" stop-color="#6FAC54"/>
</linearGradient>
<linearGradient id="paint24_linear" x1="943.499" y1="316.27" x2="964.892" y2="380.046" gradientUnits="userSpaceOnUse">
<stop stop-color="#258B42"/>
<stop offset="1" stop-color="#6FAC54"/>
</linearGradient>
<linearGradient id="paint25_linear" x1="1010.92" y1="335.088" x2="1074.07" y2="358.246" gradientUnits="userSpaceOnUse">
<stop stop-color="#258B42"/>
<stop offset="1" stop-color="#6FAC54"/>
</linearGradient>
<linearGradient id="paint26_linear" x1="966.791" y1="481.128" x2="984.127" y2="546.124" gradientUnits="userSpaceOnUse">
<stop stop-color="#258B42"/>
<stop offset="1" stop-color="#6FAC54"/>
</linearGradient>
<linearGradient id="paint27_linear" x1="991.85" y1="437.206" x2="1009.19" y2="502.201" gradientUnits="userSpaceOnUse">
<stop stop-color="#258B42"/>
<stop offset="1" stop-color="#6FAC54"/>
</linearGradient>
<linearGradient id="paint28_linear" x1="998.183" y1="575.629" x2="1028.34" y2="635.761" gradientUnits="userSpaceOnUse">
<stop stop-color="#258B42"/>
<stop offset="1" stop-color="#6FAC54"/>
</linearGradient>
<linearGradient id="paint29_linear" x1="1043.54" y1="491.864" x2="1102.11" y2="524.952" gradientUnits="userSpaceOnUse">
<stop stop-color="#258B42"/>
<stop offset="1" stop-color="#6FAC54"/>
</linearGradient>
<linearGradient id="paint30_linear" x1="1112.65" y1="624.827" x2="1150.86" y2="680.191" gradientUnits="userSpaceOnUse">
<stop stop-color="#258B42"/>
<stop offset="1" stop-color="#6FAC54"/>
</linearGradient>
<linearGradient id="paint31_linear" x1="1088.06" y1="609.888" x2="1147.61" y2="641.179" gradientUnits="userSpaceOnUse">
<stop stop-color="#258B42"/>
<stop offset="1" stop-color="#6FAC54"/>
</linearGradient>
<linearGradient id="paint32_linear" x1="1156.01" y1="537.909" x2="1185.36" y2="598.437" gradientUnits="userSpaceOnUse">
<stop stop-color="#258B42"/>
<stop offset="1" stop-color="#6FAC54"/>
</linearGradient>
<linearGradient id="paint33_linear" x1="1194.22" y1="625.701" x2="1258.01" y2="647.066" gradientUnits="userSpaceOnUse">
<stop stop-color="#258B42"/>
<stop offset="1" stop-color="#6FAC54"/>
</linearGradient>
<linearGradient id="paint34_linear" x1="1280.61" y1="436.285" x2="1333.72" y2="477.574" gradientUnits="userSpaceOnUse">
<stop stop-color="#258B42"/>
<stop offset="1" stop-color="#6FAC54"/>
</linearGradient>
<linearGradient id="paint35_linear" x1="1186.84" y1="403.654" x2="1206.65" y2="467.937" gradientUnits="userSpaceOnUse">
<stop stop-color="#258B42"/>
<stop offset="1" stop-color="#6FAC54"/>
</linearGradient>
<linearGradient id="paint36_linear" x1="1132.2" y1="359.847" x2="1115.42" y2="424.99" gradientUnits="userSpaceOnUse">
<stop stop-color="#258B42"/>
<stop offset="1" stop-color="#6FAC54"/>
</linearGradient>
<linearGradient id="paint37_linear" x1="1133.2" y1="308.847" x2="1116.42" y2="373.99" gradientUnits="userSpaceOnUse">
<stop stop-color="#258B42"/>
<stop offset="1" stop-color="#6FAC54"/>
</linearGradient>
<linearGradient id="paint38_linear" x1="1228.2" y1="357.847" x2="1211.42" y2="422.99" gradientUnits="userSpaceOnUse">
<stop stop-color="#258B42"/>
<stop offset="1" stop-color="#6FAC54"/>
</linearGradient>
<linearGradient id="paint39_linear" x1="1210.32" y1="248.203" x2="1144.06" y2="259.822" gradientUnits="userSpaceOnUse">
<stop stop-color="#258B42"/>
<stop offset="1" stop-color="#6FAC54"/>
</linearGradient>
<linearGradient id="paint40_linear" x1="1226.99" y1="131.296" x2="1206.1" y2="195.238" gradientUnits="userSpaceOnUse">
<stop stop-color="#258B42"/>
<stop offset="1" stop-color="#6FAC54"/>
</linearGradient>
<linearGradient id="paint41_linear" x1="1416.72" y1="123.857" x2="1362.58" y2="163.77" gradientUnits="userSpaceOnUse">
<stop stop-color="#258B42"/>
<stop offset="1" stop-color="#6FAC54"/>
</linearGradient>
<linearGradient id="paint42_linear" x1="1412.72" y1="191.857" x2="1358.58" y2="231.77" gradientUnits="userSpaceOnUse">
<stop stop-color="#258B42"/>
<stop offset="1" stop-color="#6FAC54"/>
</linearGradient>
<linearGradient id="paint43_linear" x1="1427.38" y1="306.755" x2="1403.35" y2="369.586" gradientUnits="userSpaceOnUse">
<stop stop-color="#258B42"/>
<stop offset="1" stop-color="#6FAC54"/>
</linearGradient>
<linearGradient id="paint44_linear" x1="866.938" y1="299.973" x2="802.605" y2="319.626" gradientUnits="userSpaceOnUse">
<stop stop-color="#258B42"/>
<stop offset="1" stop-color="#6FAC54"/>
</linearGradient>
<linearGradient id="paint45_linear" x1="380.732" y1="357.932" x2="394.259" y2="423.826" gradientUnits="userSpaceOnUse">
<stop stop-color="#258B42"/>
<stop offset="1" stop-color="#6FAC54"/>
</linearGradient>
<linearGradient id="paint46_linear" x1="442.956" y1="399.506" x2="467.206" y2="462.251" gradientUnits="userSpaceOnUse">
<stop stop-color="#258B42"/>
<stop offset="1" stop-color="#6FAC54"/>
</linearGradient>
</defs>
</svg>
